{
.appVersion = "3260";
.formatVersion = 3;
customParameters = (
{
name = macintoshFONDFamilyID;
value = 128;
},
{
name = macintoshFONDName;
value = "Libre Baskerville";
},
{
name = openTypeHeadLowestRecPPEM;
value = 9;
},
{
name = compatibleFullNames;
value = "Libre Baskerville";
},
{
name = descriptions;
value = "Libre Baskerville is webfont optimized for web body text (typically 16px). It's based on 1941 ATF Specimens, but it has a taller x height, wider counters and minor contrast that allow it to work on small sizes in any screen.";
},
{
name = licenses;
value = "This Font Software is licensed under the SIL Open Font License, Version 1.1. This license is available with a FAQ at: http://scripts.sil.org/OFL";
},
{
name = licenseURL;
value = "http://scripts.sil.org/OFL";
},
{
name = preferredFamilyNames;
value = "Libre Baskerville";
},
{
name = uniqueID;
value = "PabloImpallari,RodrigoFuenzalida: Libre Baskerville: 2012";
},
{
name = versionString;
value = "Version 1.000";
},
{
name = codePageRanges;
value = (
"1252",
"1250",
"1254",
"1257"
);
},
{
name = openTypeOS2FamilyClass;
value = (
0,
0
);
},
{
name = panose;
value = (
2,
0,
0,
0,
0,
0,
0,
0,
0,
0
);
},
{
name = fsType;
value = (
);
},
{
name = unicodeRanges;
value = (
0,
1,
2,
3,
4,
5,
7,
29,
31,
32,
33,
35,
36,
38,
60,
62
);
},
{
name = vendorID;
value = pyrs;
},
{
name = blueFuzz;
value = 0;
},
{
name = blueScale;
value = 0.016667;
},
{
name = blueShift;
value = 10;
},
{
name = postscriptDefaultWidthX;
value = 500;
},
{
name = postscriptForceBold;
value = 0;
},
{
name = postscriptIsFixedPitch;
value = 0;
},
{
name = postscriptSlantAngle;
value = 0;
},
{
name = postscriptUniqueID;
value = -1;
},
{
name = postscriptWindowsCharacterSet;
value = 1;
},
{
name = trademarks;
value = "Libre Baskerville is a trademark of Pablo Impallari";
},
{
name = year;
value = 2012;
}
);
date = "2024-09-02 00:54:17 +0000";
familyName = "Libre Baskerville";
features = (
{
code = "	sub f f i by f_f_i;
	sub f f l by f_f_l;

glyphs = (
{
glyphname = A;
kernLeft = KERN_A;
kernRight = KERN_A;
layers = (
{
anchors = (
{
name = bottom;
pos = (638,0);
},
{
name = topcap;
pos = (383,830);
}
);
layerId = m001;
shapes = (
{
closed = 1;
nodes = (
(547,125,o),
(552,108,o),
(552,82,cs),
(552,51,o),
(530,39,o),
(459,39,c),
(459,0,l),
(785,0,l),
(785,39,l),
(716,39,o),
(694,56,o),
(633,206,cs),
(406,770,l),
(363,770,l),
(103,119,ls),
(80,62,o),
(55,45,o),
(-6,38,c),
(-6,0,l),
(237,0,l),
(237,38,l),
(182,38,o),
(159,50,o),
(159,87,cs),
(159,114,o),
(175,169,o),
(221,279,c),
(488,279,l),
(529,171,ls)
);
},
{
closed = 1;
nodes = (
(469,329,l),
(241,329,l),
(358,624,l)
);
}
);
width = 772;
}
);
unicode = 65;
},
{
glyphname = Aringacute;
kernLeft = KERN_A;
kernRight = KERN_A;
layers = (
{
layerId = m001;
shapes = (
{
closed = 1;
nodes = (
(545,136,o),
(553,109,o),
(553,88,cs),
(553,53,o),
(527,39,o),
(460,39,c),
(460,0,l),
(786,0,l),
(786,39,l),
(728,39,o),
(694,66,o),
(661,142,cs),
(407,720,l),
(364,720,l),
(104,119,ls),
(80,63,o),
(51,38,o),
(-5,38,c),
(-5,0,l),
(238,0,l),
(238,38,l),
(184,38,o),
(159,52,o),
(159,89,cs),
(159,110,o),
(164,130,o),
(181,173,cs),
(223,279,l),
(484,279,l),
(530,171,ls)
);
},
{
closed = 1;
nodes = (
(463,329,l),
(246,329,l),
(359,594,l)
);
},
{
closed = 1;
nodes = (
(300,871,o),
(301,864,o),
(302,857,c),
(242,801,l),
(296,801,l),
(328,816,l),
(342,805,o),
(359,799,o),
(379,799,cs),
(425,799,o),
(459,834,o),
(459,878,cs),
(459,883,o),
(458,889,o),
(457,894,c),
(484,909,o),
(500,926,o),
(500,944,cs),
(500,960,o),
(488,970,o),
(471,970,cs),
(455,970,o),
(441,964,o),
(424,947,c),
(412,955,o),
(396,960,o),
(379,960,cs),
(334,960,o),
(300,926,o),
(300,878,cs)
);
},
{
closed = 1;
nodes = (
(337,903,o),
(354,920,o),
(379,920,cs),
(404,920,o),
(421,903,o),
(421,878,cs),
(421,854,o),
(404,837,o),
(379,837,cs),
(354,837,o),
(337,854,o),
(337,878,cs)
);
}
);
width = 775;
}
);
unicode = 506;
},
{
glyphname = AE;
kernLeft = KERN_AE_2ND;
kernRight = KERN_E_1ST;
layers = (
{
layerId = m001;
shapes = (
{
closed = 1;
nodes = (
(370,0,l),
(991,0,l),
(1006,197,l),
(968,197,l),
(942,79,o),
(892,43,o),
(751,43,cs),
(625,43,o),
(585,70,o),
(585,157,cs),
(585,383,l),
(721,382,o),
(760,359,o),
(774,265,c),
(809,265,l),
(809,538,l),
(774,538,l),
(765,445,o),
(714,423,o),
(585,423,c),
(585,710,ls),
(585,720,o),
(591,727,o),
(602,727,cs),
(729,727,ls),
(865,727,o),
(911,700,o),
(927,594,c),
(962,594,l),
(962,770,l),
(326,770,l),
(326,732,l),
(387,732,o),
(409,725,o),
(409,707,cs),
(409,700,o),
(406,693,o),
(402,684,cs),
(173,241,o),
(140,187,o),
(102,119,cs),
(71,63,o),
(50,45,o),
(-11,38,c),
(-11,0,l),
(231,0,l),
(231,38,l),
(199,41,o),
(158,38,o),
(158,78,cs),
(158,121,o),
(205,198,o),
(245,275,cs),
(249,284,l),
(480,284,l),
(480,152,ls),
(480,58,o),
(464,41,o),
(370,38,c)
);
},
{
closed = 1;
nodes = (
(480,721,l),
(480,329,l),
(273,329,l)
);
}
);
width = 1051;
}
);
unicode = 198;
},
{
glyphname = B;
kernLeft = KERN_I_2ND;
layers = (
{
layerId = m001;
shapes = (
{
closed = 1;
nodes = (
(38,38,l),
(141,41,o),
(158,58,o),
(158,152,cs),
(158,618,ls),
(158,711,o),
(144,728,o),
(58,732,c),
(58,770,l),
(357,770,ls),
(536,770,o),
(642,702,o),
(642,587,cs),
(642,500,o),
(588,446,o),
(469,410,c),
(469,406,l),
(551,397,o),
(587,386,o),
(628,358,cs),
(686,317,o),
(717,262,o),
(717,200,cs),
(717,130,o),
(675,65,o),
(605,30,cs),
(560,7,o),
(514,0,o),
(398,0,cs),
(38,0,l)
);
},
{
closed = 1;
nodes = (
(522,43,o),
(582,94,o),
(582,198,cs),
(582,273,o),
(551,326,o),
(489,356,cs),
(447,376,o),
(416,380,o),
(308,380,cs),
(263,380,l),
(263,157,ls),
(263,76,o),
(303,43,o),
(401,43,cs)
);
},
{
closed = 1;
nodes = (
(402,430,o),
(424,434,o),
(457,454,cs),
(499,480,o),
(516,515,o),
(516,575,cs),
(516,680,o),
(466,723,o),
(357,723,cs),
(280,723,ls),
(269,723,o),
(263,716,o),
(263,706,cs),
(263,430,l),
(319,430,ls)
);
}
);
width = 767;
}
);
unicode = 66;
},
{
glyphname = C;
kernLeft = KERN_C;
kernRight = KERN_C;
layers = (
{
anchors = (
{
name = bottom;
pos = (432,0);
},
{
name = topcap;
pos = (448,830);
}
);
layerId = m001;
shapes = (
{
closed = 1;
nodes = (
(589,759,o),
(523,780,o),
(443,780,cs),
(216,780,o),
(60,614,o),
(60,372,cs),
(60,139,o),
(206,-10,o),
(432,-10,cs),
(531,-10,o),
(615,19,o),
(686,79,c),
(709,0,l),
(744,0,l),
(744,249,l),
(703,249,l),
(667,114,o),
(582,44,o),
(455,44,cs),
(287,44,o),
(194,164,o),
(194,378,cs),
(194,596,o),
(290,728,o),
(452,728,cs),
(570,728,o),
(660,656,o),
(689,540,c),
(726,540,l),
(717,770,l),
(689,770,l),
(671,708,l)
);
}
);
width = 802;
}
);
unicode = 67;
},
{
glyphname = D;
kernLeft = KERN_I_2ND;
kernRight = KERN_D_1ST;
layers = (
{
anchors = (
{
name = bottom;
pos = (441,0);
},
{
name = topcap;
pos = (441,830);
}
);
layerId = m001;
shapes = (
{
closed = 1;
nodes = (
(38,38,l),
(140,41,o),
(158,57,o),
(158,152,cs),
(158,618,ls),
(158,711,o),
(144,728,o),
(58,732,c),
(58,770,l),
(409,770,ls),
(650,770,o),
(825,602,o),
(825,372,cs),
(825,153,o),
(662,0,o),
(429,0,cs),
(38,0,l)
);
},
{
closed = 1;
nodes = (
(269,721,o),
(263,714,o),
(263,704,cs),
(263,163,ls),
(263,86,o),
(311,49,o),
(412,49,cs),
(593,49,o),
(695,160,o),
(695,370,cs),
(695,591,o),
(585,721,o),
(407,721,cs),
(280,721,ls)
);
}
);
width = 884;
}
);
unicode = 68;
},
{
glyphname = Dcroat;
kernLeft = KERN_I_2ND;
kernRight = KERN_D_1ST;
layers = (
{
layerId = m001;
shapes = (
{
closed = 1;
nodes = (
(76,436,l),
(156,436,l),
(156,618,ls),
(156,711,o),
(142,728,o),
(56,732,c),
(56,770,l),
(407,770,ls),
(648,770,o),
(823,602,o),
(823,372,cs),
(823,153,o),
(660,0,o),
(427,0,cs),
(36,0,l),
(36,38,l),
(138,41,o),
(156,57,o),
(156,152,cs),
(156,383,l),
(76,383,l)
);
},
{
closed = 1;
nodes = (
(267,721,o),
(261,714,o),
(261,704,cs),
(261,436,l),
(425,436,l),
(425,383,l),
(261,383,l),
(261,163,ls),
(261,86,o),
(309,49,o),
(410,49,cs),
(591,49,o),
(693,160,o),
(693,370,cs),
(693,591,o),
(583,721,o),
(405,721,cs),
(278,721,ls)
);
}
);
width = 882;
}
);
unicode = 272;
},
{
glyphname = Eth;
kernLeft = KERN_I_2ND;
kernRight = KERN_D_1ST;
layers = (
{
layerId = m001;
shapes = (
{
closed = 1;
nodes = (
(76,436,l),
(156,436,l),
(156,618,ls),
(156,711,o),
(142,728,o),
(56,732,c),
(56,770,l),
(407,770,ls),
(648,770,o),
(823,602,o),
(823,372,cs),
(823,153,o),
(660,0,o),
(427,0,cs),
(36,0,l),
(36,38,l),
(138,41,o),
(156,57,o),
(156,152,cs),
(156,383,l),
(76,383,l)
);
},
{
closed = 1;
nodes = (
(267,721,o),
(261,714,o),
(261,704,cs),
(261,436,l),
(425,436,l),
(425,383,l),
(261,383,l),
(261,163,ls),
(261,86,o),
(309,49,o),
(410,49,cs),
(591,49,o),
(693,160,o),
(693,370,cs),
(693,591,o),
(583,721,o),
(405,721,cs),
(278,721,ls)
);
}
);
width = 882;
}
);
unicode = 208;
},
{
glyphname = E;
kernLeft = KERN_I_2ND;
kernRight = KERN_E_1ST;
layers = (
{
anchors = (
{
name = bottom;
pos = (379,0);
},
{
name = topcap;
pos = (379,830);
}
);
layerId = m001;
shapes = (
{
closed = 1;
nodes = (
(260,720,o),
(266,727,o),
(277,727,cs),
(404,727,ls),
(540,727,o),
(591,700,o),
(607,594,c),
(642,594,l),
(633,770,l),
(55,770,l),
(55,732,l),
(141,728,o),
(155,711,o),
(155,618,cs),
(155,152,ls),
(155,58,o),
(139,41,o),
(45,38,c),
(45,0,l),
(666,0,l),
(681,197,l),
(643,197,l),
(617,79,o),
(567,43,o),
(426,43,cs),
(300,43,o),
(260,70,o),
(260,157,cs),
(260,383,l),
(410,382,o),
(449,345,o),
(449,265,c),
(484,265,l),
(484,538,l),
(449,538,l),
(449,457,o),
(404,423,o),
(260,423,c),
(260,710,ls)
);
}
);
width = 726;
}
);
unicode = 69;
},
{
glyphname = Schwa;
layers = (
{
layerId = m001;
shapes = (
{
closed = 1;
nodes = (
(175,695,o),
(234,724,o),
(327,724,cs),
(503,724,o),
(615,585,o),
(615,375,cs),
(615,350,o),
(614,327,o),
(610,311,c),
(103,311,ls),
(64,311,o),
(58,308,o),
(58,282,cs),
(58,95,o),
(166,-10,o),
(350,-10,cs),
(581,-10,o),
(744,158,o),
(744,394,cs),
(744,624,o),
(592,781,o),
(367,781,cs),
(245,781,o),
(142,738,o),
(59,637,c),
(99,606,l)
);
},
{
closed = 1;
nodes = (
(572,114,o),
(494,48,o),
(373,48,cs),
(266,48,o),
(200,110,o),
(200,204,cs),
(200,239,o),
(208,245,o),
(286,245,c),
(600,245,l)
);
}
);
width = 803;
}
);
unicode = 399;
},
{
glyphname = F;
kernLeft = KERN_I_2ND;
layers = (
{
layerId = m001;
shapes = (
{
closed = 1;
nodes = (
(260,57,o),
(278,41,o),
(399,38,c),
(399,0,l),
(45,0,l),
(45,38,l),
(139,41,o),
(155,58,o),
(155,152,cs),
(155,618,ls),
(155,711,o),
(141,728,o),
(55,732,c),
(55,770,l),
(633,770,l),
(644,579,l),
(609,579,l),
(592,693,o),
(547,722,o),
(404,722,cs),
(277,722,ls),
(266,722,o),
(260,715,o),
(260,705,cs),
(260,403,l),
(389,403,o),
(440,427,o),
(449,528,c),
(484,528,l),
(484,235,l),
(449,235,l),
(435,337,o),
(396,362,o),
(260,363,c),
(260,159,ls)
);
}
);
width = 670;
}
);
unicode = 70;
},
{
glyphname = G;
kernLeft = KERN_G;
kernRight = KERN_G;
layers = (
{
anchors = (
{
name = bottom;
pos = (431,0);
},
{
name = topcap;
pos = (446,830);
}
);
layerId = m001;
shapes = (
{
closed = 1;
nodes = (
(499,-10,o),
(562,8,o),
(608,34,cs),
(684,77,o),
(710,83,o),
(761,83,c),
(761,195,ls),
(761,264,o),
(778,284,o),
(843,284,c),
(843,322,l),
(559,322,l),
(559,284,l),
(630,284,o),
(659,263,o),
(659,185,cs),
(659,111,o),
(584,44,o),
(455,44,cs),
(287,44,o),
(194,164,o),
(194,378,cs),
(194,596,o),
(290,728,o),
(452,728,cs),
(560,728,o),
(666,670,o),
(666,540,c),
(714,540,l),
(727,770,l),
(692,770,l),
(671,708,l),
(589,759,o),
(523,780,o),
(443,780,cs),
(216,780,o),
(60,614,o),
(60,372,cs),
(60,139,o),
(202,-10,o),
(428,-10,cs)
);
}
);
width = 870;
}
);
unicode = 71;
},
{
glyphname = H;
kernLeft = KERN_I_2ND;
kernRight = KERN_I_1ST;
layers = (
{
anchors = (
{
name = bottom;
pos = (464,0);
},
{
name = topcap;
pos = (464,830);
}
);
layerId = m001;
shapes = (
{
closed = 1;
nodes = (
(770,57,o),
(785,41,o),
(879,38,c),
(879,0,l),
(555,0,l),
(555,38,l),
(649,41,o),
(665,58,o),
(665,152,cs),
(665,369,l),
(260,369,l),
(260,159,ls),
(260,57,o),
(275,41,o),
(369,38,c),
(369,0,l),
(45,0,l),
(45,38,l),
(139,41,o),
(155,58,o),
(155,152,cs),
(155,618,ls),
(155,711,o),
(141,728,o),
(55,732,c),
(55,770,l),
(359,770,l),
(359,732,l),
(273,729,o),
(260,712,o),
(260,611,cs),
(260,419,l),
(665,419,l),
(665,618,ls),
(665,711,o),
(651,728,o),
(565,732,c),
(565,770,l),
(869,770,l),
(869,732,l),
(783,729,o),
(770,712,o),
(770,611,cs),
(770,159,ls)
);
}
);
width = 925;
}
);
unicode = 72;
},
{
glyphname = Hbar;
kernLeft = KERN_I_2ND;
kernRight = KERN_I_1ST;
layers = (
{
layerId = m001;
shapes = (
{
closed = 1;
nodes = (
(76,591,l),
(850,591,l),
(850,541,l),
(76,541,l)
);
},
{
pos = (1,0);
ref = H;
}
);
width = 927;
}
);
unicode = 294;
},
{
glyphname = I;
kernLeft = KERN_I_2ND;
kernRight = KERN_I_1ST;
layers = (
{
anchors = (
{
name = bottom;
pos = (206,0);
},
{
name = topcap;
pos = (206,830);
}
);
layerId = m001;
shapes = (
{
closed = 1;
nodes = (
(260,702,o),
(273,729,o),
(359,732,c),
(359,770,l),
(55,770,l),
(55,732,l),
(141,728,o),
(155,701,o),
(155,588,cs),
(155,182,ls),
(155,58,o),
(139,41,o),
(45,38,c),
(45,0,l),
(369,0,l),
(369,38,l),
(275,41,o),
(260,57,o),
(260,189,cs),
(260,581,l)
);
}
);
width = 415;
}
);
unicode = 73;
},
{
glyphname = J;
kernLeft = KERN_J_2ND;
kernRight = KERN_J_1ST;
layers = (
{
anchors = (
{
name = topcap;
pos = (199,830);
}
);
layerId = m001;
shapes = (
{
closed = 1;
nodes = (
(145,711,o),
(131,728,o),
(45,732,c),
(45,770,l),
(349,770,l),
(349,732,l),
(263,729,o),
(250,712,o),
(250,611,cs),
(250,-2,ls),
(250,-169,o),
(177,-260,o),
(42,-260,cs),
(-49,-260,o),
(-110,-221,o),
(-110,-163,cs),
(-110,-129,o),
(-91,-110,o),
(-59,-110,cs),
(-34,-110,o),
(-22,-120,o),
(-2,-157,cs),
(21,-200,o),
(34,-212,o),
(60,-212,cs),
(114,-212,o),
(145,-150,o),
(145,-43,cs),
(145,618,ls)
);
}
);
width = 394;
}
);
unicode = 74;
},
{
glyphname = K;
kernLeft = KERN_I_2ND;
kernRight = KERN_K_1ST;
layers = (
{
anchors = (
{
name = bottom;
pos = (412,0);
}
);
layerId = m001;
shapes = (
{
closed = 1;
nodes = (
(260,57,o),
(277,38,o),
(369,38,c),
(369,0,l),
(45,0,l),
(45,38,l),
(138,38,o),
(155,58,o),
(155,152,cs),
(155,618,ls),
(155,720,o),
(134,732,o),
(55,732,c),
(55,770,l),
(359,770,l),
(359,732,l),
(279,732,o),
(260,717,o),
(260,611,cs),
(260,364,l),
(510,665,ls),
(523,681,o),
(530,694,o),
(530,704,cs),
(530,722,o),
(511,732,o),
(473,732,c),
(473,770,l),
(714,770,l),
(714,733,l),
(661,733,o),
(638,723,o),
(582,658,cs),
(394,441,l),
(686,90,ls),
(719,51,o),
(743,38,o),
(792,38,c),
(792,0,l),
(485,0,l),
(485,38,l),
(537,38,o),
(558,46,o),
(558,65,cs),
(558,76,o),
(548,96,o),
(524,125,cs),
(329,365,l),
(260,285,l),
(260,159,ls)
);
}
);
width = 779;
}
);
unicode = 75;
},
{
glyphname = L;
kernLeft = KERN_I_2ND;
kernRight = KERN_L_1ST;
layers = (
{
anchors = (
{
name = bottom;
pos = (381,0);
},
{
name = topcap;
pos = (206,830);
}
);
layerId = m001;
shapes = (
{
closed = 1;
nodes = (
(45,0,l),
(45,38,l),
(139,41,o),
(155,58,o),
(155,152,cs),
(155,618,ls),
(155,711,o),
(141,728,o),
(55,732,c),
(55,770,l),
(359,770,l),
(359,732,l),
(273,729,o),
(260,712,o),
(260,611,cs),
(260,180,ls),
(260,68,o),
(300,45,o),
(438,45,cs),
(591,45,o),
(639,73,o),
(668,197,c),
(706,197,l),
(691,0,l)
);
}
);
width = 727;
}
);
unicode = 76;
},
{
glyphname = Lslash;
kernLeft = KERN_I_2ND;
kernRight = KERN_L_1ST;
layers = (
{
layerId = m001;
shapes = (
{
closed = 1;
nodes = (
(66,327,l),
(390,530,l),
(390,470,l),
(66,267,l)
);
},
{
pos = (1,0);
ref = L;
}
);
width = 728;
}
);
unicode = 321;
},
{
glyphname = M;
kernLeft = KERN_N_2ND;
kernRight = KERN_I_1ST;
layers = (
{
layerId = m001;
shapes = (
{
closed = 1;
nodes = (
(810,770,l),
(1034,770,l),
(1034,732,l),
(948,729,o),
(935,702,o),
(935,581,cs),
(935,189,ls),
(935,57,o),
(950,41,o),
(1044,38,c),
(1044,0,l),
(720,0,l),
(720,38,l),
(814,41,o),
(830,58,o),
(830,182,cs),
(830,646,l),
(820,646,l),
(528,-10,l),
(506,-10,l),
(219,646,l),
(215,646,l),
(215,189,ls),
(215,57,o),
(230,41,o),
(324,38,c),
(324,0,l),
(45,0,l),
(45,38,l),
(139,41,o),
(155,58,o),
(155,182,cs),
(155,588,ls),
(155,701,o),
(141,728,o),
(55,732,c),
(55,770,l),
(294,770,l),
(546,179,l),
(550,179,l)
);
}
);
width = 1090;
}
);
unicode = 77;
},
{
glyphname = N;
kernLeft = KERN_N_2ND;
kernRight = KERN_N_1ST;
layers = (
{
anchors = (
{
name = bottom;
pos = (459,0);
},
{
name = topcap;
pos = (464,830);
}
);
layerId = m001;
shapes = (
{
closed = 1;
nodes = (
(219,616,l),
(215,616,l),
(215,189,ls),
(215,57,o),
(229,41,o),
(314,38,c),
(314,0,l),
(45,0,l),
(45,38,l),
(139,41,o),
(155,58,o),
(155,182,cs),
(155,588,ls),
(155,701,o),
(141,728,o),
(55,732,c),
(55,770,l),
(253,770,l),
(690,187,l),
(694,187,l),
(694,581,ls),
(694,713,o),
(680,729,o),
(595,732,c),
(595,770,l),
(864,770,l),
(864,732,l),
(770,729,o),
(754,712,o),
(754,588,cs),
(754,-10,l),
(694,-10,l)
);
}
);
width = 902;
}
);
unicode = 78;
},
{
glyphname = Eng;
kernLeft = KERN_N_2ND;
kernRight = KERN_N_1ST;
layers = (
{
layerId = m001;
shapes = (
{
closed = 1;
nodes = (
(219,616,l),
(215,616,l),
(215,189,ls),
(215,57,o),
(229,41,o),
(314,38,c),
(314,0,l),
(45,0,l),
(45,38,l),
(139,41,o),
(155,58,o),
(155,182,cs),
(155,588,ls),
(155,701,o),
(141,728,o),
(55,732,c),
(55,770,l),
(253,770,l),
(690,187,l),
(694,187,l),
(694,581,ls),
(694,713,o),
(680,729,o),
(595,732,c),
(595,770,l),
(864,770,l),
(864,732,l),
(770,729,o),
(754,712,o),
(754,588,cs),
(754,-10,ls),
(754,-172,o),
(679,-260,o),
(546,-260,cs),
(455,-260,o),
(394,-221,o),
(394,-163,cs),
(394,-129,o),
(413,-110,o),
(445,-110,cs),
(470,-110,o),
(482,-120,o),
(502,-157,cs),
(525,-200,o),
(538,-212,o),
(564,-212,cs),
(646,-212,o),
(694,-150,o),
(694,-43,cs),
(694,-10,l)
);
}
);
width = 902;
}
);
unicode = 330;
},
{
glyphname = O;
kernLeft = KERN_O_2ND;
kernRight = KERN_O_1ST;
layers = (
{
anchors = (
{
name = bottom;
pos = (474,0);
},
{
name = topcap;
pos = (474,830);
}
);
layerId = m001;
shapes = (
{
closed = 1;
nodes = (
(239,780,o),
(57,605,o),
(57,379,cs),
(57,162,o),
(241,-10,o),
(473,-10,cs),
(705,-10,o),
(889,162,o),
(889,379,cs),
(889,605,o),
(707,780,o),
(473,780,cs)
);
},
{
closed = 1;
nodes = (
(297,45,o),
(187,173,o),
(187,376,cs),
(187,590,o),
(297,725,o),
(473,725,cs),
(649,725,o),
(759,590,o),
(759,376,cs),
(759,173,o),
(648,45,o),
(473,45,cs)
);
}
);
width = 946;
}
);
unicode = 79;
},
{
glyphname = Oslash;
kernLeft = KERN_O_2ND;
kernRight = KERN_O_1ST;
layers = (
{
layerId = m001;
shapes = (
{
closed = 1;
nodes = (
(239,780,o),
(57,605,o),
(57,379,cs),
(57,262,o),
(110,158,o),
(196,87,c),
(63,-81,l),
(131,-81,l),
(239,56,l),
(306,14,o),
(386,-10,o),
(473,-10,cs),
(705,-10,o),
(889,162,o),
(889,379,cs),
(889,506,o),
(831,616,o),
(740,689,c),
(851,830,l),
(782,830,l),
(695,720,l),
(631,758,o),
(555,780,o),
(473,780,cs)
);
},
{
closed = 1;
nodes = (
(396,45,o),
(332,69,o),
(284,113,c),
(688,623,l),
(734,563,o),
(759,479,o),
(759,376,cs),
(759,173,o),
(648,45,o),
(473,45,cs)
);
},
{
closed = 1;
nodes = (
(187,590,o),
(297,725,o),
(473,725,cs),
(544,725,o),
(604,703,o),
(650,663,c),
(248,154,l),
(208,210,o),
(187,285,o),
(187,376,cs)
);
}
);
width = 946;
}
);
unicode = 216;
},
{
glyphname = Oslashacute;
kernLeft = KERN_O_2ND;
kernRight = KERN_O_1ST;
layers = (
{
layerId = m001;
shapes = (
{
closed = 1;
nodes = (
(239,780,o),
(57,605,o),
(57,379,cs),
(57,262,o),
(110,158,o),
(196,87,c),
(63,-81,l),
(131,-81,l),
(239,56,l),
(306,14,o),
(386,-10,o),
(473,-10,cs),
(705,-10,o),
(889,162,o),
(889,379,cs),
(889,506,o),
(831,616,o),
(740,689,c),
(851,830,l),
(782,830,l),
(695,720,l),
(631,758,o),
(555,780,o),
(473,780,cs)
);
},
{
closed = 1;
nodes = (
(396,45,o),
(332,69,o),
(284,113,c),
(688,623,l),
(734,563,o),
(759,479,o),
(759,376,cs),
(759,173,o),
(648,45,o),
(473,45,cs)
);
},
{
closed = 1;
nodes = (
(187,590,o),
(297,725,o),
(473,725,cs),
(544,725,o),
(604,703,o),
(650,663,c),
(248,154,l),
(208,210,o),
(187,285,o),
(187,376,cs)
);
},
{
pos = (356,0);
ref = acute.cap;
}
);
width = 943;
}
);
unicode = 510;
},
{
glyphname = OE;
kernLeft = KERN_O_2ND;
kernRight = KERN_E_1ST;
layers = (
{
layerId = m001;
shapes = (
{
closed = 1;
nodes = (
(240,770,o),
(58,599,o),
(58,379,cs),
(58,168,o),
(239,0,o),
(471,0,cs),
(1092,0,l),
(1107,197,l),
(1069,197,l),
(1043,79,o),
(993,43,o),
(852,43,cs),
(726,43,o),
(686,70,o),
(686,157,cs),
(686,383,l),
(822,382,o),
(875,360,o),
(875,265,c),
(910,265,l),
(910,538,l),
(875,538,l),
(875,445,o),
(815,423,o),
(686,423,c),
(686,710,ls),
(686,720,o),
(692,727,o),
(703,727,cs),
(830,727,ls),
(966,727,o),
(1017,700,o),
(1033,594,c),
(1068,594,l),
(1059,770,l),
(474,770,ls)
);
},
{
closed = 1;
nodes = (
(560,730,o),
(581,711,o),
(581,618,cs),
(581,152,ls),
(581,58,o),
(568,42,o),
(474,42,cs),
(298,42,o),
(188,170,o),
(188,376,cs),
(188,595,o),
(298,730,o),
(474,730,cs)
);
}
);
width = 1152;
}
);
unicode = 338;
},
{
glyphname = P;
kernLeft = KERN_I_2ND;
layers = (
{
layerId = m001;
shapes = (
{
closed = 1;
nodes = (
(658,698,o),
(552,770,o),
(369,770,cs),
(55,770,l),
(55,732,l),
(141,728,o),
(155,711,o),
(155,618,cs),
(155,152,ls),
(155,58,o),
(139,41,o),
(45,38,c),
(45,0,l),
(398,0,l),
(398,38,l),
(277,38,o),
(260,58,o),
(260,157,cs),
(260,350,l),
(350,350,ls),
(573,350,o),
(658,437,o),
(658,577,cs)
);
},
{
closed = 1;
nodes = (
(260,716,o),
(266,723,o),
(277,723,cs),
(369,723,ls),
(478,723,o),
(528,677,o),
(528,565,cs),
(528,448,o),
(463,400,o),
(331,400,cs),
(260,400,l),
(260,706,ls)
);
}
);
width = 687;
}
);
unicode = 80;
},
{
glyphname = Thorn;
kernLeft = KERN_I_2ND;
layers = (
{
layerId = m001;
shapes = (
{
closed = 1;
nodes = (
(262,712,o),
(279,732,o),
(400,732,c),
(400,770,l),
(47,770,l),
(47,732,l),
(141,729,o),
(157,712,o),
(157,618,cs),
(157,152,ls),
(157,58,o),
(141,41,o),
(47,38,c),
(47,0,l),
(400,0,l),
(400,38,l),
(279,38,o),
(262,58,o),
(262,157,cs),
(262,176,l),
(352,176,ls),
(575,176,o),
(660,251,o),
(660,391,cs),
(660,512,o),
(554,596,o),
(371,596,cs),
(262,596,l),
(262,613,ls)
);
},
{
closed = 1;
nodes = (
(262,542,o),
(268,549,o),
(279,549,cs),
(371,549,ls),
(480,549,o),
(530,503,o),
(530,391,cs),
(530,274,o),
(465,226,o),
(333,226,cs),
(262,226,l),
(262,532,ls)
);
}
);
width = 699;
}
);
unicode = 222;
},
{
glyphname = Q;
layers = (
{
layerId = m001;
shapes = (
{
closed = 1;
nodes = (
(240,780,o),
(58,606,o),
(58,376,cs),
(58,156,o),
(224,-22,o),
(449,-29,c),
(319,-103,ls),
(259,-138,o),
(253,-145,o),
(253,-163,cs),
(253,-178,o),
(264,-188,o),
(282,-188,cs),
(327,-188,o),
(337,-123,o),
(406,-123,cs),
(507,-123,o),
(610,-260,o),
(758,-260,cs),
(857,-260,o),
(933,-198,o),
(933,-114,cs),
(933,-100,o),
(931,-84,o),
(929,-72,c),
(904,-72,l),
(884,-137,o),
(856,-161,o),
(794,-161,cs),
(685,-161,o),
(601,-86,o),
(482,-86,cs),
(471,-86,o),
(455,-87,o),
(447,-88,c),
(447,-84,l),
(475,-63,o),
(510,-47,o),
(546,-33,cs),
(622,-5,o),
(694,25,o),
(749,73,cs),
(834,147,o),
(890,253,o),
(890,378,cs),
(890,605,o),
(708,780,o),
(474,780,cs)
);
},
{
closed = 1;
nodes = (
(298,20,o),
(188,158,o),
(188,376,cs),
(188,590,o),
(298,725,o),
(474,725,cs),
(650,725,o),
(760,590,o),
(760,376,cs),
(760,158,o),
(649,20,o),
(474,20,cs)
);
}
);
width = 948;
}
);
unicode = 81;
},
{
glyphname = R;
kernLeft = KERN_I_2ND;
kernRight = KERN_R_1ST;
layers = (
{
anchors = (
{
name = bottom;
pos = (412,0);
},
{
name = topcap;
pos = (375,830);
}
);
layerId = m001;
shapes = (
{
closed = 1;
nodes = (
(658,698,o),
(552,770,o),
(369,770,cs),
(55,770,l),
(55,732,l),
(141,728,o),
(155,711,o),
(155,618,cs),
(155,152,ls),
(155,58,o),
(139,41,o),
(45,38,c),
(45,0,l),
(398,0,l),
(398,38,l),
(277,38,o),
(260,58,o),
(260,157,cs),
(260,365,l),
(322,365,o),
(342,360,o),
(377,314,cs),
(622,0,l),
(815,0,l),
(815,38,l),
(756,47,o),
(714,63,o),
(678,107,cs),
(457,373,l),
(597,397,o),
(658,471,o),
(658,577,cs)
);
},
{
closed = 1;
nodes = (
(260,716,o),
(266,723,o),
(277,723,cs),
(369,723,ls),
(478,723,o),
(528,679,o),
(528,572,cs),
(528,461,o),
(463,415,o),
(331,415,cs),
(260,415,l),
(260,706,ls)
);
}
);
width = 788;
}
);
unicode = 82;
},
{
glyphname = S;
kernLeft = KERN_S;
kernRight = KERN_S;
layers = (
{
anchors = (
{
name = bottom;
pos = (318,0);
},
{
name = topcap;
pos = (316,830);
}
);
layerId = m001;
shapes = (
{
closed = 1;
nodes = (
(96,11,l),
(124,60,l),
(186,10,o),
(243,-10,o),
(319,-10,cs),
(480,-10,o),
(591,83,o),
(591,217,cs),
(591,322,o),
(535,377,o),
(337,466,cs),
(223,517,o),
(184,555,o),
(184,618,cs),
(184,685,o),
(236,729,o),
(317,729,cs),
(402,729,o),
(464,676,o),
(496,567,c),
(533,567,l),
(522,766,l),
(499,766,l),
(473,721,l),
(421,762,o),
(372,780,o),
(314,780,cs),
(183,780,o),
(90,692,o),
(90,568,cs),
(90,465,o),
(141,410,o),
(307,337,cs),
(442,278,o),
(482,239,o),
(482,171,cs),
(482,92,o),
(420,41,o),
(322,41,cs),
(202,41,o),
(114,114,o),
(95,235,c),
(58,235,l),
(73,11,l)
);
}
);
width = 645;
}
);
unicode = 83;
},
{
glyphname = T;
kernLeft = KERN_T;
kernRight = KERN_T;
layers = (
{
anchors = (
{
name = bottom;
pos = (402,0);
},
{
name = topcap;
pos = (402,830);
}
);
layerId = m001;
shapes = (
{
closed = 1;
nodes = (
(21,770,l),
(21,579,l),
(58,579,l),
(62,721,o),
(140,727,o),
(244,727,cs),
(329,727,o),
(342,719,o),
(342,696,cs),
(342,161,ls),
(342,75,o),
(325,42,o),
(212,38,c),
(212,0,l),
(590,0,l),
(590,38,l),
(477,42,o),
(461,75,o),
(461,161,cs),
(461,696,ls),
(461,719,o),
(475,727,o),
(574,727,cs),
(690,727,o),
(736,695,o),
(745,579,c),
(786,579,l),
(776,770,l)
);
}
);
width = 803;
}
);
unicode = 84;
},
{
glyphname = Tbar;
kernLeft = KERN_T;
kernRight = KERN_T;
layers = (
{
layerId = m001;
shapes = (
{
closed = 1;
nodes = (
(666,467,l),
(139,467,l),
(139,417,l),
(666,417,l)
);
},
{
pos = (1,0);
ref = T;
}
);
width = 805;
}
);
unicode = 358;
},
{
glyphname = U;
kernLeft = KERN_U;
kernRight = KERN_U;
layers = (
{
anchors = (
{
name = bottom;
pos = (452,0);
},
{
name = topcap;
pos = (459,830);
}
);
layerId = m001;
shapes = (
{
closed = 1;
nodes = (
(722,622,o),
(727,677,o),
(747,705,cs),
(763,728,o),
(790,732,o),
(832,732,c),
(832,770,l),
(542,770,l),
(542,732,l),
(583,732,o),
(611,729,o),
(629,712,cs),
(655,687,o),
(662,631,o),
(662,512,cs),
(662,271,ls),
(662,128,o),
(595,52,o),
(462,52,cs),
(313,52,o),
(260,129,o),
(260,265,cs),
(260,537,ls),
(260,635,o),
(264,684,o),
(282,708,cs),
(298,729,o),
(325,732,o),
(370,732,c),
(370,770,l),
(29,770,l),
(29,732,l),
(74,732,o),
(100,727,o),
(116,710,cs),
(139,685,o),
(140,636,o),
(140,537,cs),
(140,273,ls),
(140,63,o),
(237,-10,o),
(434,-10,cs),
(643,-10,o),
(722,99,o),
(722,310,cs),
(722,512,ls)
);
}
);
width = 861;
}
);
unicode = 85;
},
{
glyphname = V;
layers = (
{
layerId = m001;
shapes = (
{
closed = 1;
nodes = (
(228,649,o),
(222,670,o),
(222,689,cs),
(222,717,o),
(239,731,o),
(313,731,c),
(313,770,l),
(-13,770,l),
(-13,731,l),
(57,727,o),
(85,694,o),
(119,613,cs),
(377,-10,l),
(412,-10,l),
(683,651,ls),
(706,707,o),
(731,725,o),
(792,732,c),
(792,770,l),
(549,770,l),
(549,732,l),
(608,732,o),
(627,719,o),
(627,683,cs),
(627,661,o),
(620,636,o),
(600,587,cs),
(424,153,l),
(246,603,ls)
);
}
);
width = 784;
}
);
unicode = 86;
},
{
glyphname = W;
kernLeft = KERN_W;
kernRight = KERN_W;
layers = (
{
anchors = (
{
name = topcap;
pos = (615,830);
}
);
layerId = m001;
shapes = (
{
closed = 1;
nodes = (
(687,644,o),
(679,671,o),
(679,691,cs),
(679,721,o),
(693,731,o),
(770,731,c),
(770,770,l),
(464,770,l),
(464,731,l),
(502,731,o),
(527,710,o),
(563,633,c),
(552,597,o),
(532,552,o),
(514,500,cs),
(391,154,l),
(239,617,ls),
(229,647,o),
(223,670,o),
(223,687,cs),
(223,721,o),
(247,731,o),
(315,731,c),
(315,770,l),
(-11,770,l),
(-11,731,l),
(70,731,o),
(94,693,o),
(141,564,cs),
(349,-10,l),
(384,-10,l),
(597,559,l),
(789,-10,l),
(824,-10,l),
(1075,651,ls),
(1096,708,o),
(1123,732,o),
(1184,732,c),
(1184,770,l),
(941,770,l),
(941,732,l),
(996,732,o),
(1016,721,o),
(1016,687,cs),
(1016,664,o),
(1009,637,o),
(990,585,cs),
(834,151,l),
(700,600,ls)
);
}
);
width = 1176;
}
);
unicode = 87;
},
{
glyphname = X;
layers = (
{
layerId = m001;
shapes = (
{
closed = 1;
nodes = (
(624,626,ls),
(697,720,o),
(715,732,o),
(780,732,c),
(780,770,l),
(505,770,l),
(505,732,l),
(561,732,o),
(580,721,o),
(580,688,cs),
(580,661,o),
(567,636,o),
(530,589,cs),
(432,465,l),
(323,627,ls),
(304,655,o),
(295,676,o),
(295,693,cs),
(295,720,o),
(316,732,o),
(360,732,c),
(360,770,l),
(28,770,l),
(28,732,l),
(85,732,o),
(125,712,o),
(158,666,cs),
(361,389,l),
(165,139,ls),
(103,61,o),
(66,38,o),
(2,38,c),
(2,0,l),
(280,0,l),
(280,38,l),
(218,38,o),
(199,44,o),
(199,64,cs),
(199,89,o),
(225,129,o),
(308,234,cs),
(394,342,l),
(508,172,ls),
(553,104,o),
(559,89,o),
(559,70,cs),
(559,50,o),
(540,38,o),
(481,38,c),
(481,0,l),
(822,0,l),
(822,38,l),
(772,38,o),
(729,63,o),
(695,109,cs),
(465,421,l)
);
}
);
width = 818;
}
);
unicode = 88;
},
{
glyphname = Y;
kernLeft = KERN_Y;
kernRight = KERN_Y;
layers = (
{
anchors = (
{
name = topcap;
pos = (408,830);
}
);
layerId = m001;
shapes = (
{
closed = 1;
nodes = (
(73,715,o),
(50,732,o),
(-5,732,c),
(-5,770,l),
(310,770,l),
(310,732,l),
(244,732,o),
(219,723,o),
(219,698,cs),
(219,685,o),
(226,665,o),
(242,638,cs),
(397,373,l),
(401,373,l),
(514,563,ls),
(556,634,o),
(573,673,o),
(573,698,cs),
(573,723,o),
(556,732,o),
(508,732,c),
(508,770,l),
(737,770,l),
(737,732,l),
(681,732,o),
(655,706,o),
(573,568,cs),
(419,308,l),
(419,189,ls),
(419,59,o),
(432,38,o),
(528,38,c),
(528,0,l),
(204,0,l),
(204,38,l),
(299,38,o),
(314,60,o),
(314,182,cs),
(314,304,l),
(114,646,ls)
);
}
);
width = 733;
}
);
unicode = 89;
},
{
glyphname = Z;
kernLeft = KERN_Z_2ND;
kernRight = KERN_Z_1ST;
layers = (
{
anchors = (
{
name = bottom;
pos = (387,0);
},
{
name = topcap;
pos = (391,830);
}
);
layerId = m001;
shapes = (
{
closed = 1;
nodes = (
(679,235,l),
(655,79,o),
(626,46,o),
(489,46,cs),
(179,46,l),
(700,766,l),
(700,770,l),
(91,770,l),
(76,586,l),
(113,586,l),
(131,690,o),
(174,728,o),
(268,728,cs),
(542,728,l),
(16,4,l),
(16,0,l),
(710,0,l),
(722,235,l)
);
}
);
width = 770;
}
);
unicode = 90;
},
{
glyphname = a;
kernLeft = KERN_a_2ND;
kernRight = KERN_a_1ST;
layers = (
{
anchors = (
{
name = bottom;
pos = (446,0);
},
{
name = top;
pos = (265,651);
}
);
layerId = m001;
shapes = (
{
closed = 1;
nodes = (
(349,126,o),
(293,51,o),
(224,51,cs),
(176,51,o),
(144,82,o),
(144,126,cs),
(144,185,o),
(196,238,o),
(349,296,c),
(349,217,ls)
);
},
{
closed = 1;
nodes = (
(84,224,o),
(43,173,o),
(43,109,cs),
(43,38,o),
(95,-9,o),
(178,-9,cs),
(252,-9,o),
(317,32,o),
(352,97,c),
(357,97,l),
(357,29,o),
(386,-10,o),
(444,-10,cs),
(491,-10,o),
(539,13,o),
(555,44,c),
(541,68,l),
(529,48,o),
(510,46,o),
(492,46,cs),
(462,46,o),
(447,83,o),
(447,160,cs),
(447,384,ls),
(447,498,o),
(397,540,o),
(263,540,cs),
(138,540,o),
(67,503,o),
(67,439,cs),
(67,407,o),
(85,389,o),
(117,389,cs),
(143,389,o),
(154,399,o),
(169,437,c),
(186,489,o),
(199,502,o),
(245,502,cs),
(316,502,o),
(349,463,o),
(349,380,cs),
(349,339,l),
(205,276,ls)
);
}
);
width = 554;
}
);
unicode = 97;
},
{
glyphname = aringacute;
kernLeft = KERN_a_2ND;
kernRight = KERN_a_1ST;
layers = (
{
layerId = m001;
shapes = (
{
closed = 1;
nodes = (
(183,731,o),
(184,724,o),
(185,717,c),
(125,661,l),
(179,661,l),
(211,676,l),
(225,665,o),
(242,659,o),
(262,659,cs),
(308,659,o),
(342,694,o),
(342,738,cs),
(342,743,o),
(341,749,o),
(340,754,c),
(367,769,o),
(383,786,o),
(383,804,cs),
(383,820,o),
(371,830,o),
(354,830,cs),
(338,830,o),
(324,824,o),
(307,807,c),
(295,815,o),
(279,820,o),
(262,820,cs),
(217,820,o),
(183,786,o),
(183,738,cs)
);
},
{
closed = 1;
nodes = (
(220,763,o),
(237,780,o),
(262,780,cs),
(287,780,o),
(304,763,o),
(304,738,cs),
(304,714,o),
(287,697,o),
(262,697,cs),
(237,697,o),
(220,714,o),
(220,738,cs)
);
},
{
ref = a;
}
);
width = 554;
}
);
unicode = 507;
},
{
glyphname = ae;
kernLeft = KERN_a_2ND;
kernRight = KERN_e_1ST;
layers = (
{
anchors = (
{
name = top;
pos = (431,651);
}
);
layerId = m001;
shapes = (
{
closed = 1;
nodes = (
(722,67,o),
(674,42,o),
(622,42,cs),
(523,42,o),
(462,131,o),
(462,273,cs),
(462,293,o),
(463,308,o),
(466,317,c),
(775,317,ls),
(799,317,o),
(806,324,o),
(806,339,cs),
(806,464,o),
(731,540,o),
(606,540,cs),
(535,540,o),
(474,515,o),
(430,471,c),
(405,519,o),
(355,540,o),
(264,540,cs),
(139,540,o),
(67,503,o),
(67,439,cs),
(67,407,o),
(85,389,o),
(118,389,cs),
(143,389,o),
(155,399,o),
(169,437,cs),
(188,488,o),
(200,502,o),
(243,502,cs),
(316,502,o),
(349,464,o),
(349,380,cs),
(349,329,l),
(205,276,ls),
(95,235,o),
(43,182,o),
(43,109,cs),
(43,36,o),
(96,-9,o),
(182,-9,cs),
(271,-9,o),
(343,37,o),
(380,118,c),
(420,38,o),
(496,-10,o),
(594,-10,cs),
(675,-10,o),
(743,24,o),
(802,93,c),
(771,121,l)
);
},
{
closed = 1;
nodes = (
(349,117,o),
(292,51,o),
(224,51,cs),
(177,51,o),
(144,82,o),
(144,126,cs),
(144,186,o),
(205,233,o),
(349,286,c),
(349,197,ls)
);
},
{
closed = 1;
nodes = (
(489,451,o),
(526,492,o),
(590,492,cs),
(654,492,o),
(697,451,o),
(697,390,cs),
(697,366,o),
(690,363,o),
(637,363,cs),
(473,363,l)
);
}
);
width = 852;
}
);
unicode = 230;
},
{
glyphname = b;
kernLeft = KERN_b_2ND;
kernRight = KERN_b_1ST;
layers = (
{
layerId = m001;
shapes = (
{
closed = 1;
nodes = (
(189,350,o),
(197,391,o),
(211,419,cs),
(234,465,o),
(279,493,o),
(333,493,cs),
(427,493,o),
(493,398,o),
(493,262,cs),
(493,127,o),
(430,37,o),
(337,37,cs),
(251,37,o),
(189,109,o),
(189,209,cs),
(189,298,ls)
);
},
{
closed = 1;
nodes = (
(-1,790,l),
(-1,765,l),
(62,756,o),
(69,752,o),
(78,733,cs),
(86,716,o),
(91,671,o),
(91,604,cs),
(91,0,l),
(113,0,l),
(160,67,l),
(202,19,o),
(273,-11,o),
(348,-11,cs),
(494,-11,o),
(606,108,o),
(606,265,cs),
(606,420,o),
(495,540,o),
(351,540,cs),
(284,540,o),
(234,515,o),
(191,459,c),
(187,459,l),
(187,830,l)
);
}
);
width = 654;
}
);
unicode = 98;
},
{
glyphname = c;
kernLeft = KERN_e_2ND;
kernRight = KERN_c_1ST;
layers = (
{
anchors = (
{
name = bottom;
pos = (291,0);
},
{
name = top;
pos = (316,651);
}
);
layerId = m001;
shapes = (
{
closed = 1;
nodes = (
(426,63,o),
(377,42,o),
(322,42,cs),
(219,42,o),
(163,124,o),
(163,276,cs),
(163,418,o),
(213,493,o),
(307,493,cs),
(346,493,o),
(367,482,o),
(393,451,cs),
(418,417,o),
(430,410,o),
(454,410,cs),
(484,410,o),
(503,426,o),
(503,452,cs),
(503,504,o),
(430,540,o),
(327,540,cs),
(161,540,o),
(49,431,o),
(49,261,cs),
(49,99,o),
(148,-10,o),
(290,-10,cs),
(378,-10,o),
(458,25,o),
(506,83,c),
(476,112,l)
);
}
);
width = 536;
}
);
unicode = 99;
},
{
glyphname = d;
kernLeft = KERN_d_2ND;
kernRight = KERN_d_1ST;
layers = (
{
anchors = (
{
name = bottom;
pos = (308,0);
}
);
layerId = m001;
shapes = (
{
closed = 1;
nodes = (
(650,1,l),
(650,35,l),
(588,35,o),
(577,44,o),
(569,76,cs),
(563,101,o),
(562,161,o),
(562,253,cs),
(562,830,l),
(357,792,l),
(357,762,l),
(426,762,o),
(453,751,o),
(460,722,cs),
(464,704,o),
(466,650,o),
(466,575,cs),
(466,473,l),
(420,519,o),
(371,540,o),
(308,540,cs),
(158,540,o),
(48,424,o),
(48,266,cs),
(48,105,o),
(157,-10,o),
(308,-10,cs),
(381,-10,o),
(432,17,o),
(480,84,c),
(484,84,l),
(484,-10,l)
);
},
{
closed = 1;
nodes = (
(464,167,o),
(457,130,o),
(438,101,cs),
(412,61,o),
(355,38,o),
(308,38,cs),
(212,38,o),
(161,130,o),
(161,271,cs),
(161,406,o),
(213,492,o),
(308,492,cs),
(354,492,o),
(407,471,o),
(437,431,cs),
(458,404,o),
(464,375,o),
(464,305,cs),
(464,239,ls)
);
}
);
width = 675;
}
);
unicode = 100;
},
{
glyphname = dcroat;
kernLeft = KERN_d_2ND;
kernRight = KERN_d_1ST;
layers = (
{
layerId = m001;
shapes = (
{
closed = 1;
nodes = (
(647,651,l),
(368,651,l),
(368,598,l),
(647,598,l)
);
},
{
ref = d;
}
);
width = 675;
}
);
unicode = 273;
},
{
glyphname = eth;
kernLeft = KERN_o_2ND;
layers = (
{
layerId = m001;
shapes = (
{
closed = 1;
nodes = (
(175,373,o),
(225,449,o),
(310,449,cs),
(395,449,o),
(448,371,o),
(448,244,cs),
(448,115,o),
(394,35,o),
(309,35,cs),
(225,35,o),
(175,112,o),
(175,244,cs)
);
},
{
closed = 1;
nodes = (
(228,722,o),
(267,703,o),
(297,680,c),
(176,609,l),
(200,577,l),
(330,652,l),
(388,597,o),
(429,520,o),
(456,414,c),
(453,412,l),
(425,468,o),
(371,498,o),
(300,498,cs),
(157,498,o),
(50,385,o),
(50,244,cs),
(50,98,o),
(163,-10,o),
(308,-10,cs),
(462,-10,o),
(575,122,o),
(575,308,cs),
(575,459,o),
(507,605,o),
(390,687,c),
(507,755,l),
(482,787,l),
(352,712,l),
(305,740,o),
(241,762,o),
(179,780,c),
(160,746,l)
);
}
);
width = 640;
}
);
unicode = 240;
},
{
glyphname = e;
kernLeft = KERN_e_2ND;
kernRight = KERN_e_1ST;
layers = (
{
anchors = (
{
name = bottom;
pos = (312,0);
},
{
name = top;
pos = (313,651);
}
);
layerId = m001;
shapes = (
{
closed = 1;
nodes = (
(441,66,o),
(394,42,o),
(339,42,cs),
(232,42,o),
(162,133,o),
(162,272,cs),
(162,290,o),
(163,306,o),
(166,317,c),
(495,317,ls),
(522,317,o),
(526,319,o),
(526,337,cs),
(526,467,o),
(451,540,o),
(323,540,cs),
(162,540,o),
(49,423,o),
(49,259,cs),
(49,99,o),
(155,-10,o),
(311,-10,cs),
(396,-10,o),
(464,23,o),
(522,93,c),
(491,121,l)
);
},
{
closed = 1;
nodes = (
(190,448,o),
(236,492,o),
(307,492,cs),
(374,492,o),
(417,452,o),
(417,391,cs),
(417,367,o),
(411,363,o),
(357,363,cs),
(173,363,l)
);
}
);
width = 573;
}
);
unicode = 101;
},
{
glyphname = schwa;
kernRight = KERN_o_1ST;
layers = (
{
layerId = m001;
shapes = (
{
closed = 1;
nodes = (
(133,464,o),
(180,488,o),
(235,488,cs),
(342,488,o),
(412,397,o),
(412,258,cs),
(412,240,o),
(411,224,o),
(408,213,c),
(79,213,ls),
(52,213,o),
(48,211,o),
(48,193,cs),
(48,63,o),
(123,-10,o),
(251,-10,cs),
(412,-10,o),
(525,107,o),
(525,271,cs),
(525,431,o),
(419,540,o),
(263,540,cs),
(178,540,o),
(110,507,o),
(52,437,c),
(83,409,l)
);
},
{
closed = 1;
nodes = (
(384,82,o),
(338,38,o),
(267,38,cs),
(200,38,o),
(157,78,o),
(157,139,cs),
(157,163,o),
(163,167,o),
(217,167,c),
(401,167,l)
);
}
);
width = 574;
}
);
unicode = 601;
},
{
glyphname = f;
kernLeft = KERN_f_2ND;
kernRight = KERN_f_1ST;
layers = (
{
layerId = m001;
shapes = (
{
closed = 1;
nodes = (
(135,467,l),
(135,153,ls),
(135,52,o),
(125,39,o),
(49,35,c),
(49,0,l),
(333,0,l),
(333,35,l),
(249,37,o),
(229,62,o),
(229,161,cs),
(229,467,l),
(390,467,l),
(390,514,l),
(229,514,l),
(229,592,ls),
(229,659,o),
(233,695,o),
(245,721,cs),
(262,761,o),
(291,782,o),
(331,782,cs),
(356,782,o),
(370,776,o),
(403,748,cs),
(432,724,o),
(448,715,o),
(464,715,cs),
(489,715,o),
(508,735,o),
(508,762,cs),
(508,802,o),
(450,830,o),
(368,830,cs),
(219,830,o),
(135,739,o),
(135,586,cs),
(135,514,l),
(22,514,l),
(22,467,l)
);
}
);
width = 412;
}
);
unicode = 102;
},
{
glyphname = g;
kernLeft = KERN_g;
kernRight = KERN_g;
layers = (
{
layerId = m001;
shapes = (
{
closed = 1;
nodes = (
(217,215,o),
(179,273,o),
(179,361,cs),
(179,448,o),
(216,503,o),
(273,503,cs),
(330,503,o),
(363,450,o),
(363,360,cs),
(363,269,o),
(330,215,o),
(274,215,cs)
);
},
{
closed = 1;
nodes = (
(173,101,o),
(148,110,o),
(148,131,cs),
(148,159,o),
(176,167,o),
(257,173,cs),
(397,183,o),
(469,251,o),
(469,363,cs),
(469,402,o),
(462,430,o),
(445,456,c),
(461,467,o),
(478,473,o),
(494,473,cs),
(527,473,o),
(532,442,o),
(569,442,cs),
(592,442,o),
(609,457,o),
(609,479,cs),
(609,516,o),
(578,540,o),
(530,540,cs),
(500,540,o),
(466,524,o),
(421,487,c),
(384,521,o),
(329,540,o),
(271,540,cs),
(157,540,o),
(74,465,o),
(74,364,cs),
(74,295,o),
(118,229,o),
(177,205,c),
(177,201,l),
(118,192,o),
(75,152,o),
(75,105,cs),
(75,50,o),
(115,17,o),
(189,9,cs),
(225,5,o),
(305,-4,o),
(368,-13,cs),
(417,-20,o),
(459,-58,o),
(459,-111,cs),
(459,-181,o),
(402,-216,o),
(288,-216,cs),
(182,-216,o),
(121,-182,o),
(121,-124,cs),
(121,-84,o),
(146,-49,o),
(182,-41,c),
(164,-27,o),
(144,-20,o),
(121,-20,cs),
(72,-20,o),
(32,-64,o),
(32,-120,cs),
(32,-203,o),
(135,-260,o),
(284,-260,cs),
(451,-260,o),
(543,-199,o),
(543,-88,cs),
(543,1,o),
(480,65,o),
(384,79,cs),
(323,88,o),
(283,93,o),
(219,98,cs)
);
}
);
width = 599;
}
);
unicode = 103;
},
{
glyphname = gcommaaccent;
kernLeft = KERN_g;
kernRight = KERN_g;
layers = (
{
layerId = m001;
shapes = (
{
closed = 1;
nodes = (
(253,810,o),
(227,767,o),
(227,724,cs),
(227,680,o),
(250,651,o),
(290,651,cs),
(325,651,o),
(349,673,o),
(349,704,cs),
(349,732,o),
(331,751,o),
(305,751,cs),
(294,751,o),
(285,748,o),
(279,743,c),
(279,772,o),
(299,796,o),
(344,821,c),
(322,847,l)
);
},
{
ref = g;
}
);
width = 599;
}
);
unicode = 291;
},
{
glyphname = h;
kernLeft = KERN_h_2ND;
kernRight = KERN_n_1ST;
layers = (
{
anchors = (
{
name = bottom;
pos = (345,0);
},
{
name = top;
pos = (386,651);
}
);
layerId = m001;
shapes = (
{
closed = 1;
nodes = (
(208,348,o),
(211,367,o),
(225,395,cs),
(254,451,o),
(309,485,o),
(371,485,cs),
(453,485,o),
(484,428,o),
(484,278,cs),
(484,152,ls),
(484,51,o),
(476,39,o),
(400,35,c),
(400,0,l),
(665,0,l),
(665,35,l),
(589,40,o),
(583,50,o),
(583,159,cs),
(583,319,ls),
(583,404,o),
(573,451,o),
(550,481,cs),
(522,517,o),
(467,540,o),
(406,540,cs),
(333,540,o),
(251,502,o),
(210,449,c),
(206,449,l),
(206,830,l),
(22,792,l),
(22,758,l),
(82,758,o),
(97,750,o),
(103,718,cs),
(108,694,o),
(110,649,o),
(110,571,cs),
(110,152,ls),
(110,51,o),
(101,40,o),
(24,35,c),
(24,0,l),
(290,0,l),
(290,35,l),
(214,40,o),
(208,49,o),
(208,159,cs),
(208,287,ls)
);
}
);
width = 688;
}
);
unicode = 104;
},
{
glyphname = hbar;
kernLeft = KERN_h_2ND;
kernRight = KERN_n_1ST;
layers = (
{
layerId = m001;
shapes = (
{
closed = 1;
nodes = (
(302,651,l),
(23,651,l),
(23,598,l),
(302,598,l)
);
},
{
ref = h;
}
);
width = 688;
}
);
unicode = 295;
},
{
glyphname = i;
kernLeft = KERN_i_2ND;
kernRight = KERN_i_1ST;
layers = (
{
anchors = (
{
name = bottom;
pos = (179,0);
},
{
name = top;
pos = (176,651);
}
);
layerId = m001;
shapes = (
{
closed = 1;
nodes = (
(32,502,l),
(32,467,l),
(98,467,o),
(117,458,o),
(123,427,cs),
(128,409,o),
(130,357,o),
(130,280,cs),
(130,152,ls),
(130,58,o),
(115,39,o),
(34,35,c),
(34,0,l),
(321,0,l),
(321,35,l),
(242,38,o),
(228,56,o),
(228,159,cs),
(228,540,l)
);
},
{
closed = 1;
nodes = (
(113,708,o),
(140,681,o),
(175,681,cs),
(210,681,o),
(237,708,o),
(237,743,cs),
(237,778,o),
(210,805,o),
(175,805,cs),
(140,805,o),
(113,778,o),
(113,743,cs)
);
}
);
width = 341;
}
);
unicode = 105;
},
{
glyphname = idotless;
kernLeft = KERN_i_2ND;
kernRight = KERN_i_1ST;
layers = (
{
anchors = (
{
name = top;
pos = (180,651);
}
);
layerId = m001;
shapes = (
{
closed = 1;
nodes = (
(32,502,l),
(32,465,l),
(98,465,o),
(117,456,o),
(123,424,cs),
(128,406,o),
(130,355,o),
(130,278,cs),
(130,154,ls),
(130,60,o),
(115,41,o),
(34,37,c),
(34,0,l),
(321,0,l),
(321,37,l),
(242,40,o),
(228,58,o),
(228,162,cs),
(228,540,l)
);
}
);
width = 341;
}
);
unicode = 305;
},
{
glyphname = j;
kernLeft = KERN_j_2ND;
kernRight = KERN_j_1ST;
layers = (
{
anchors = (
{
name = top;
pos = (162,651);
}
);
layerId = m001;
shapes = (
{
closed = 1;
nodes = (
(17,502,l),
(17,467,l),
(83,467,o),
(102,458,o),
(108,427,cs),
(113,409,o),
(115,357,o),
(115,280,cs),
(115,-68,ls),
(115,-179,o),
(93,-217,o),
(29,-217,cs),
(-4,-217,o),
(-15,-207,o),
(-34,-167,cs),
(-54,-127,o),
(-62,-120,o),
(-86,-120,cs),
(-118,-120,o),
(-137,-137,o),
(-137,-167,cs),
(-137,-222,o),
(-77,-260,o),
(8,-260,cs),
(140,-260,o),
(213,-168,o),
(213,-2,cs),
(213,540,l)
);
},
{
closed = 1;
nodes = (
(100,708,o),
(127,681,o),
(162,681,cs),
(197,681,o),
(224,708,o),
(224,743,cs),
(224,778,o),
(197,805,o),
(162,805,cs),
(127,805,o),
(100,778,o),
(100,743,cs)
);
}
);
width = 304;
}
);
unicode = 106;
},
{
glyphname = jdotless;
kernLeft = KERN_j_2ND;
kernRight = KERN_j_1ST;
layers = (
{
anchors = (
{
name = top;
pos = (162,651);
}
);
layerId = m001;
shapes = (
{
closed = 1;
nodes = (
(17,502,l),
(17,467,l),
(83,467,o),
(102,458,o),
(108,427,cs),
(113,409,o),
(115,357,o),
(115,280,cs),
(115,-68,ls),
(115,-179,o),
(93,-217,o),
(29,-217,cs),
(-4,-217,o),
(-15,-207,o),
(-34,-167,cs),
(-54,-127,o),
(-62,-120,o),
(-86,-120,cs),
(-118,-120,o),
(-137,-137,o),
(-137,-167,cs),
(-137,-222,o),
(-77,-260,o),
(8,-260,cs),
(140,-260,o),
(213,-168,o),
(213,-2,cs),
(213,540,l)
);
}
);
width = 304;
}
);
unicode = 567;
},
{
glyphname = k;
kernLeft = KERN_h_2ND;
kernRight = KERN_k_1ST;
layers = (
{
anchors = (
{
name = bottom;
pos = (326,0);
}
);
layerId = m001;
shapes = (
{
closed = 1;
nodes = (
(611,0,l),
(611,35,l),
(560,35,o),
(543,46,o),
(505,90,cs),
(307,314,l),
(451,442,ls),
(500,485,o),
(519,495,o),
(569,495,c),
(569,530,l),
(309,530,l),
(309,495,l),
(361,495,o),
(390,485,o),
(390,471,cs),
(390,457,o),
(361,431,o),
(301,372,cs),
(208,281,l),
(208,830,l),
(15,792,l),
(15,758,l),
(62,758,o),
(89,758,o),
(101,739,cs),
(113,721,o),
(113,672,o),
(113,571,cs),
(113,152,ls),
(113,57,o),
(97,38,o),
(17,35,c),
(17,0,l),
(301,0,l),
(301,35,l),
(221,38,o),
(208,56,o),
(208,159,cs),
(208,218,l),
(245,253,l),
(351,125,ls),
(383,86,o),
(405,56,o),
(406,46,cs),
(406,39,o),
(392,35,o),
(348,35,c),
(348,0,l)
);
}
);
width = 616;
}
);
unicode = 107;
},
{
glyphname = kgreenlandic;
layers = (
{
layerId = m001;
shapes = (
{
closed = 1;
nodes = (
(628,0,l),
(628,35,l),
(584,35,o),
(561,46,o),
(522,90,cs),
(324,314,l),
(468,442,ls),
(518,486,o),
(537,495,o),
(586,495,c),
(586,530,l),
(326,530,l),
(326,495,l),
(384,495,o),
(404,490,o),
(404,475,cs),
(404,460,o),
(383,435,o),
(318,372,cs),
(225,281,l),
(225,550,l),
(32,512,l),
(32,478,l),
(120,478,o),
(130,466,o),
(130,360,cs),
(130,152,ls),
(130,56,o),
(113,35,o),
(34,35,c),
(34,0,l),
(318,0,l),
(318,35,l),
(240,35,o),
(225,55,o),
(225,159,cs),
(225,218,l),
(262,253,l),
(368,125,ls),
(407,78,o),
(417,62,o),
(417,50,cs),
(417,38,o),
(407,35,o),
(365,35,c),
(365,0,l)
);
}
);
width = 633;
}
);
unicode = 312;
},
{
glyphname = l;
kernLeft = KERN_l_2ND;
kernRight = KERN_l_1ST;
layers = (
{
anchors = (
{
name = bottom;
pos = (164,0);
},
{
name = topcap;
pos = (163,830);
}
);
layerId = m001;
shapes = (
{
closed = 1;
nodes = (
(20,793,l),
(20,759,l),
(84,759,o),
(103,751,o),
(110,720,cs),
(114,703,o),
(116,652,o),
(116,580,cs),
(116,149,ls),
(116,57,o),
(101,39,o),
(22,35,c),
(22,0,l),
(298,0,l),
(298,35,l),
(221,38,o),
(209,55,o),
(209,156,cs),
(209,830,l)
);
}
);
width = 325;
}
);
unicode = 108;
},
{
glyphname = lacute;
kernLeft = KERN_l_2ND;
kernRight = KERN_l_1ST;
layers = (
{
layerId = m001;
shapes = (
{
closed = 1;
nodes = (
(20,773,l),
(20,739,l),
(84,739,o),
(103,731,o),
(110,700,cs),
(114,683,o),
(116,632,o),
(116,560,cs),
(116,149,ls),
(116,57,o),
(101,39,o),
(22,35,c),
(22,0,l),
(298,0,l),
(298,35,l),
(221,38,o),
(209,55,o),
(209,156,cs),
(209,810,l)
);
},
{
pos = (43,0);
ref = acute.cap;
}
);
width = 325;
}
);
unicode = 314;
},
{
glyphname = lslash;
kernLeft = KERN_l_2ND;
kernRight = KERN_l_1ST;
layers = (
{
layerId = m001;
shapes = (
{
closed = 1;
nodes = (
(289,514,l),
(37,357,l),
(37,292,l),
(289,449,l)
);
},
{
pos = (1,0);
ref = l;
}
);
width = 327;
}
);
unicode = 322;
},
{
glyphname = m;
kernLeft = KERN_n_2ND;
layers = (
{
layerId = m001;
shapes = (
{
closed = 1;
nodes = (
(221,350,o),
(224,368,o),
(238,395,cs),
(265,449,o),
(323,485,o),
(382,485,cs),
(468,485,o),
(497,433,o),
(497,278,cs),
(497,152,ls),
(497,51,o),
(489,40,o),
(413,35,c),
(413,0,l),
(679,0,l),
(679,35,l),
(601,40,o),
(595,50,o),
(595,160,cs),
(595,287,ls),
(595,350,o),
(598,368,o),
(612,395,cs),
(641,449,o),
(697,485,o),
(755,485,cs),
(841,485,o),
(872,431,o),
(872,278,cs),
(872,152,ls),
(872,52,o),
(863,39,o),
(787,35,c),
(787,0,l),
(1053,0,l),
(1053,35,l),
(977,40,o),
(970,50,o),
(970,160,cs),
(970,319,ls),
(970,406,o),
(961,451,o),
(937,482,cs),
(910,518,o),
(855,540,o),
(793,540,cs),
(714,540,o),
(639,503,o),
(590,441,c),
(586,441,l),
(564,504,o),
(504,540,o),
(420,540,cs),
(340,540,o),
(276,508,o),
(216,440,c),
(211,440,l),
(198,540,l),
(35,502,l),
(35,467,l),
(96,467,o),
(109,461,o),
(116,427,cs),
(121,409,o),
(123,356,o),
(123,280,cs),
(123,152,ls),
(123,51,o),
(114,40,o),
(37,35,c),
(37,0,l),
(303,0,l),
(303,35,l),
(227,40,o),
(221,49,o),
(221,160,cs),
(221,287,ls)
);
}
);
width = 1073;
}
);
unicode = 109;
},
{
glyphname = n;
kernLeft = KERN_n_2ND;
kernRight = KERN_n_1ST;
layers = (
{
anchors = (
{
name = bottom;
pos = (353,0);
},
{
name = top;
pos = (353,651);
}
);
layerId = m001;
shapes = (
{
closed = 1;
nodes = (
(216,354,o),
(220,371,o),
(234,398,cs),
(262,452,o),
(316,486,o),
(375,486,cs),
(458,486,o),
(489,433,o),
(489,282,cs),
(489,150,ls),
(489,51,o),
(481,38,o),
(406,34,c),
(406,0,l),
(665,0,l),
(665,34,l),
(592,39,o),
(584,49,o),
(584,157,cs),
(584,324,ls),
(584,409,o),
(576,453,o),
(553,484,cs),
(526,518,o),
(472,540,o),
(411,540,cs),
(332,540,o),
(261,503,o),
(211,441,c),
(207,441,l),
(195,540,l),
(35,502,l),
(35,470,l),
(93,470,o),
(107,464,o),
(115,428,cs),
(119,411,o),
(121,361,o),
(121,283,cs),
(121,150,ls),
(121,50,o),
(111,39,o),
(37,34,c),
(37,0,l),
(299,0,l),
(299,34,l),
(222,39,o),
(216,49,o),
(216,157,cs),
(216,291,ls)
);
}
);
width = 689;
}
);
unicode = 110;
},
{
glyphname = eng;
kernLeft = KERN_n_2ND;
layers = (
{
layerId = m001;
shapes = (
{
closed = 1;
nodes = (
(216,354,o),
(220,371,o),
(234,398,cs),
(262,452,o),
(316,486,o),
(375,486,cs),
(458,486,o),
(489,433,o),
(489,282,cs),
(489,-68,ls),
(489,-179,o),
(464,-217,o),
(400,-217,cs),
(367,-217,o),
(356,-207,o),
(337,-167,cs),
(317,-127,o),
(309,-120,o),
(285,-120,cs),
(253,-120,o),
(234,-137,o),
(234,-167,cs),
(234,-222,o),
(294,-260,o),
(379,-260,cs),
(511,-260,o),
(584,-168,o),
(584,-2,cs),
(584,324,ls),
(584,409,o),
(576,453,o),
(553,484,cs),
(526,518,o),
(472,540,o),
(411,540,cs),
(332,540,o),
(261,503,o),
(211,441,c),
(207,441,l),
(195,540,l),
(35,502,l),
(35,470,l),
(93,470,o),
(107,464,o),
(115,428,cs),
(119,411,o),
(121,361,o),
(121,283,cs),
(121,150,ls),
(121,50,o),
(111,39,o),
(37,34,c),
(37,0,l),
(299,0,l),
(299,34,l),
(222,39,o),
(216,49,o),
(216,157,cs),
(216,291,ls)
);
}
);
width = 664;
}
);
unicode = 331;
},
{
glyphname = o;
kernLeft = KERN_o_2ND;
kernRight = KERN_o_1ST;
layers = (
{
anchors = (
{
name = bottom;
pos = (325,0);
},
{
name = top;
pos = (325,651);
}
);
layerId = m001;
shapes = (
{
closed = 1;
nodes = (
(175,540,o),
(48,427,o),
(48,269,cs),
(48,106,o),
(175,-10,o),
(325,-10,cs),
(477,-10,o),
(606,107,o),
(606,269,cs),
(606,426,o),
(477,540,o),
(325,540,cs)
);
},
{
closed = 1;
nodes = (
(426,492,o),
(493,401,o),
(493,268,cs),
(493,131,o),
(427,41,o),
(325,41,cs),
(225,41,o),
(161,130,o),
(161,268,cs),
(161,402,o),
(226,492,o),
(325,492,cs)
);
}
);
width = 654;
}
);
unicode = 111;
},
{
glyphname = oslash;
kernLeft = KERN_o_2ND;
kernRight = KERN_o_1ST;
layers = (
{
layerId = m001;
shapes = (
{
closed = 1;
nodes = (
(174,540,o),
(47,427,o),
(47,269,cs),
(47,183,o),
(82,111,o),
(136,61,c),
(40,-61,l),
(108,-61,l),
(179,29,l),
(222,4,o),
(271,-10,o),
(324,-10,cs),
(476,-10,o),
(605,107,o),
(605,269,cs),
(605,347,o),
(573,414,o),
(522,462,c),
(625,592,l),
(556,592,l),
(479,495,l),
(434,524,o),
(381,540,o),
(324,540,cs)
);
},
{
closed = 1;
nodes = (
(369,492,o),
(408,473,o),
(436,441,c),
(189,128,l),
(170,165,o),
(160,212,o),
(160,268,cs),
(160,402,o),
(225,492,o),
(324,492,cs)
);
},
{
closed = 1;
nodes = (
(492,131,o),
(426,41,o),
(324,41,cs),
(283,41,o),
(248,55,o),
(221,82,c),
(467,393,l),
(483,358,o),
(492,316,o),
(492,268,cs)
);
}
);
width = 651;
}
);
unicode = 248;
},
{
glyphname = oslashacute;
kernLeft = KERN_o_2ND;
kernRight = KERN_o_1ST;
layers = (
{
layerId = m001;
shapes = (
{
closed = 1;
nodes = (
(174,540,o),
(47,427,o),
(47,269,cs),
(47,183,o),
(82,111,o),
(136,61,c),
(40,-61,l),
(108,-61,l),
(179,29,l),
(222,4,o),
(271,-10,o),
(324,-10,cs),
(476,-10,o),
(605,107,o),
(605,269,cs),
(605,347,o),
(573,414,o),
(522,462,c),
(625,592,l),
(556,592,l),
(479,495,l),
(434,524,o),
(381,540,o),
(324,540,cs)
);
},
{
closed = 1;
nodes = (
(369,492,o),
(408,473,o),
(436,441,c),
(189,128,l),
(170,165,o),
(160,212,o),
(160,268,cs),
(160,402,o),
(225,492,o),
(324,492,cs)
);
},
{
closed = 1;
nodes = (
(492,131,o),
(426,41,o),
(324,41,cs),
(283,41,o),
(248,55,o),
(221,82,c),
(467,393,l),
(483,358,o),
(492,316,o),
(492,268,cs)
);
},
{
pos = (253,0);
ref = acute;
}
);
width = 651;
}
);
unicode = 511;
},
{
glyphname = p;
kernRight = KERN_b_1ST;
layers = (
{
layerId = m001;
shapes = (
{
closed = 1;
nodes = (
(18,498,l),
(18,464,l),
(84,464,o),
(103,455,o),
(109,423,cs),
(114,405,o),
(116,354,o),
(116,277,cs),
(116,-97,ls),
(116,-193,o),
(100,-212,o),
(20,-215,c),
(20,-250,l),
(328,-250,l),
(328,-215,l),
(229,-212,o),
(214,-196,o),
(214,-90,cs),
(214,56,l),
(258,9,o),
(307,-10,o),
(368,-10,cs),
(517,-10,o),
(630,101,o),
(630,264,cs),
(630,424,o),
(520,540,o),
(369,540,cs),
(304,540,o),
(256,509,o),
(214,458,c),
(210,458,l),
(210,536,l)
);
},
{
closed = 1;
nodes = (
(266,469,o),
(309,492,o),
(357,492,cs),
(453,492,o),
(517,398,o),
(517,260,cs),
(517,121,o),
(454,39,o),
(363,39,cs),
(317,39,o),
(272,64,o),
(241,106,cs),
(220,133,o),
(214,160,o),
(214,232,cs),
(214,310,ls),
(214,368,o),
(223,402,o),
(240,429,cs)
);
}
);
width = 679;
}
);
unicode = 112;
},
{
glyphname = thorn;
kernLeft = KERN_b_2ND;
kernRight = KERN_b_1ST;
layers = (
{
layerId = m001;
shapes = (
{
closed = 1;
nodes = (
(91,-193,o),
(77,-212,o),
(-3,-215,c),
(-3,-250,l),
(305,-250,l),
(305,-215,l),
(206,-212,o),
(191,-196,o),
(191,-90,cs),
(191,56,l),
(229,13,o),
(284,-11,o),
(348,-11,cs),
(494,-11,o),
(606,108,o),
(606,265,cs),
(606,420,o),
(495,540,o),
(351,540,cs),
(284,540,o),
(234,515,o),
(191,459,c),
(187,459,l),
(187,830,l),
(-1,790,l),
(-1,765,l),
(62,756,o),
(69,752,o),
(78,733,cs),
(86,716,o),
(91,671,o),
(91,604,cs),
(91,-97,ls)
);
},
{
closed = 1;
nodes = (
(189,350,o),
(197,391,o),
(211,419,cs),
(234,465,o),
(279,493,o),
(333,493,cs),
(427,493,o),
(493,398,o),
(493,262,cs),
(493,127,o),
(430,37,o),
(337,37,cs),
(251,37,o),
(189,109,o),
(189,209,cs),
(189,298,ls)
);
}
);
width = 654;
}
);
unicode = 254;
},
{
glyphname = q;
kernLeft = KERN_d_2ND;
layers = (
{
layerId = m001;
shapes = (
{
closed = 1;
nodes = (
(464,180,o),
(456,139,o),
(442,111,cs),
(419,65,o),
(372,38,o),
(318,38,cs),
(222,38,o),
(161,126,o),
(161,265,cs),
(161,402,o),
(222,491,o),
(317,491,cs),
(401,491,o),
(464,419,o),
(464,320,c),
(464,232,l)
);
},
{
closed = 1;
nodes = (
(467,-188,o),
(445,-213,o),
(360,-215,c),
(360,-250,l),
(665,-250,l),
(665,-215,l),
(570,-212,o),
(562,-201,o),
(562,-90,cs),
(562,528,l),
(537,528,l),
(493,459,l),
(449,508,o),
(377,540,o),
(306,540,cs),
(163,540,o),
(48,415,o),
(48,258,cs),
(48,100,o),
(152,-10,o),
(300,-10,cs),
(370,-10,o),
(416,14,o),
(463,72,c),
(467,72,l),
(467,-97,ls)
);
}
);
width = 653;
}
);
unicode = 113;
},
{
glyphname = r;
kernLeft = KERN_n_2ND;
kernRight = KERN_r_1ST;
layers = (
{
anchors = (
{
name = bottom;
pos = (175,0);
},
{
name = top;
pos = (270,651);
}
);
layerId = m001;
shapes = (
{
closed = 1;
nodes = (
(222,246,o),
(228,297,o),
(239,335,cs),
(259,405,o),
(299,457,o),
(335,457,cs),
(359,457,o),
(372,432,o),
(414,432,cs),
(451,432,o),
(472,451,o),
(472,483,cs),
(472,518,o),
(446,540,o),
(403,540,cs),
(335,540,o),
(265,485,o),
(229,405,c),
(225,405,l),
(211,529,l),
(36,491,l),
(36,456,l),
(122,456,o),
(124,451,o),
(124,269,cs),
(124,152,ls),
(124,51,o),
(115,39,o),
(38,35,c),
(38,0,l),
(304,0,l),
(304,35,l),
(228,40,o),
(222,49,o),
(222,159,cs),
(222,193,ls)
);
}
);
width = 477;
}
);
unicode = 114;
},
{
glyphname = s;
kernLeft = KERN_s_2ND;
kernRight = KERN_s_1ST;
layers = (
{
anchors = (
{
name = bottom;
pos = (240,1);
},
{
name = top;
pos = (223,651);
}
);
layerId = m001;
shapes = (
{
closed = 1;
nodes = (
(142,6,o),
(188,-10,o),
(240,-10,cs),
(339,-10,o),
(407,48,o),
(407,142,cs),
(407,218,o),
(362,252,o),
(247,324,cs),
(179,366,o),
(149,387,o),
(149,431,cs),
(149,474,o),
(179,499,o),
(224,499,cs),
(275,499,o),
(307,467,o),
(336,386,c),
(362,386,l),
(362,530,l),
(343,530,l),
(323,509,l),
(294,528,o),
(252,540,o),
(216,540,cs),
(132,540,o),
(67,477,o),
(67,386,cs),
(67,311,o),
(112,279,o),
(202,222,cs),
(300,161,o),
(318,149,o),
(318,110,cs),
(318,57,o),
(284,31,o),
(231,31,cs),
(161,31,o),
(115,77,o),
(89,172,c),
(64,172,l),
(64,0,l),
(86,0,l),
(106,35,l)
);
}
);
width = 454;
}
);
unicode = 115;
},
{
glyphname = germandbls;
kernLeft = KERN_h_2ND;
layers = (
{
layerId = m001;
shapes = (
{
closed = 1;
nodes = (
(195,830,o),
(110,737,o),
(110,586,cs),
(110,153,ls),
(110,52,o),
(99,38,o),
(24,38,c),
(24,0,l),
(268,0,l),
(268,38,l),
(216,38,o),
(204,62,o),
(204,161,cs),
(204,592,ls),
(204,660,o),
(208,693,o),
(220,719,cs),
(238,759,o),
(275,780,o),
(324,780,cs),
(393,780,o),
(429,730,o),
(429,633,cs),
(429,533,o),
(390,487,o),
(305,487,c),
(305,436,l),
(432,436,o),
(490,340,o),
(490,215,cs),
(490,113,o),
(452,36,o),
(407,36,cs),
(381,36,o),
(375,62,o),
(366,84,cs),
(357,107,o),
(342,118,o),
(325,118,cs),
(305,118,o),
(290,100,o),
(290,70,cs),
(290,24,o),
(331,-10,o),
(400,-10,cs),
(516,-10,o),
(610,87,o),
(610,218,cs),
(610,359,o),
(522,462,o),
(405,462,c),
(405,467,l),
(509,489,o),
(549,553,o),
(549,644,cs),
(549,754,o),
(461,830,o),
(338,830,cs)
);
}
);
width = 658;
}
);
unicode = 223;
},
{
glyphname = t;
kernLeft = KERN_t_2ND;
kernRight = KERN_t_1ST;
layers = (
{
anchors = (
{
name = bottom;
pos = (235,0);
}
);
layerId = m001;
shapes = (
{
closed = 1;
nodes = (
(100,112,ls),
(100,34,o),
(147,-10,o),
(235,-10,cs),
(303,-10,o),
(350,17,o),
(369,66,c),
(344,85,l),
(322,52,o),
(300,39,o),
(267,39,cs),
(214,39,o),
(198,69,o),
(198,163,cs),
(198,467,l),
(332,467,l),
(332,514,l),
(198,514,l),
(198,640,l),
(169,640,l),
(148,583,o),
(111,546,o),
(40,504,c),
(40,467,l),
(100,467,l)
);
}
);
width = 378;
}
);
unicode = 116;
},
{
glyphname = tbar;
kernLeft = KERN_t_2ND;
kernRight = KERN_t_1ST;
layers = (
{
layerId = m001;
shapes = (
{
closed = 1;
nodes = (
(322,381,l),
(43,381,l),
(43,328,l),
(322,328,l)
);
},
{
pos = (3,0);
ref = t;
}
);
width = 381;
}
);
unicode = 359;
},
{
glyphname = u;
kernLeft = KERN_u;
kernRight = KERN_u;
layers = (
{
anchors = (
{
name = bottom;
pos = (291,0);
},
{
name = top;
pos = (313,651);
}
);
layerId = m001;
shapes = (
{
closed = 1;
nodes = (
(463,215,o),
(459,196,o),
(446,165,cs),
(413,88,o),
(366,50,o),
(309,50,cs),
(235,50,o),
(202,113,o),
(202,257,cs),
(202,530,l),
(21,530,l),
(21,495,l),
(98,488,o),
(104,479,o),
(104,370,cs),
(104,211,ls),
(104,129,o),
(114,78,o),
(136,49,cs),
(163,13,o),
(221,-10,o),
(277,-10,cs),
(349,-10,o),
(417,27,o),
(468,109,c),
(472,109,l),
(483,-11,l),
(648,1,l),
(648,36,l),
(587,36,o),
(573,42,o),
(567,76,cs),
(563,100,o),
(561,147,o),
(561,223,cs),
(561,530,l),
(380,530,l),
(380,495,l),
(457,487,o),
(463,479,o),
(463,370,cs),
(463,272,ls)
);
}
);
width = 670;
}
);
unicode = 117;
},
{
glyphname = v;
layers = (
{
layerId = m001;
shapes = (
{
closed = 1;
nodes = (
(331,-11,l),
(478,328,ls),
(493,361,o),
(519,438,o),
(540,467,cs),
(553,483,o),
(571,495,o),
(592,495,c),
(592,530,l),
(393,530,l),
(393,495,l),
(446,495,o),
(457,486,o),
(457,456,cs),
(457,426,o),
(446,389,o),
(418,323,cs),
(327,108,l),
(323,108,l),
(217,398,ls),
(210,418,o),
(203,438,o),
(203,460,cs),
(203,492,o),
(217,493,o),
(270,495,c),
(270,530,l),
(5,530,l),
(5,495,l),
(57,493,o),
(72,487,o),
(104,406,cs),
(273,-11,l)
);
}
);
width = 610;
}
);
unicode = 118;
},
{
glyphname = w;
kernLeft = KERN_w;
kernRight = KERN_w;
layers = (
{
anchors = (
{
name = top;
pos = (451,651);
}
);
layerId = m001;
shapes = (
{
closed = 1;
nodes = (
(241,-10,l),
(111,406,ls),
(88,480,o),
(70,495,o),
(12,495,c),
(12,530,l),
(277,530,l),
(277,495,l),
(225,495,o),
(206,484,o),
(206,455,cs),
(206,442,o),
(210,424,o),
(217,398,cs),
(285,159,l),
(289,159,l),
(436,530,l),
(467,530,l),
(600,159,l),
(604,159,l),
(664,321,ls),
(697,410,o),
(705,436,o),
(705,459,cs),
(705,488,o),
(692,495,o),
(638,495,c),
(638,530,l),
(838,530,l),
(838,495,l),
(799,495,o),
(785,477,o),
(743,373,cs),
(588,-10,l),
(551,-10,l),
(429,359,l),
(425,359,l),
(278,-10,l)
);
}
);
width = 852;
}
);
unicode = 119;
},
{
glyphname = x;
layers = (
{
layerId = m001;
shapes = (
{
closed = 1;
nodes = (
(252,429,ls),
(240,446,o),
(233,460,o),
(233,471,cs),
(233,486,o),
(248,495,o),
(284,495,c),
(284,530,l),
(38,530,l),
(38,495,l),
(76,495,o),
(98,483,o),
(128,440,cs),
(261,251,l),
(159,126,ls),
(100,53,o),
(72,35,o),
(10,35,c),
(10,0,l),
(239,0,l),
(239,35,l),
(204,35,o),
(189,49,o),
(189,68,cs),
(189,79,o),
(194,92,o),
(204,104,cs),
(289,212,l),
(359,122,ls),
(385,88,o),
(396,71,o),
(396,62,cs),
(396,41,o),
(380,35,o),
(332,35,c),
(332,0,l),
(598,0,l),
(598,35,l),
(558,35,o),
(525,55,o),
(484,109,cs),
(351,284,l),
(454,415,ls),
(502,477,o),
(528,495,o),
(576,495,c),
(576,530,l),
(357,530,l),
(357,495,l),
(395,495,o),
(416,484,o),
(416,463,cs),
(416,450,o),
(408,432,o),
(392,412,cs),
(324,324,l)
);
}
);
width = 609;
}
);
unicode = 120;
},
{
glyphname = y;
kernLeft = KERN_y;
kernRight = KERN_y;
layers = (
{
anchors = (
{
name = top;
pos = (349,651);
}
);
layerId = m001;
shapes = (
{
closed = 1;
nodes = (
(564,477,o),
(578,495,o),
(628,495,c),
(628,530,l),
(408,530,l),
(408,495,l),
(463,495,o),
(478,486,o),
(478,451,cs),
(478,429,o),
(472,410,o),
(436,323,cs),
(345,98,l),
(340,98,l),
(230,364,ls),
(214,403,o),
(202,445,o),
(202,462,cs),
(202,485,o),
(223,495,o),
(269,495,c),
(269,530,l),
(4,530,l),
(4,495,l),
(57,491,o),
(69,480,o),
(103,406,cs),
(295,-11,l),
(260,-81,ls),
(235,-131,o),
(212,-148,o),
(157,-157,cs),
(94,-167,o),
(75,-180,o),
(75,-213,cs),
(75,-245,o),
(96,-260,o),
(138,-260,cs),
(201,-260,o),
(251,-224,o),
(281,-157,cs),
(499,328,ls)
);
}
);
width = 639;
}
);
unicode = 121;
},
{
glyphname = z;
kernLeft = KERN_z_2ND;
kernRight = KERN_z_1ST;
layers = (
{
anchors = (
{
name = bottom;
pos = (275,0);
},
{
name = top;
pos = (287,651);
}
);
layerId = m001;
shapes = (
{
closed = 1;
nodes = (
(482,155,l),
(458,63,o),
(424,46,o),
(287,46,cs),
(170,46,l),
(511,526,l),
(511,530,l),
(81,530,l),
(65,392,l),
(97,392,l),
(111,474,o),
(139,488,o),
(253,488,cs),
(364,488,l),
(18,4,l),
(18,0,l),
(498,0,l),
(515,155,l)
);
}
);
width = 557;
}
);
unicode = 122;
},
{
glyphname = c_t;
kernLeft = KERN_e_2ND;
kernRight = KERN_t_1ST;
layers = (
{
layerId = m001;
shapes = (
{
closed = 1;
nodes = (
(763,609,ls),
(763,739,o),
(702,804,o),
(580,804,cs),
(453,804,o),
(380,735,o),
(380,616,cs),
(380,585,o),
(385,559,o),
(396,534,c),
(376,538,o),
(353,540,o),
(330,540,cs),
(159,540,o),
(49,431,o),
(49,260,cs),
(49,99,o),
(147,-10,o),
(293,-10,cs),
(376,-10,o),
(457,25,o),
(506,83,c),
(476,112,l),
(426,64,o),
(377,42,o),
(323,42,cs),
(219,42,o),
(163,123,o),
(163,275,cs),
(163,419,o),
(212,493,o),
(308,493,cs),
(344,493,o),
(366,482,o),
(393,451,c),
(416,419,o),
(428,410,o),
(452,410,cs),
(484,410,o),
(503,426,o),
(503,452,cs),
(503,466,o),
(497,480,o),
(486,492,c),
(449,528,o),
(432,566,o),
(432,613,cs),
(432,699,o),
(489,754,o),
(577,754,cs),
(659,754,o),
(711,705,o),
(711,627,cs),
(711,553,o),
(664,504,o),
(591,504,c),
(591,467,l),
(651,467,l),
(651,112,ls),
(651,33,o),
(699,-10,o),
(785,-10,cs),
(853,-10,o),
(901,17,o),
(920,66,c),
(895,85,l),
(873,52,o),
(851,39,o),
(817,39,cs),
(765,39,o),
(749,69,o),
(749,163,cs),
(749,467,l),
(883,467,l),
(883,514,l),
(763,514,l)
);
}
);
width = 929;
}
);
},
{
glyphname = f_b;
kernLeft = KERN_f_2ND;
kernRight = KERN_b_1ST;
layers = (
{
layerId = m001;
shapes = (
{
closed = 1;
nodes = (
(476,807,l),
(451,821,o),
(413,830,o),
(367,830,cs),
(220,830,o),
(135,739,o),
(135,586,cs),
(135,514,l),
(22,514,l),
(22,467,l),
(135,467,l),
(135,153,ls),
(135,52,o),
(126,35,o),
(49,35,c),
(49,0,l),
(323,0,l),
(323,35,l),
(247,35,o),
(229,62,o),
(229,161,cs),
(229,467,l),
(390,467,l),
(390,514,l),
(229,514,l),
(229,592,ls),
(229,748,o),
(264,782,o),
(337,782,cs),
(373,782,o),
(400,771,o),
(447,730,cs),
(469,711,l),
(469,0,l),
(491,0,l),
(538,67,l),
(580,19,o),
(651,-11,o),
(726,-11,cs),
(872,-11,o),
(984,108,o),
(984,265,cs),
(984,420,o),
(873,540,o),
(729,540,cs),
(662,540,o),
(612,515,o),
(569,459,c),
(565,459,l),
(565,830,l)
);
},
{
closed = 1;
nodes = (
(567,428,o),
(620,493,o),
(711,493,cs),
(805,493,o),
(871,398,o),
(871,262,cs),
(871,127,o),
(808,37,o),
(715,37,cs),
(629,37,o),
(567,109,o),
(567,209,cs),
(567,298,ls)
);
}
);
width = 1032;
}
);
},
{
glyphname = f_f;
kernLeft = KERN_f_2ND;
kernRight = KERN_f_1ST;
layers = (
{
layerId = m001;
shapes = (
{
closed = 1;
nodes = (
(454,467,l),
(454,153,ls),
(454,52,o),
(445,39,o),
(378,35,c),
(378,0,l),
(642,0,l),
(642,35,l),
(566,37,o),
(548,62,o),
(548,161,cs),
(548,467,l),
(709,467,l),
(709,514,l),
(548,514,l),
(548,592,ls),
(548,659,o),
(552,695,o),
(564,721,cs),
(581,761,o),
(610,782,o),
(650,782,cs),
(675,782,o),
(689,776,o),
(722,748,cs),
(751,724,o),
(767,715,o),
(783,715,cs),
(808,715,o),
(827,735,o),
(827,762,cs),
(827,802,o),
(769,830,o),
(687,830,cs),
(595,830,o),
(526,791,o),
(488,747,c),
(465,768,o),
(421,790,o),
(365,790,cs),
(216,790,o),
(134,699,o),
(132,546,cs),
(132,514,l),
(19,514,l),
(19,467,l),
(132,467,l),
(132,153,ls),
(132,52,o),
(123,39,o),
(56,35,c),
(56,0,l),
(320,0,l),
(320,35,l),
(244,37,o),
(226,62,o),
(226,161,cs),
(226,467,l)
);
},
{
closed = 1;
nodes = (
(226,552,ls),
(226,619,o),
(230,655,o),
(242,681,cs),
(259,721,o),
(288,742,o),
(328,742,cs),
(353,742,o),
(371,737,o),
(404,709,cs),
(419,696,o),
(437,681,o),
(454,670,c),
(454,514,l),
(226,514,l)
);
}
);
width = 729;
}
);
unicode = 64256;
},
{
glyphname = f_f_b;
kernLeft = KERN_f_2ND;
kernRight = KERN_b_1ST;
layers = (
{
layerId = m001;
shapes = (
{
closed = 1;
nodes = (
(795,807,l),
(770,821,o),
(732,830,o),
(686,830,cs),
(596,830,o),
(536,798,o),
(494,739,c),
(467,770,o),
(421,790,o),
(365,790,cs),
(217,790,o),
(132,699,o),
(132,546,cs),
(132,514,l),
(19,514,l),
(19,467,l),
(132,467,l),
(132,153,ls),
(132,52,o),
(123,35,o),
(56,35,c),
(56,0,l),
(320,0,l),
(320,35,l),
(244,35,o),
(226,62,o),
(226,161,cs),
(226,467,l),
(454,467,l),
(454,153,ls),
(454,52,o),
(444,35,o),
(368,35,c),
(368,0,l),
(642,0,l),
(642,35,l),
(566,37,o),
(548,62,o),
(548,161,cs),
(548,467,l),
(709,467,l),
(709,514,l),
(548,514,l),
(548,592,ls),
(548,748,o),
(583,782,o),
(656,782,cs),
(692,782,o),
(719,771,o),
(766,730,cs),
(787,712,l),
(787,0,l),
(809,0,l),
(856,67,l),
(898,19,o),
(969,-11,o),
(1044,-11,cs),
(1190,-11,o),
(1302,108,o),
(1302,265,cs),
(1302,420,o),
(1191,540,o),
(1047,540,cs),
(980,540,o),
(930,515,o),
(887,459,c),
(883,459,l),
(883,830,l)
);
},
{
closed = 1;
nodes = (
(885,428,o),
(938,493,o),
(1029,493,cs),
(1123,493,o),
(1189,398,o),
(1189,262,cs),
(1189,127,o),
(1126,37,o),
(1033,37,cs),
(947,37,o),
(885,109,o),
(885,209,cs),
(885,298,ls)
);
},
{
closed = 1;
nodes = (
(226,552,ls),
(226,703,o),
(263,742,o),
(328,742,cs),
(353,742,o),
(371,737,o),
(404,709,cs),
(419,696,o),
(437,681,o),
(454,670,c),
(454,514,l),
(226,514,l)
);
}
);
width = 1350;
}
);
},
{
glyphname = f_f_h;
kernLeft = KERN_f_2ND;
kernRight = KERN_n_1ST;
layers = (
{
layerId = m001;
shapes = (
{
closed = 1;
nodes = (
(886,348,o),
(889,367,o),
(903,395,cs),
(932,451,o),
(987,485,o),
(1049,485,cs),
(1131,485,o),
(1162,428,o),
(1162,278,cs),
(1162,152,ls),
(1162,51,o),
(1154,39,o),
(1078,35,c),
(1078,0,l),
(1343,0,l),
(1343,35,l),
(1267,40,o),
(1261,50,o),
(1261,159,cs),
(1261,319,ls),
(1261,404,o),
(1251,451,o),
(1228,481,cs),
(1200,517,o),
(1145,540,o),
(1084,540,cs),
(1011,540,o),
(929,502,o),
(888,449,c),
(884,449,l),
(884,830,l),
(878,826,l),
(881,830,l),
(795,807,l),
(770,821,o),
(732,830,o),
(686,830,cs),
(596,830,o),
(536,798,o),
(494,739,c),
(467,770,o),
(421,790,o),
(365,790,cs),
(216,790,o),
(134,699,o),
(132,546,cs),
(132,514,l),
(19,514,l),
(19,467,l),
(132,467,l),
(132,153,ls),
(132,52,o),
(123,39,o),
(56,35,c),
(56,0,l),
(320,0,l),
(320,35,l),
(244,37,o),
(226,62,o),
(226,161,cs),
(226,467,l),
(454,467,l),
(454,153,ls),
(454,52,o),
(444,39,o),
(368,35,c),
(368,0,l),
(642,0,l),
(642,35,l),
(566,37,o),
(548,62,o),
(548,161,cs),
(548,467,l),
(709,467,l),
(709,514,l),
(548,514,l),
(548,592,ls),
(548,668,o),
(553,695,o),
(564,721,cs),
(581,761,o),
(607,782,o),
(656,782,cs),
(692,782,o),
(719,771,o),
(766,730,cs),
(788,711,l),
(788,152,ls),
(788,51,o),
(779,40,o),
(702,35,c),
(702,0,l),
(968,0,l),
(968,35,l),
(892,40,o),
(886,49,o),
(886,159,cs),
(886,287,ls)
);
},
{
closed = 1;
nodes = (
(226,552,ls),
(226,619,o),
(230,655,o),
(242,681,cs),
(259,721,o),
(288,742,o),
(328,742,cs),
(353,742,o),
(371,737,o),
(404,709,cs),
(419,696,o),
(437,681,o),
(454,670,c),
(454,514,l),
(226,514,l)
);
}
);
width = 1366;
}
);
},
{
glyphname = f_f_i;
kernLeft = KERN_f_2ND;
kernRight = KERN_i_1ST;
layers = (
{
layerId = m001;
shapes = (
{
closed = 1;
nodes = (
(708,514,l),
(548,514,l),
(548,592,ls),
(548,747,o),
(587,782,o),
(670,782,cs),
(704,782,o),
(717,778,o),
(758,750,cs),
(789,729,o),
(807,720,o),
(823,720,cs),
(848,720,o),
(867,740,o),
(867,767,cs),
(867,804,o),
(801,830,o),
(707,830,cs),
(607,830,o),
(539,794,o),
(496,738,c),
(459,772,o),
(419,790,o),
(365,790,cs),
(217,790,o),
(132,699,o),
(132,546,cs),
(132,514,l),
(19,514,l),
(19,467,l),
(132,467,l),
(132,153,ls),
(132,52,o),
(125,35,o),
(56,35,c),
(56,0,l),
(320,0,l),
(320,35,l),
(244,35,o),
(226,62,o),
(226,161,cs),
(226,467,l),
(454,467,l),
(454,153,ls),
(454,54,o),
(440,35,o),
(378,35,c),
(378,0,l),
(642,0,l),
(642,35,l),
(569,35,o),
(548,59,o),
(548,146,cs),
(548,467,l),
(673,467,ls),
(740,467,o),
(757,458,o),
(764,426,cs),
(768,408,o),
(771,357,o),
(771,280,cs),
(771,154,ls),
(771,60,o),
(758,37,o),
(685,37,c),
(685,0,l),
(942,0,l),
(942,37,l),
(881,37,o),
(869,58,o),
(869,162,cs),
(869,540,l)
);
},
{
closed = 1;
nodes = (
(226,552,ls),
(226,703,o),
(263,742,o),
(328,742,cs),
(353,742,o),
(371,737,o),
(404,709,cs),
(419,696,o),
(437,682,o),
(454,670,c),
(454,514,l),
(226,514,l)
);
}
);
width = 973;
}
);
unicode = 64259;
},
{
glyphname = f_f_j;
kernLeft = KERN_f_2ND;
kernRight = KERN_j_1ST;
layers = (
{
layerId = m001;
shapes = (
{
closed = 1;
nodes = (
(708,513,l),
(548,513,l),
(548,592,ls),
(548,747,o),
(587,782,o),
(670,782,cs),
(704,782,o),
(717,778,o),
(758,750,cs),
(789,729,o),
(807,720,o),
(823,720,cs),
(848,720,o),
(867,740,o),
(867,767,cs),
(867,804,o),
(801,830,o),
(707,830,cs),
(607,830,o),
(539,794,o),
(496,738,c),
(459,772,o),
(419,790,o),
(365,790,cs),
(217,790,o),
(132,699,o),
(132,546,cs),
(132,514,l),
(19,514,l),
(19,467,l),
(132,467,l),
(132,153,ls),
(132,52,o),
(122,35,o),
(56,35,c),
(56,0,l),
(320,0,l),
(320,35,l),
(245,35,o),
(226,62,o),
(226,161,cs),
(226,467,l),
(454,467,l),
(454,153,ls),
(454,54,o),
(440,35,o),
(378,35,c),
(378,0,l),
(642,0,l),
(642,35,l),
(570,35,o),
(548,59,o),
(548,146,cs),
(548,467,l),
(673,467,ls),
(740,467,o),
(757,458,o),
(764,427,cs),
(768,409,o),
(771,357,o),
(771,280,cs),
(771,-68,ls),
(771,-179,o),
(749,-217,o),
(685,-217,cs),
(652,-217,o),
(641,-207,o),
(622,-167,cs),
(606,-134,o),
(594,-120,o),
(570,-120,cs),
(538,-120,o),
(519,-137,o),
(519,-167,cs),
(519,-222,o),
(579,-260,o),
(664,-260,cs),
(796,-260,o),
(869,-168,o),
(869,-2,cs),
(869,540,l)
);
},
{
closed = 1;
nodes = (
(226,552,ls),
(226,703,o),
(263,742,o),
(328,742,cs),
(353,742,o),
(371,737,o),
(404,709,cs),
(419,696,o),
(437,681,o),
(454,670,c),
(454,514,l),
(226,514,l)
);
}
);
width = 960;
}
);
},
{
glyphname = f_f_k;
kernLeft = KERN_f_2ND;
kernRight = KERN_k_1ST;
layers = (
{
layerId = m001;
shapes = (
{
closed = 1;
nodes = (
(1286,0,l),
(1286,35,l),
(1243,35,o),
(1217,47,o),
(1180,90,cs),
(982,314,l),
(1126,442,ls),
(1175,485,o),
(1195,495,o),
(1244,495,c),
(1244,530,l),
(984,530,l),
(984,495,l),
(1041,495,o),
(1065,485,o),
(1065,475,cs),
(1065,463,o),
(1058,452,o),
(976,372,cs),
(883,281,l),
(883,830,l),
(795,807,l),
(770,821,o),
(732,830,o),
(686,830,cs),
(596,830,o),
(536,798,o),
(494,739,c),
(467,770,o),
(421,790,o),
(365,790,cs),
(217,790,o),
(132,699,o),
(132,546,cs),
(132,514,l),
(19,514,l),
(19,467,l),
(132,467,l),
(132,153,ls),
(132,52,o),
(123,35,o),
(56,35,c),
(56,0,l),
(320,0,l),
(320,35,l),
(245,35,o),
(226,62,o),
(226,161,cs),
(226,467,l),
(454,467,l),
(454,153,ls),
(454,52,o),
(444,35,o),
(368,35,c),
(368,0,l),
(642,0,l),
(642,35,l),
(567,35,o),
(548,62,o),
(548,161,cs),
(548,467,l),
(709,467,l),
(709,514,l),
(548,514,l),
(548,592,ls),
(548,748,o),
(583,782,o),
(656,782,cs),
(692,782,o),
(719,771,o),
(766,730,cs),
(788,711,l),
(788,152,ls),
(788,57,o),
(772,35,o),
(692,35,c),
(692,0,l),
(976,0,l),
(976,35,l),
(897,35,o),
(883,56,o),
(883,159,cs),
(883,218,l),
(920,253,l),
(1026,125,ls),
(1072,70,o),
(1081,54,o),
(1081,46,cs),
(1081,39,o),
(1072,35,o),
(1023,35,c),
(1023,0,l)
);
},
{
closed = 1;
nodes = (
(226,552,ls),
(226,703,o),
(263,742,o),
(328,742,cs),
(353,742,o),
(371,737,o),
(404,709,cs),
(419,696,o),
(437,681,o),
(454,670,c),
(454,514,l),
(226,514,l)
);
}
);
width = 1291;
}
);
},
{
glyphname = f_f_l;
kernLeft = KERN_f_2ND;
kernRight = KERN_l_1ST;
layers = (
{
layerId = m001;
shapes = (
{
closed = 1;
nodes = (
(795,807,l),
(770,821,o),
(732,830,o),
(686,830,cs),
(596,830,o),
(536,798,o),
(494,739,c),
(467,770,o),
(421,790,o),
(365,790,cs),
(216,790,o),
(134,699,o),
(132,546,cs),
(132,514,l),
(19,514,l),
(19,467,l),
(132,467,l),
(132,153,ls),
(132,52,o),
(123,39,o),
(56,35,c),
(56,0,l),
(320,0,l),
(320,35,l),
(244,37,o),
(226,62,o),
(226,161,cs),
(226,467,l),
(454,467,l),
(454,153,ls),
(454,52,o),
(444,39,o),
(368,35,c),
(368,0,l),
(642,0,l),
(642,35,l),
(566,37,o),
(548,62,o),
(548,161,cs),
(548,467,l),
(709,467,l),
(709,514,l),
(548,514,l),
(548,592,ls),
(548,668,o),
(553,695,o),
(564,721,cs),
(581,761,o),
(607,782,o),
(656,782,cs),
(692,782,o),
(719,771,o),
(766,730,cs),
(788,711,l),
(788,149,ls),
(788,57,o),
(775,39,o),
(704,35,c),
(704,0,l),
(970,0,l),
(970,35,l),
(893,38,o),
(881,55,o),
(881,156,cs),
(881,830,l)
);
},
{
closed = 1;
nodes = (
(226,552,ls),
(226,619,o),
(230,655,o),
(242,681,cs),
(259,721,o),
(288,742,o),
(328,742,cs),
(353,742,o),
(371,737,o),
(404,709,cs),
(419,696,o),
(437,681,o),
(454,670,c),
(454,514,l),
(226,514,l)
);
}
);
width = 997;
}
);
unicode = 64260;
},
{
glyphname = f_f_t;
kernLeft = KERN_f_2ND;
kernRight = KERN_t_1ST;
layers = (
{
layerId = m001;
shapes = (
{
closed = 1;
nodes = (
(779,112,ls),
(779,34,o),
(826,-10,o),
(914,-10,cs),
(982,-10,o),
(1029,17,o),
(1048,66,c),
(1023,85,l),
(1001,52,o),
(979,39,o),
(946,39,cs),
(893,39,o),
(877,69,o),
(877,163,cs),
(877,467,l),
(1011,467,l),
(1011,514,l),
(877,514,l),
(877,640,l),
(848,640,l),
(825,576,o),
(756,514,o),
(699,514,cs),
(548,514,l),
(548,592,ls),
(548,659,o),
(552,695,o),
(564,721,cs),
(581,761,o),
(610,782,o),
(650,782,cs),
(675,782,o),
(689,776,o),
(722,748,cs),
(751,724,o),
(767,715,o),
(783,715,cs),
(808,715,o),
(827,735,o),
(827,762,cs),
(827,802,o),
(769,830,o),
(687,830,cs),
(595,830,o),
(526,791,o),
(488,747,c),
(465,768,o),
(421,790,o),
(365,790,cs),
(216,790,o),
(134,699,o),
(132,546,cs),
(132,514,l),
(19,514,l),
(19,467,l),
(132,467,l),
(132,153,ls),
(132,52,o),
(123,39,o),
(56,35,c),
(56,0,l),
(320,0,l),
(320,35,l),
(244,37,o),
(226,62,o),
(226,161,cs),
(226,467,l),
(454,467,l),
(454,153,ls),
(454,52,o),
(445,39,o),
(378,35,c),
(378,0,l),
(642,0,l),
(642,35,l),
(566,37,o),
(548,62,o),
(548,161,cs),
(548,467,l),
(779,467,l)
);
},
{
closed = 1;
nodes = (
(226,552,ls),
(226,619,o),
(230,655,o),
(242,681,cs),
(259,721,o),
(288,742,o),
(328,742,cs),
(353,742,o),
(371,737,o),
(404,709,cs),
(419,696,o),
(437,681,o),
(454,670,c),
(454,514,l),
(226,514,l)
);
}
);
width = 1057;
}
);
},
{
glyphname = f_h;
kernLeft = KERN_f_2ND;
kernRight = KERN_n_1ST;
layers = (
{
layerId = m001;
shapes = (
{
closed = 1;
nodes = (
(567,348,o),
(570,367,o),
(584,395,cs),
(613,451,o),
(668,485,o),
(730,485,cs),
(812,485,o),
(843,428,o),
(843,278,cs),
(843,152,ls),
(843,51,o),
(835,35,o),
(759,35,c),
(759,0,l),
(1024,0,l),
(1024,35,l),
(948,35,o),
(942,50,o),
(942,159,cs),
(942,319,ls),
(942,404,o),
(932,451,o),
(909,481,cs),
(881,517,o),
(826,540,o),
(765,540,cs),
(692,540,o),
(610,502,o),
(569,449,c),
(565,449,l),
(565,830,l),
(559,826,l),
(562,830,l),
(476,807,l),
(451,821,o),
(413,830,o),
(367,830,cs),
(220,830,o),
(135,739,o),
(135,586,cs),
(135,514,l),
(22,514,l),
(22,467,l),
(135,467,l),
(135,153,ls),
(135,52,o),
(125,35,o),
(49,35,c),
(49,0,l),
(323,0,l),
(323,35,l),
(248,35,o),
(229,62,o),
(229,161,cs),
(229,467,l),
(390,467,l),
(390,514,l),
(229,514,l),
(229,592,ls),
(229,748,o),
(264,782,o),
(337,782,cs),
(373,782,o),
(400,771,o),
(447,730,cs),
(469,711,l),
(469,152,ls),
(469,51,o),
(459,35,o),
(383,35,c),
(383,0,l),
(649,0,l),
(649,35,l),
(574,35,o),
(567,49,o),
(567,159,cs),
(567,287,ls)
);
}
);
width = 1047;
}
);
},
{
glyphname = f_j;
kernLeft = KERN_f_2ND;
kernRight = KERN_j_1ST;
layers = (
{
layerId = m001;
shapes = (
{
closed = 1;
nodes = (
(386,513,l),
(226,513,l),
(226,592,ls),
(226,746,o),
(265,782,o),
(348,782,cs),
(382,782,o),
(395,778,o),
(436,750,cs),
(467,729,o),
(485,720,o),
(501,720,cs),
(526,720,o),
(545,740,o),
(545,767,cs),
(545,804,o),
(479,830,o),
(385,830,cs),
(225,830,o),
(132,739,o),
(132,586,cs),
(132,514,l),
(19,514,l),
(19,467,l),
(132,467,l),
(132,153,ls),
(132,52,o),
(123,35,o),
(56,35,c),
(56,0,l),
(310,0,l),
(310,35,l),
(243,35,o),
(226,62,o),
(226,161,cs),
(226,467,l),
(351,467,ls),
(418,467,o),
(435,458,o),
(442,427,cs),
(446,409,o),
(449,357,o),
(449,280,cs),
(449,-68,ls),
(449,-179,o),
(427,-217,o),
(363,-217,cs),
(330,-217,o),
(319,-207,o),
(300,-167,cs),
(280,-127,o),
(272,-120,o),
(248,-120,cs),
(216,-120,o),
(197,-137,o),
(197,-167,cs),
(197,-222,o),
(257,-260,o),
(342,-260,cs),
(474,-260,o),
(547,-168,o),
(547,-2,cs),
(547,540,l)
);
}
);
width = 638;
}
);
},
{
glyphname = f_k;
kernLeft = KERN_f_2ND;
kernRight = KERN_k_1ST;
layers = (
{
layerId = m001;
shapes = (
{
closed = 1;
nodes = (
(966,0,l),
(966,35,l),
(920,35,o),
(898,46,o),
(860,90,cs),
(662,314,l),
(806,442,ls),
(855,485,o),
(874,495,o),
(924,495,c),
(924,530,l),
(664,530,l),
(664,495,l),
(725,495,o),
(743,489,o),
(743,473,cs),
(743,461,o),
(733,447,o),
(656,372,cs),
(563,281,l),
(563,830,l),
(476,807,l),
(451,821,o),
(413,830,o),
(367,830,cs),
(220,830,o),
(135,739,o),
(135,586,cs),
(135,514,l),
(22,514,l),
(22,467,l),
(135,467,l),
(135,153,ls),
(135,52,o),
(125,35,o),
(49,35,c),
(49,0,l),
(323,0,l),
(323,35,l),
(248,35,o),
(229,62,o),
(229,161,cs),
(229,467,l),
(390,467,l),
(390,514,l),
(229,514,l),
(229,592,ls),
(229,747,o),
(264,782,o),
(335,782,cs),
(378,782,o),
(401,769,o),
(447,730,cs),
(468,712,l),
(468,152,ls),
(468,57,o),
(452,35,o),
(372,35,c),
(372,0,l),
(656,0,l),
(656,35,l),
(576,35,o),
(563,56,o),
(563,159,cs),
(563,218,l),
(600,253,l),
(706,125,ls),
(752,70,o),
(759,57,o),
(759,48,cs),
(759,38,o),
(750,35,o),
(703,35,c),
(703,0,l)
);
}
);
width = 971;
}
);
},
{
glyphname = f_t;
kernLeft = KERN_f_2ND;
kernRight = KERN_t_1ST;
layers = (
{
layerId = m001;
shapes = (
{
closed = 1;
nodes = (
(484,112,ls),
(484,34,o),
(531,-10,o),
(619,-10,cs),
(687,-10,o),
(734,17,o),
(753,66,c),
(728,85,l),
(706,52,o),
(684,39,o),
(651,39,cs),
(598,39,o),
(582,69,o),
(582,163,cs),
(582,467,l),
(716,467,l),
(716,514,l),
(582,514,l),
(582,640,l),
(553,640,l),
(530,576,o),
(461,514,o),
(404,514,cs),
(229,514,l),
(229,592,ls),
(229,743,o),
(266,782,o),
(331,782,cs),
(356,782,o),
(370,776,o),
(403,748,cs),
(431,724,o),
(448,715,o),
(464,715,cs),
(489,715,o),
(508,735,o),
(508,762,cs),
(508,802,o),
(450,830,o),
(368,830,cs),
(220,830,o),
(135,739,o),
(135,586,cs),
(135,514,l),
(22,514,l),
(22,467,l),
(135,467,l),
(135,153,ls),
(135,52,o),
(126,35,o),
(49,35,c),
(49,0,l),
(333,0,l),
(333,35,l),
(249,35,o),
(229,62,o),
(229,161,cs),
(229,467,l),
(484,467,l)
);
}
);
width = 762;
}
);
},
{
glyphname = fi;
kernRight = KERN_i_1ST;
layers = (
{
layerId = m001;
shapes = (
{
closed = 1;
nodes = (
(386,514,l),
(226,514,l),
(226,592,ls),
(226,746,o),
(265,782,o),
(348,782,cs),
(382,782,o),
(395,778,o),
(436,750,cs),
(467,729,o),
(485,720,o),
(501,720,cs),
(526,720,o),
(545,740,o),
(545,767,cs),
(545,804,o),
(479,830,o),
(385,830,cs),
(225,830,o),
(132,739,o),
(132,586,cs),
(132,514,l),
(19,514,l),
(19,467,l),
(132,467,l),
(132,153,ls),
(132,52,o),
(123,35,o),
(56,35,c),
(56,0,l),
(310,0,l),
(310,35,l),
(242,35,o),
(226,62,o),
(226,161,cs),
(226,467,l),
(351,467,ls),
(418,467,o),
(435,458,o),
(442,426,cs),
(446,408,o),
(449,357,o),
(449,280,cs),
(449,154,ls),
(449,60,o),
(437,37,o),
(363,37,c),
(363,0,l),
(620,0,l),
(620,37,l),
(559,37,o),
(547,58,o),
(547,162,cs),
(547,540,l)
);
}
);
width = 651;
}
);
unicode = 64257;
},
{
glyphname = fl;
kernRight = KERN_l_1ST;
layers = (
{
layerId = m001;
shapes = (
{
closed = 1;
nodes = (
(476,807,l),
(451,821,o),
(413,830,o),
(367,830,cs),
(220,830,o),
(135,739,o),
(135,586,cs),
(135,514,l),
(22,514,l),
(22,467,l),
(135,467,l),
(135,153,ls),
(135,52,o),
(123,35,o),
(49,35,c),
(49,0,l),
(323,0,l),
(323,35,l),
(249,35,o),
(229,62,o),
(229,161,cs),
(229,467,l),
(390,467,l),
(390,514,l),
(229,514,l),
(229,592,ls),
(229,748,o),
(264,782,o),
(337,782,cs),
(373,782,o),
(400,771,o),
(447,730,cs),
(469,711,l),
(469,149,ls),
(469,57,o),
(456,35,o),
(385,35,c),
(385,0,l),
(651,0,l),
(651,35,l),
(575,35,o),
(562,55,o),
(562,156,cs),
(562,830,l)
);
}
);
width = 678;
}
);
unicode = 64258;
},
{
glyphname = s_p;
kernLeft = KERN_s_2ND;
kernRight = KERN_b_1ST;
layers = (
{
layerId = m001;
shapes = (
{
closed = 1;
nodes = (
(142,6,o),
(188,-10,o),
(240,-10,cs),
(341,-10,o),
(407,49,o),
(407,141,cs),
(407,201,o),
(363,256,o),
(247,324,cs),
(174,367,o),
(149,395,o),
(149,437,cs),
(149,473,o),
(177,499,o),
(226,499,cs),
(258,499,o),
(282,487,o),
(309,452,cs),
(333,420,o),
(344,411,o),
(369,411,cs),
(400,411,o),
(419,427,o),
(419,453,cs),
(419,479,o),
(401,504,o),
(370,520,cs),
(311,550,o),
(283,578,o),
(283,626,cs),
(283,692,o),
(334,740,o),
(401,740,cs),
(465,740,o),
(510,696,o),
(568,676,c),
(544,615,o),
(526,551,o),
(526,450,cs),
(526,-97,ls),
(526,-193,o),
(511,-215,o),
(430,-215,c),
(430,-250,l),
(738,-250,l),
(738,-215,l),
(639,-215,o),
(624,-196,o),
(624,-90,cs),
(624,56,l),
(666,11,o),
(714,-10,o),
(778,-10,cs),
(930,-10,o),
(1040,105,o),
(1040,263,cs),
(1040,421,o),
(930,540,o),
(784,540,cs),
(719,540,o),
(674,517,o),
(624,458,c),
(620,458,l),
(620,673,l),
(656,673,o),
(690,701,o),
(690,733,cs),
(690,759,o),
(667,778,o),
(637,778,cs),
(607,778,o),
(588,758,o),
(579,713,c),
(539,725,o),
(488,790,o),
(402,790,cs),
(309,790,o),
(233,716,o),
(233,624,cs),
(233,594,o),
(241,568,o),
(258,546,c),
(251,546,ls),
(136,546,o),
(67,485,o),
(67,401,cs),
(67,330,o),
(93,292,o),
(202,222,cs),
(300,159,o),
(318,135,o),
(318,93,cs),
(318,56,o),
(287,31,o),
(232,31,cs),
(161,31,o),
(114,78,o),
(89,172,c),
(64,172,l),
(64,0,l),
(86,0,l),
(106,35,l)
);
},
{
closed = 1;
nodes = (
(676,470,o),
(721,492,o),
(767,492,cs),
(863,492,o),
(927,399,o),
(927,260,cs),
(927,126,o),
(867,39,o),
(775,39,cs),
(727,39,o),
(684,62,o),
(651,106,cs),
(629,135,o),
(624,157,o),
(624,232,cs),
(624,310,ls),
(624,364,o),
(632,400,o),
(650,429,cs)
);
}
);
width = 1088;
}
);
},
{
glyphname = s_t;
kernLeft = KERN_s_2ND;
kernRight = KERN_t_1ST;
layers = (
{
layerId = m001;
shapes = (
{
closed = 1;
nodes = (
(683,609,ls),
(683,739,o),
(622,804,o),
(500,804,cs),
(373,804,o),
(300,735,o),
(300,616,cs),
(300,588,o),
(304,563,o),
(313,539,c),
(292,544,o),
(268,546,o),
(243,546,cs),
(132,546,o),
(67,475,o),
(67,390,cs),
(67,326,o),
(95,287,o),
(202,222,cs),
(306,159,o),
(318,144,o),
(318,107,cs),
(318,60,o),
(284,31,o),
(231,31,cs),
(161,31,o),
(115,77,o),
(89,172,c),
(64,172,l),
(64,0,l),
(86,0,l),
(106,35,l),
(142,6,o),
(188,-10,o),
(240,-10,cs),
(339,-10,o),
(407,49,o),
(407,139,cs),
(407,207,o),
(375,247,o),
(247,324,cs),
(168,372,o),
(149,394,o),
(149,437,cs),
(149,473,o),
(179,499,o),
(223,499,cs),
(262,499,o),
(283,487,o),
(309,452,cs),
(334,419,o),
(346,411,o),
(370,411,cs),
(400,411,o),
(419,427,o),
(419,453,cs),
(419,471,o),
(411,487,o),
(397,500,cs),
(362,535,o),
(352,567,o),
(352,613,cs),
(352,699,o),
(409,754,o),
(497,754,cs),
(579,754,o),
(631,705,o),
(631,627,cs),
(631,553,o),
(584,504,o),
(511,504,c),
(511,467,l),
(571,467,l),
(571,112,ls),
(571,33,o),
(619,-10,o),
(705,-10,cs),
(773,-10,o),
(821,17,o),
(840,66,c),
(815,85,l),
(793,52,o),
(771,39,o),
(737,39,cs),
(685,39,o),
(669,69,o),
(669,163,cs),
(669,467,l),
(803,467,l),
(803,514,l),
(683,514,l)
);
}
);
width = 849;
}
);
unicode = 64262;
},
{
glyphname = ordfeminine;
layers = (
{
layerId = m001;
shapes = (
{
closed = 1;
nodes = (
(218,578,o),
(191,542,o),
(160,542,cs),
(139,542,o),
(125,558,o),
(125,580,cs),
(125,605,o),
(150,629,o),
(218,654,c),
(218,620,ls)
);
},
{
closed = 1;
nodes = (
(84,623,o),
(63,600,o),
(63,566,cs),
(63,531,o),
(91,507,o),
(135,507,cs),
(171,507,o),
(202,526,o),
(219,555,c),
(223,555,l),
(223,524,o),
(237,507,o),
(267,507,cs),
(292,507,o),
(318,518,o),
(327,534,c),
(320,546,l),
(314,537,o),
(305,533,o),
(296,533,cs),
(281,533,o),
(274,553,o),
(274,591,cs),
(274,703,ls),
(274,759,o),
(248,780,o),
(177,780,cs),
(112,780,o),
(72,757,o),
(72,730,cs),
(72,710,o),
(81,701,o),
(97,701,cs),
(109,701,o),
(119,708,o),
(123,725,cs),
(129,751,o),
(139,756,o),
(168,756,cs),
(203,756,o),
(218,739,o),
(218,701,cs),
(218,682,l),
(148,651,ls)
);
}
);
width = 378;
}
);
unicode = 170;
},
{
glyphname = ordmasculine;
layers = (
{
layerId = m001;
shapes = (
{
closed = 1;
nodes = (
(116,780,o),
(53,723,o),
(53,645,cs),
(53,565,o),
(116,507,o),
(190,507,cs),
(265,507,o),
(330,565,o),
(330,645,cs),
(330,723,o),
(265,780,o),
(190,780,cs)
);
},
{
closed = 1;
nodes = (
(235,754,o),
(265,709,o),
(265,645,cs),
(265,578,o),
(235,534,o),
(190,534,cs),
(146,534,o),
(117,578,o),
(117,645,cs),
(117,709,o),
(147,754,o),
(190,754,cs)
);
}
);
width = 383;
}
);
unicode = 186;
},
{
glyphname = mu;
layers = (
{
anchors = (
{
name = bottom;
pos = (317,0);
},
{
name = top;
pos = (339,651);
}
);
layerId = m001;
shapes = (
{
closed = 1;
nodes = (
(234,22,o),
(277,-10,o),
(331,-10,cs),
(393,-10,o),
(452,32,o),
(494,109,c),
(498,109,l),
(509,-11,l),
(674,1,l),
(674,36,l),
(612,36,o),
(599,43,o),
(593,76,cs),
(589,100,o),
(587,148,o),
(587,223,cs),
(587,530,l),
(406,530,l),
(406,495,l),
(477,495,o),
(489,477,o),
(489,370,cs),
(489,272,ls),
(489,216,o),
(486,196,o),
(472,165,cs),
(436,81,o),
(394,44,o),
(336,44,cs),
(260,44,o),
(228,108,o),
(228,257,cs),
(228,530,l),
(47,530,l),
(47,495,l),
(118,495,o),
(130,476,o),
(130,370,cs),
(130,-198,ls),
(130,-233,o),
(155,-260,o),
(188,-260,cs),
(222,-260,o),
(244,-233,o),
(244,-190,cs),
(244,-153,o),
(224,-23,o),
(203,81,c),
(207,82,l)
);
}
);
width = 721;
}
);
unicode = 956;
},
{
glyphname = zero;
layers = (
{
layerId = m001;
shapes = (
{
closed = 1;
nodes = (
(194,780,o),
(61,605,o),
(61,379,cs),
(61,162,o),
(194,-10,o),
(357,-10,cs),
(520,-10,o),
(653,162,o),
(653,379,cs),
(653,605,o),
(520,780,o),
(357,780,cs)
);
},
{
closed = 1;
nodes = (
(253,38,o),
(191,116,o),
(191,376,cs),
(191,647,o),
(253,732,o),
(357,732,cs),
(461,732,o),
(523,647,o),
(523,376,cs),
(523,116,o),
(460,38,o),
(357,38,cs)
);
}
);
width = 714;
}
);
unicode = 48;
},
{
glyphname = one;
layers = (
{
layerId = m001;
shapes = (
{
closed = 1;
nodes = (
(211,757,o),
(134,741,o),
(69,738,c),
(69,700,l),
(135,700,o),
(167,697,o),
(174,668,cs),
(178,652,o),
(178,599,o),
(178,522,cs),
(178,155,ls),
(178,61,o),
(163,42,o),
(74,38,c),
(74,0,l),
(380,0,l),
(380,38,l),
(290,41,o),
(276,59,o),
(276,162,cs),
(276,780,l)
);
}
);
width = 446;
}
);
unicode = 49;
},
{
glyphname = two;
layers = (
{
layerId = m001;
shapes = (
{
closed = 1;
nodes = (
(389,247,o),
(547,399,o),
(547,564,cs),
(547,691,o),
(448,781,o),
(307,781,cs),
(165,781,o),
(59,692,o),
(59,573,cs),
(59,486,o),
(114,423,o),
(188,423,cs),
(229,423,o),
(260,444,o),
(266,476,c),
(199,476,o),
(156,522,o),
(156,594,cs),
(156,676,o),
(212,734,o),
(291,734,cs),
(374,734,o),
(427,669,o),
(427,566,cs),
(427,426,o),
(355,305,o),
(50,33,c),
(50,0,l),
(515,0,l),
(553,213,l),
(516,213,l),
(488,119,o),
(459,98,o),
(395,98,cs),
(196,98,l),
(195,103,l)
);
}
);
width = 616;
}
);
unicode = 50;
},
{
glyphname = three;
layers = (
{
layerId = m001;
shapes = (
{
closed = 1;
nodes = (
(429,324,o),
(382,388,o),
(301,388,c),
(281,378,o),
(254,370,o),
(234,370,cs),
(207,370,o),
(188,384,o),
(188,404,cs),
(188,422,o),
(205,432,o),
(232,432,cs),
(249,432,o),
(273,428,o),
(293,421,c),
(364,421,o),
(412,491,o),
(412,597,cs),
(412,692,o),
(374,737,o),
(294,737,cs),
(224,737,o),
(180,703,o),
(180,647,cs),
(180,602,o),
(209,571,o),
(252,571,c),
(246,549,o),
(217,533,o),
(182,533,cs),
(124,533,o),
(80,579,o),
(80,639,cs),
(80,724,o),
(166,780,o),
(294,780,cs),
(438,780,o),
(532,709,o),
(532,602,cs),
(532,512,o),
(465,438,o),
(382,417,c),
(382,411,l),
(482,385,o),
(555,308,o),
(555,207,cs),
(555,83,o),
(444,-10,o),
(290,-10,cs),
(152,-10,o),
(51,65,o),
(51,167,cs),
(51,239,o),
(101,294,o),
(166,294,cs),
(203,294,o),
(236,275,o),
(243,250,c),
(193,250,o),
(157,209,o),
(157,152,cs),
(157,84,o),
(210,37,o),
(288,37,cs),
(379,37,o),
(429,100,o),
(429,214,cs)
);
}
);
width = 616;
}
);
unicode = 51;
},
{
glyphname = four;
layers = (
{
layerId = m001;
shapes = (
{
closed = 1;
nodes = (
(370,780,l),
(401,780,l),
(401,227,l),
(484,230,o),
(494,241,o),
(494,318,c),
(529,318,l),
(529,95,l),
(494,95,l),
(494,168,o),
(484,181,o),
(401,183,c),
(401,162,ls),
(401,59,o),
(414,38,o),
(480,38,c),
(480,0,l),
(199,0,l),
(199,38,l),
(287,38,o),
(303,61,o),
(303,155,cs),
(303,179,l),
(18,179,l),
(18,229,l)
);
},
{
closed = 1;
nodes = (
(298,585,l),
(68,229,l),
(303,229,l),
(303,585,l)
);
}
);
width = 585;
}
);
unicode = 52;
},
{
glyphname = five;
layers = (
{
layerId = m001;
shapes = (
{
closed = 1;
nodes = (
(333,661,ls),
(416,661,o),
(473,704,o),
(489,780,c),
(483,781,l),
(458,769,o),
(411,762,o),
(350,762,cs),
(298,762,o),
(262,768,o),
(233,780,c),
(126,367,ls),
(125,364,o),
(125,361,o),
(125,359,cs),
(125,347,o),
(134,339,o),
(147,339,cs),
(158,339,o),
(163,343,o),
(171,367,cs),
(193,433,o),
(228,462,o),
(283,462,cs),
(356,462,o),
(385,410,o),
(385,297,cs),
(385,138,o),
(323,34,o),
(219,34,cs),
(94,34,o),
(153,185,o),
(70,185,cs),
(39,185,o),
(22,164,o),
(22,128,cs),
(22,48,o),
(103,-10,o),
(216,-10,cs),
(381,-10,o),
(509,115,o),
(509,274,cs),
(509,405,o),
(420,505,o),
(302,505,cs),
(263,505,o),
(220,494,o),
(200,479,c),
(198,482,l),
(245,661,l)
);
}
);
width = 568;
}
);
unicode = 53;
},
{
glyphname = six;
layers = (
{
layerId = m001;
shapes = (
{
closed = 1;
nodes = (
(586,401,o),
(484,508,o),
(349,508,cs),
(282,508,o),
(234,480,o),
(191,418,c),
(188,420,l),
(188,600,o),
(257,735,o),
(349,735,cs),
(451,735,o),
(419,626,o),
(497,626,cs),
(530,626,o),
(551,646,o),
(551,678,cs),
(551,735,o),
(474,780,o),
(378,780,cs),
(204,780,o),
(61,580,o),
(61,337,cs),
(61,133,o),
(168,-10,o),
(321,-10,cs),
(468,-10,o),
(586,109,o),
(586,259,cs)
);
},
{
closed = 1;
nodes = (
(230,421,o),
(274,459,o),
(335,459,cs),
(417,459,o),
(461,388,o),
(461,255,cs),
(461,105,o),
(417,35,o),
(325,35,cs),
(234,35,o),
(186,119,o),
(186,283,cs),
(186,332,l)
);
}
);
width = 643;
}
);
unicode = 54;
},
{
glyphname = seven;
layers = (
{
layerId = m001;
shapes = (
{
closed = 1;
nodes = (
(116,92,o),
(106,65,o),
(106,31,cs),
(106,12,o),
(125,-10,o),
(149,-10,cs),
(183,-10,o),
(208,17,o),
(253,136,cs),
(346,382,o),
(374,451,o),
(507,750,c),
(507,770,l),
(214,770,ls),
(153,770,o),
(138,776,o),
(138,799,cs),
(138,808,o),
(140,824,o),
(142,830,c),
(102,830,l),
(32,550,l),
(70,550,l),
(85,589,ls),
(113,663,o),
(127,671,o),
(231,671,cs),
(417,671,l),
(281,410,ls)
);
}
);
width = 502;
}
);
unicode = 55;
},
{
glyphname = eight;
layers = (
{
layerId = m001;
shapes = (
{
closed = 1;
nodes = (
(422,277,o),
(454,239,o),
(454,179,cs),
(454,92,o),
(395,36,o),
(304,36,cs),
(212,36,o),
(154,93,o),
(154,183,cs),
(154,259,o),
(194,323,o),
(269,365,c),
(329,331,ls)
);
},
{
closed = 1;
nodes = (
(476,477,o),
(516,536,o),
(516,603,cs),
(516,656,o),
(489,704,o),
(440,738,cs),
(400,765,o),
(351,780,o),
(300,780,cs),
(240,780,o),
(190,761,o),
(150,724,cs),
(109,685,o),
(86,634,o),
(86,580,cs),
(86,500,o),
(132,437,o),
(227,386,c),
(115,332,o),
(59,263,o),
(59,180,cs),
(59,73,o),
(164,-10,o),
(300,-10,cs),
(439,-10,o),
(545,86,o),
(545,212,cs),
(545,303,o),
(491,377,o),
(385,433,c)
);
},
{
closed = 1;
nodes = (
(208,526,o),
(172,566,o),
(172,619,cs),
(172,688,o),
(221,735,o),
(295,735,cs),
(374,735,o),
(433,676,o),
(433,598,cs),
(433,544,o),
(400,492,o),
(343,454,c),
(296,479,ls)
);
}
);
width = 606;
}
);
unicode = 56;
},
{
glyphname = nine;
layers = (
{
layerId = m001;
shapes = (
{
closed = 1;
nodes = (
(57,369,o),
(159,262,o),
(294,262,cs),
(361,262,o),
(409,290,o),
(452,352,c),
(455,350,l),
(455,170,o),
(386,35,o),
(294,35,cs),
(192,35,o),
(224,144,o),
(146,144,cs),
(113,144,o),
(92,124,o),
(92,92,cs),
(92,35,o),
(169,-10,o),
(265,-10,cs),
(439,-10,o),
(582,190,o),
(582,433,cs),
(582,637,o),
(475,780,o),
(322,780,cs),
(175,780,o),
(57,661,o),
(57,511,c)
);
},
{
closed = 1;
nodes = (
(413,349,o),
(369,311,o),
(308,311,cs),
(226,311,o),
(182,382,o),
(182,515,cs),
(182,665,o),
(226,735,o),
(318,735,cs),
(409,735,o),
(457,651,o),
(457,487,c),
(457,438,l)
);
}
);
width = 643;
}
);
unicode = 57;
},
{
glyphname = fraction;
layers = (
{
layerId = m001;
shapes = (
{
closed = 1;
nodes = (
(273,770,l),
(-280,0,l),
(-223,0,l),
(321,770,l)
);
}
);
width = 40;
}
);
unicode = 8260;
},
{
glyphname = onehalf;
layers = (
{
layerId = m001;
shapes = (
{
closed = 1;
nodes = (
(584,770,l),
(31,0,l),
(88,0,l),
(632,770,l)
);
},
{
pos = (72,0);
ref = onesuperior;
},
{
pos = (335,0);
ref = twoinferior;
}
);
width = 675;
}
);
unicode = 189;
},
{
glyphname = onethird;
layers = (
{
layerId = m001;
shapes = (
{
closed = 1;
nodes = (
(584,770,l),
(31,0,l),
(88,0,l),
(632,770,l)
);
},
{
pos = (72,0);
ref = onesuperior;
},
{
pos = (337,0);
ref = threeinferior;
}
);
width = 673;
}
);
unicode = 8531;
},
{
glyphname = twothirds;
layers = (
{
layerId = m001;
shapes = (
{
closed = 1;
nodes = (
(594,770,l),
(41,0,l),
(98,0,l),
(642,770,l)
);
},
{
pos = (347,0);
ref = threeinferior;
},
{
pos = (49,0);
ref = twosuperior;
}
);
width = 676;
}
);
unicode = 8532;
},
{
glyphname = onequarter;
layers = (
{
layerId = m001;
shapes = (
{
closed = 1;
nodes = (
(584,770,l),
(31,0,l),
(88,0,l),
(632,770,l)
);
},
{
pos = (72,0);
ref = onesuperior;
},
{
pos = (333,0);
ref = fourinferior;
}
);
width = 669;
}
);
unicode = 188;
},
{
glyphname = threequarters;
layers = (
{
layerId = m001;
shapes = (
{
closed = 1;
nodes = (
(591,770,l),
(38,0,l),
(95,0,l),
(639,770,l)
);
},
{
pos = (340,0);
ref = fourinferior;
},
{
pos = (55,0);
ref = threesuperior;
}
);
width = 671;
}
);
unicode = 190;
},
{
glyphname = oneeighth;
layers = (
{
layerId = m001;
shapes = (
{
closed = 1;
nodes = (
(584,770,l),
(31,0,l),
(88,0,l),
(632,770,l)
);
},
{
pos = (72,0);
ref = onesuperior;
},
{
pos = (336,0);
ref = eightinferior;
}
);
width = 673;
}
);
unicode = 8539;
},
{
glyphname = threeeighths;
layers = (
{
layerId = m001;
shapes = (
{
closed = 1;
nodes = (
(592,770,l),
(39,0,l),
(96,0,l),
(640,770,l)
);
},
{
pos = (344,0);
ref = eightinferior;
},
{
pos = (46,0);
ref = threesuperior;
}
);
width = 674;
}
);
unicode = 8540;
},
{
glyphname = fiveeighths;
layers = (
{
layerId = m001;
shapes = (
{
closed = 1;
nodes = (
(589,770,l),
(36,0,l),
(93,0,l),
(637,770,l)
);
},
{
pos = (341,0);
ref = eightinferior;
},
{
pos = (55,0);
ref = fivesuperior;
}
);
width = 672;
}
);
unicode = 8541;
},
{
glyphname = seveneighths;
layers = (
{
layerId = m001;
shapes = (
{
closed = 1;
nodes = (
(585,770,l),
(32,0,l),
(89,0,l),
(633,770,l)
);
},
{
pos = (337,0);
ref = eightinferior;
},
{
pos = (88,0);
ref = sevensuperior;
}
);
width = 674;
}
);
unicode = 8542;
},
{
glyphname = zeroinferior;
layers = (
{
layerId = m001;
shapes = (
{
closed = 1;
nodes = (
(90,306,o),
(37,236,o),
(37,146,cs),
(37,59,o),
(90,-10,o),
(155,-10,cs),
(220,-10,o),
(273,59,o),
(273,146,cs),
(273,236,o),
(220,306,o),
(155,306,cs)
);
},
{
closed = 1;
nodes = (
(116,15,o),
(94,44,o),
(94,144,cs),
(94,249,o),
(116,281,o),
(155,281,cs),
(194,281,o),
(216,249,o),
(216,144,cs),
(216,44,o),
(193,15,o),
(155,15,cs)
);
}
);
width = 310;
}
);
unicode = 8320;
},
{
glyphname = oneinferior;
layers = (
{
layerId = m001;
shapes = (
{
closed = 1;
nodes = (
(119,303,o),
(87,296,o),
(59,295,c),
(59,275,l),
(86,275,o),
(99,273,o),
(101,262,cs),
(103,257,o),
(103,235,o),
(103,204,cs),
(103,67,ls),
(103,29,o),
(97,22,o),
(61,20,c),
(61,0,l),
(189,0,l),
(189,20,l),
(153,21,o),
(147,29,o),
(147,70,cs),
(147,312,l)
);
}
);
width = 246;
}
);
unicode = 8321;
},
{
glyphname = twoinferior;
layers = (
{
layerId = m001;
shapes = (
{
closed = 1;
nodes = (
(175,101,o),
(238,160,o),
(238,226,cs),
(238,276,o),
(196,312,o),
(137,312,cs),
(80,312,o),
(38,277,o),
(38,229,cs),
(38,194,o),
(60,169,o),
(89,169,cs),
(109,169,o),
(123,180,o),
(125,195,c),
(99,195,o),
(81,212,o),
(81,238,cs),
(81,267,o),
(102,289,o),
(130,289,cs),
(164,289,o),
(185,265,o),
(185,226,cs),
(185,170,o),
(156,122,o),
(34,13,c),
(34,0,l),
(235,0,l),
(250,85,l),
(230,85,l),
(219,48,o),
(208,39,o),
(182,39,cs),
(97,39,l),
(97,43,l)
);
}
);
width = 285;
}
);
unicode = 8322;
},
{
glyphname = threeinferior;
layers = (
{
layerId = m001;
shapes = (
{
closed = 1;
nodes = (
(186,123,o),
(167,147,o),
(135,147,c),
(127,143,o),
(116,140,o),
(108,140,cs),
(97,140,o),
(90,147,o),
(90,156,cs),
(90,165,o),
(97,170,o),
(107,170,cs),
(114,170,o),
(124,168,o),
(132,165,c),
(160,165,o),
(179,192,o),
(179,233,cs),
(179,268,o),
(164,284,o),
(132,284,cs),
(107,284,o),
(92,272,o),
(92,253,cs),
(92,238,o),
(103,227,o),
(120,227,c),
(118,216,o),
(103,207,o),
(87,207,cs),
(64,207,o),
(47,226,o),
(47,250,cs),
(47,284,o),
(81,306,o),
(132,306,cs),
(193,306,o),
(232,278,o),
(232,235,cs),
(232,199,o),
(204,169,o),
(167,161,c),
(167,157,l),
(210,147,o),
(242,117,o),
(242,77,cs),
(242,27,o),
(195,-10,o),
(131,-10,cs),
(75,-10,o),
(35,20,o),
(35,61,cs),
(35,90,o),
(55,112,o),
(81,112,cs),
(98,112,o),
(114,102,o),
(117,89,c),
(97,89,o),
(82,75,o),
(82,55,cs),
(82,31,o),
(102,14,o),
(130,14,cs),
(166,14,o),
(186,37,o),
(186,80,cs)
);
}
);
width = 280;
}
);
unicode = 8323;
},
{
glyphname = fourinferior;
layers = (
{
layerId = m001;
shapes = (
{
closed = 1;
nodes = (
(161,312,l),
(183,312,l),
(183,96,l),
(217,97,o),
(220,101,o),
(220,132,c),
(239,132,l),
(239,38,l),
(220,38,l),
(220,67,o),
(216,72,o),
(183,73,c),
(183,65,ls),
(183,24,o),
(188,16,o),
(215,15,c),
(215,0,l),
(92,0,l),
(92,15,l),
(128,17,o),
(134,24,o),
(134,62,cs),
(134,72,l),
(20,72,l),
(20,97,l)
);
},
{
closed = 1;
nodes = (
(130,227,l),
(45,97,l),
(134,97,l),
(134,227,l)
);
}
);
width = 274;
}
);
unicode = 8324;
},
{
glyphname = fiveinferior;
layers = (
{
layerId = m001;
shapes = (
{
closed = 1;
nodes = (
(146,258,ls),
(182,258,o),
(207,276,o),
(213,306,c),
(209,306,l),
(202,303,o),
(171,299,o),
(148,299,cs),
(128,299,o),
(110,302,o),
(101,306,c),
(59,148,ls),
(58,145,o),
(57,139,o),
(57,137,cs),
(57,132,o),
(60,130,o),
(66,130,cs),
(73,130,o),
(77,133,o),
(81,141,cs),
(95,166,o),
(108,176,o),
(129,176,cs),
(158,176,o),
(171,156,o),
(171,113,cs),
(171,52,o),
(144,13,o),
(100,13,cs),
(82,13,o),
(73,19,o),
(66,36,cs),
(54,64,o),
(49,68,o),
(38,68,cs),
(28,68,o),
(21,61,o),
(21,45,cs),
(21,12,o),
(53,-10,o),
(101,-10,cs),
(172,-10,o),
(226,39,o),
(226,103,cs),
(226,162,o),
(189,198,o),
(135,198,cs),
(118,198,o),
(104,194,o),
(95,187,c),
(92,189,l),
(110,258,l)
);
}
);
width = 262;
}
);
unicode = 8325;
},
{
glyphname = sixinferior;
layers = (
{
layerId = m001;
shapes = (
{
closed = 1;
nodes = (
(257,154,o),
(214,197,o),
(157,197,cs),
(130,197,o),
(109,186,o),
(92,161,c),
(88,162,l),
(88,231,o),
(118,283,o),
(152,283,cs),
(196,283,o),
(182,244,o),
(216,244,cs),
(229,244,o),
(238,252,o),
(238,265,cs),
(238,288,o),
(205,306,o),
(163,306,cs),
(94,306,o),
(37,226,o),
(37,129,cs),
(37,47,o),
(81,-10,o),
(146,-10,cs),
(207,-10,o),
(257,38,o),
(257,98,cs)
);
},
{
closed = 1;
nodes = (
(109,159,o),
(127,173,o),
(151,173,cs),
(184,173,o),
(202,146,o),
(202,96,cs),
(202,39,o),
(184,13,o),
(147,13,cs),
(111,13,o),
(92,45,o),
(92,107,cs),
(92,127,l)
);
}
);
width = 292;
}
);
unicode = 8326;
},
{
glyphname = seveninferior;
layers = (
{
layerId = m001;
shapes = (
{
closed = 1;
nodes = (
(67,44,o),
(56,26,o),
(56,12,cs),
(56,-1,o),
(65,-10,o),
(79,-10,cs),
(95,-10,o),
(108,6,o),
(124,48,cs),
(158,137,o),
(167,166,o),
(226,294,c),
(226,302,l),
(104,302,ls),
(78,302,o),
(73,304,o),
(73,314,cs),
(73,317,o),
(74,324,o),
(75,326,c),
(54,326,l),
(26,214,l),
(46,214,l),
(52,230,ls),
(63,259,o),
(69,262,o),
(111,262,cs),
(185,262,l),
(131,158,ls)
);
}
);
width = 238;
}
);
unicode = 8327;
},
{
glyphname = eightinferior;
layers = (
{
layerId = m001;
shapes = (
{
closed = 1;
nodes = (
(190,103,o),
(200,87,o),
(200,62,cs),
(200,33,o),
(172,13,o),
(142,13,cs),
(104,13,o),
(80,32,o),
(80,68,cs),
(80,100,o),
(98,125,o),
(126,140,c),
(150,126,ls)
);
},
{
closed = 1;
nodes = (
(206,184,o),
(229,202,o),
(229,236,cs),
(229,258,o),
(217,277,o),
(199,289,cs),
(182,301,o),
(159,306,o),
(138,306,cs),
(115,306,o),
(90,300,o),
(73,284,cs),
(57,269,o),
(47,248,o),
(47,227,cs),
(47,188,o),
(73,165,o),
(104,148,c),
(69,132,o),
(37,107,o),
(37,65,cs),
(37,14,o),
(93,-10,o),
(138,-10,cs),
(192,-10,o),
(241,24,o),
(241,79,cs),
(241,121,o),
(212,149,o),
(177,167,c)
);
},
{
closed = 1;
nodes = (
(100,205,o),
(87,219,o),
(87,244,cs),
(87,264,o),
(105,283,o),
(137,283,cs),
(171,283,o),
(191,259,o),
(191,230,cs),
(191,210,o),
(173,187,o),
(155,176,c),
(136,186,ls)
);
}
);
width = 280;
}
);
unicode = 8328;
},
{
glyphname = nineinferior;
layers = (
{
layerId = m001;
shapes = (
{
closed = 1;
nodes = (
(35,142,o),
(78,99,o),
(135,99,cs),
(162,99,o),
(183,110,o),
(200,135,c),
(204,134,l),
(204,65,o),
(174,13,o),
(140,13,cs),
(96,13,o),
(110,52,o),
(76,52,cs),
(63,52,o),
(54,44,o),
(54,31,cs),
(54,8,o),
(87,-10,o),
(129,-10,cs),
(198,-10,o),
(255,70,o),
(255,167,cs),
(255,249,o),
(211,306,o),
(146,306,cs),
(85,306,o),
(35,258,o),
(35,198,cs)
);
},
{
closed = 1;
nodes = (
(183,137,o),
(165,123,o),
(141,123,cs),
(108,123,o),
(90,150,o),
(90,200,cs),
(90,257,o),
(108,283,o),
(145,283,cs),
(181,283,o),
(200,251,o),
(200,189,cs),
(200,169,l)
);
}
);
width = 292;
}
);
unicode = 8329;
},
{
glyphname = zerosuperior;
layers = (
{
layerId = m001;
shapes = (
{
closed = 1;
nodes = (
(90,780,o),
(37,710,o),
(37,620,cs),
(37,533,o),
(90,464,o),
(155,464,cs),
(220,464,o),
(273,533,o),
(273,620,cs),
(273,710,o),
(220,780,o),
(155,780,cs)
);
},
{
closed = 1;
nodes = (
(116,489,o),
(94,518,o),
(94,618,cs),
(94,723,o),
(116,755,o),
(155,755,cs),
(194,755,o),
(216,723,o),
(216,618,cs),
(216,518,o),
(193,489,o),
(155,489,cs)
);
}
);
width = 310;
}
);
unicode = 8304;
},
{
glyphname = onesuperior;
layers = (
{
layerId = m001;
shapes = (
{
closed = 1;
nodes = (
(119,771,o),
(87,764,o),
(59,763,c),
(59,743,l),
(86,743,o),
(99,741,o),
(101,730,cs),
(103,725,o),
(103,703,o),
(103,672,cs),
(103,535,ls),
(103,497,o),
(97,490,o),
(61,488,c),
(61,468,l),
(189,468,l),
(189,488,l),
(153,489,o),
(147,497,o),
(147,538,cs),
(147,780,l)
);
}
);
width = 246;
}
);
unicode = 185;
},
{
glyphname = twosuperior;
layers = (
{
layerId = m001;
shapes = (
{
closed = 1;
nodes = (
(175,569,o),
(238,628,o),
(238,694,cs),
(238,744,o),
(196,780,o),
(137,780,cs),
(80,780,o),
(38,745,o),
(38,697,cs),
(38,662,o),
(60,637,o),
(89,637,cs),
(109,637,o),
(123,648,o),
(125,663,c),
(99,663,o),
(81,680,o),
(81,706,cs),
(81,735,o),
(102,757,o),
(130,757,cs),
(164,757,o),
(185,733,o),
(185,694,cs),
(185,638,o),
(156,590,o),
(34,481,c),
(34,468,l),
(235,468,l),
(250,553,l),
(230,553,l),
(219,516,o),
(208,507,o),
(182,507,cs),
(97,507,l),
(97,511,l)
);
}
);
width = 285;
}
);
unicode = 178;
},
{
glyphname = threesuperior;
layers = (
{
layerId = m001;
shapes = (
{
closed = 1;
nodes = (
(186,597,o),
(167,621,o),
(135,621,c),
(127,617,o),
(116,614,o),
(108,614,cs),
(97,614,o),
(90,621,o),
(90,630,cs),
(90,639,o),
(97,644,o),
(107,644,cs),
(114,644,o),
(124,642,o),
(132,639,c),
(160,639,o),
(179,666,o),
(179,707,cs),
(179,742,o),
(164,758,o),
(132,758,cs),
(107,758,o),
(92,746,o),
(92,727,cs),
(92,712,o),
(103,701,o),
(120,701,c),
(118,690,o),
(103,681,o),
(87,681,cs),
(64,681,o),
(47,700,o),
(47,724,cs),
(47,758,o),
(81,780,o),
(132,780,cs),
(193,780,o),
(232,752,o),
(232,709,cs),
(232,673,o),
(204,643,o),
(167,635,c),
(167,631,l),
(210,621,o),
(242,591,o),
(242,551,cs),
(242,501,o),
(195,464,o),
(131,464,cs),
(75,464,o),
(35,494,o),
(35,535,cs),
(35,564,o),
(55,586,o),
(81,586,cs),
(98,586,o),
(114,576,o),
(117,563,c),
(97,563,o),
(82,549,o),
(82,529,cs),
(82,505,o),
(102,488,o),
(130,488,cs),
(166,488,o),
(186,511,o),
(186,554,cs)
);
}
);
width = 279;
}
);
unicode = 179;
},
{
glyphname = foursuperior;
layers = (
{
layerId = m001;
shapes = (
{
closed = 1;
nodes = (
(161,780,l),
(183,780,l),
(183,564,l),
(217,565,o),
(220,569,o),
(220,600,c),
(239,600,l),
(239,506,l),
(220,506,l),
(220,535,o),
(216,540,o),
(183,541,c),
(183,533,ls),
(183,492,o),
(188,484,o),
(215,483,c),
(215,468,l),
(92,468,l),
(92,483,l),
(128,485,o),
(134,492,o),
(134,530,cs),
(134,540,l),
(20,540,l),
(20,565,l)
);
},
{
closed = 1;
nodes = (
(130,695,l),
(45,565,l),
(134,565,l),
(134,695,l)
);
}
);
width = 274;
}
);
unicode = 8308;
},
{
glyphname = fivesuperior;
layers = (
{
layerId = m001;
shapes = (
{
closed = 1;
nodes = (
(146,732,ls),
(182,732,o),
(207,750,o),
(213,780,c),
(209,780,l),
(202,777,o),
(171,773,o),
(148,773,cs),
(128,773,o),
(110,776,o),
(101,780,c),
(59,622,ls),
(58,619,o),
(57,613,o),
(57,611,cs),
(57,606,o),
(60,604,o),
(66,604,cs),
(73,604,o),
(77,607,o),
(81,615,cs),
(95,640,o),
(108,650,o),
(129,650,cs),
(158,650,o),
(171,630,o),
(171,587,cs),
(171,526,o),
(144,487,o),
(100,487,cs),
(82,487,o),
(73,493,o),
(66,510,cs),
(54,538,o),
(49,542,o),
(38,542,cs),
(28,542,o),
(21,535,o),
(21,519,cs),
(21,486,o),
(53,464,o),
(101,464,cs),
(172,464,o),
(226,513,o),
(226,577,cs),
(226,636,o),
(189,672,o),
(135,672,cs),
(118,672,o),
(104,668,o),
(95,661,c),
(92,663,l),
(110,732,l)
);
}
);
width = 261;
}
);
unicode = 8309;
},
{
glyphname = sixsuperior;
layers = (
{
layerId = m001;
shapes = (
{
closed = 1;
nodes = (
(257,628,o),
(214,671,o),
(157,671,cs),
(130,671,o),
(109,660,o),
(92,635,c),
(88,636,l),
(88,705,o),
(118,757,o),
(152,757,cs),
(196,757,o),
(182,718,o),
(216,718,cs),
(229,718,o),
(238,726,o),
(238,739,cs),
(238,762,o),
(205,780,o),
(163,780,cs),
(94,780,o),
(37,700,o),
(37,603,cs),
(37,521,o),
(81,464,o),
(146,464,cs),
(207,464,o),
(257,512,o),
(257,572,cs)
);
},
{
closed = 1;
nodes = (
(109,633,o),
(127,647,o),
(151,647,cs),
(184,647,o),
(202,620,o),
(202,570,cs),
(202,513,o),
(184,487,o),
(147,487,cs),
(111,487,o),
(92,519,o),
(92,581,cs),
(92,601,l)
);
}
);
width = 292;
}
);
unicode = 8310;
},
{
glyphname = sevensuperior;
layers = (
{
layerId = m001;
shapes = (
{
closed = 1;
nodes = (
(67,512,o),
(56,494,o),
(56,480,cs),
(56,467,o),
(65,458,o),
(79,458,cs),
(95,458,o),
(108,474,o),
(124,516,cs),
(158,605,o),
(167,634,o),
(226,762,c),
(226,770,l),
(104,770,ls),
(78,770,o),
(73,772,o),
(73,782,cs),
(73,785,o),
(74,792,o),
(75,794,c),
(54,794,l),
(26,682,l),
(46,682,l),
(52,698,ls),
(63,727,o),
(69,730,o),
(111,730,cs),
(185,730,l),
(131,626,ls)
);
}
);
width = 238;
}
);
unicode = 8311;
},
{
glyphname = eightsuperior;
layers = (
{
layerId = m001;
shapes = (
{
closed = 1;
nodes = (
(190,577,o),
(200,561,o),
(200,536,cs),
(200,507,o),
(172,487,o),
(142,487,cs),
(104,487,o),
(80,506,o),
(80,542,cs),
(80,574,o),
(98,599,o),
(126,614,c),
(150,600,ls)
);
},
{
closed = 1;
nodes = (
(206,658,o),
(229,676,o),
(229,710,cs),
(229,732,o),
(217,751,o),
(199,763,cs),
(182,775,o),
(159,780,o),
(138,780,cs),
(115,780,o),
(90,774,o),
(73,758,cs),
(57,743,o),
(47,722,o),
(47,701,cs),
(47,662,o),
(73,639,o),
(104,622,c),
(69,606,o),
(37,581,o),
(37,539,cs),
(37,488,o),
(93,464,o),
(138,464,cs),
(192,464,o),
(241,498,o),
(241,553,cs),
(241,595,o),
(212,623,o),
(177,641,c)
);
},
{
closed = 1;
nodes = (
(100,679,o),
(87,693,o),
(87,718,cs),
(87,738,o),
(105,757,o),
(137,757,cs),
(171,757,o),
(191,733,o),
(191,704,cs),
(191,684,o),
(173,661,o),
(155,650,c),
(136,660,ls)
);
}
);
width = 278;
}
);
unicode = 8312;
},
{
glyphname = ninesuperior;
layers = (
{
layerId = m001;
shapes = (
{
closed = 1;
nodes = (
(35,616,o),
(78,573,o),
(135,573,cs),
(162,573,o),
(183,584,o),
(200,609,c),
(204,608,l),
(204,539,o),
(174,487,o),
(140,487,cs),
(96,487,o),
(110,526,o),
(76,526,cs),
(63,526,o),
(54,518,o),
(54,505,cs),
(54,482,o),
(87,464,o),
(129,464,cs),
(198,464,o),
(255,544,o),
(255,641,cs),
(255,723,o),
(211,780,o),
(146,780,cs),
(85,780,o),
(35,732,o),
(35,672,cs)
);
},
{
closed = 1;
nodes = (
(183,611,o),
(165,597,o),
(141,597,cs),
(108,597,o),
(90,624,o),
(90,674,cs),
(90,731,o),
(108,757,o),
(145,757,cs),
(181,757,o),
(200,725,o),
(200,663,cs),
(200,643,l)
);
}
);
width = 292;
}
);
unicode = 8313;
},
{
glyphname = .notdef;
layers = (
{
layerId = m001;
shapes = (
{
closed = 1;
nodes = (
(626,-260,l),
(626,970,l),
(130,970,l),
(130,-260,l)
);
},
{
closed = 1;
nodes = (
(515,911,l),
(515,-199,l),
(240,-199,l),
(240,911,l)
);
}
);
width = 756;
}
);
},
{
glyphname = period;
kernLeft = KERN_period_2ND;
kernRight = KERN_period_1ST;
layers = (
{
layerId = m001;
shapes = (
{
closed = 1;
nodes = (
(67,19,o),
(96,-10,o),
(132,-10,cs),
(169,-10,o),
(198,19,o),
(198,55,cs),
(198,92,o),
(169,121,o),
(132,121,cs),
(96,121,o),
(67,92,o),
(67,55,cs)
);
}
);
width = 265;
}
);
unicode = 46;
},
{
glyphname = comma;
kernLeft = KERN_period_2ND;
kernRight = KERN_period_1ST;
layers = (
{
layerId = m001;
shapes = (
{
closed = 1;
nodes = (
(172,-103,o),
(206,-53,o),
(206,21,cs),
(206,86,o),
(181,121,o),
(134,121,cs),
(94,121,o),
(67,96,o),
(67,59,cs),
(67,24,o),
(89,0,o),
(119,0,cs),
(130,0,o),
(141,3,o),
(149,8,c),
(149,-49,o),
(120,-93,o),
(49,-143,c),
(72,-175,l)
);
}
);
width = 273;
}
);
unicode = 44;
},
{
glyphname = colon;
kernLeft = KERN_colon;
kernRight = KERN_colon;
layers = (
{
layerId = m001;
shapes = (
{
closed = 1;
nodes = (
(77,19,o),
(106,-10,o),
(142,-10,cs),
(179,-10,o),
(208,19,o),
(208,55,cs),
(208,92,o),
(179,121,o),
(142,121,cs),
(106,121,o),
(77,92,o),
(77,55,cs)
);
},
{
closed = 1;
nodes = (
(77,345,o),
(106,316,o),
(142,316,cs),
(179,316,o),
(208,345,o),
(208,381,cs),
(208,418,o),
(179,447,o),
(142,447,cs),
(106,447,o),
(77,418,o),
(77,381,cs)
);
}
);
width = 285;
}
);
unicode = 58;
},
{
glyphname = semicolon;
kernLeft = KERN_colon;
kernRight = KERN_colon;
layers = (
{
layerId = m001;
shapes = (
{
closed = 1;
nodes = (
(89,345,o),
(118,316,o),
(154,316,cs),
(191,316,o),
(220,345,o),
(220,381,cs),
(220,418,o),
(191,447,o),
(154,447,cs),
(118,447,o),
(89,418,o),
(89,381,cs)
);
},
{
closed = 1;
nodes = (
(194,-103,o),
(228,-53,o),
(228,21,cs),
(228,86,o),
(203,121,o),
(156,121,cs),
(116,121,o),
(89,96,o),
(89,59,cs),
(89,24,o),
(111,0,o),
(141,0,cs),
(152,0,o),
(163,3,o),
(171,8,c),
(171,-49,o),
(142,-93,o),
(71,-143,c),
(94,-175,l)
);
}
);
width = 311;
}
);
unicode = 59;
},
{
glyphname = ellipsis;
kernLeft = KERN_period_2ND;
layers = (
{
layerId = m001;
shapes = (
{
closed = 1;
nodes = (
(67,19,o),
(96,-10,o),
(132,-10,cs),
(169,-10,o),
(198,19,o),
(198,55,cs),
(198,92,o),
(169,121,o),
(132,121,cs),
(96,121,o),
(67,92,o),
(67,55,cs)
);
},
{
closed = 1;
nodes = (
(283,19,o),
(312,-10,o),
(348,-10,cs),
(385,-10,o),
(414,19,o),
(414,55,cs),
(414,92,o),
(385,121,o),
(348,121,cs),
(312,121,o),
(283,92,o),
(283,55,cs)
);
},
{
closed = 1;
nodes = (
(499,19,o),
(528,-10,o),
(564,-10,cs),
(601,-10,o),
(630,19,o),
(630,55,cs),
(630,92,o),
(601,121,o),
(564,121,cs),
(528,121,o),
(499,92,o),
(499,55,cs)
);
}
);
width = 697;
}
);
unicode = 8230;
},
{
glyphname = exclam;
layers = (
{
layerId = m001;
shapes = (
{
closed = 1;
nodes = (
(89,19,o),
(118,-10,o),
(154,-10,cs),
(191,-10,o),
(220,19,o),
(220,55,cs),
(220,92,o),
(191,121,o),
(154,121,cs),
(118,121,o),
(89,92,o),
(89,55,cs)
);
},
{
closed = 1;
nodes = (
(178,420,o),
(188,492,o),
(204,580,cs),
(219,660,o),
(219,677,o),
(219,714,cs),
(219,750,o),
(194,780,o),
(154,780,cs),
(114,780,o),
(89,750,o),
(89,714,cs),
(89,674,o),
(90,660,o),
(104,584,cs),
(121,492,o),
(130,421,o),
(130,207,c),
(178,207,l)
);
}
);
width = 308;
}
);
unicode = 33;
},
{
glyphname = exclamdown;
layers = (
{
layerId = m001;
shapes = (
{
closed = 1;
nodes = (
(89,678,o),
(118,649,o),
(154,649,cs),
(191,649,o),
(220,678,o),
(220,715,cs),
(220,751,o),
(191,780,o),
(154,780,cs),
(118,780,o),
(89,751,o),
(89,715,cs)
);
},
{
closed = 1;
nodes = (
(130,349,o),
(121,278,o),
(104,186,cs),
(90,110,o),
(89,96,o),
(89,56,cs),
(89,20,o),
(114,-10,o),
(154,-10,cs),
(194,-10,o),
(219,20,o),
(219,56,cs),
(219,93,o),
(219,110,o),
(204,190,cs),
(188,278,o),
(178,350,o),
(178,563,c),
(130,563,l)
);
}
);
width = 308;
}
);
unicode = 161;
},
{
glyphname = question;
layers = (
{
layerId = m001;
shapes = (
{
closed = 1;
nodes = (
(180,370,l),
(282,370,o),
(341,429,o),
(341,530,cs),
(341,661,o),
(241,780,o),
(131,780,cs),
(91,780,o),
(69,761,o),
(69,724,cs),
(69,692,o),
(91,670,o),
(122,670,cs),
(144,670,o),
(173,681,o),
(197,681,cs),
(245,681,o),
(284,629,o),
(284,565,cs),
(284,500,o),
(240,466,o),
(154,466,cs),
(125,466,l),
(125,237,l),
(180,237,l)
);
},
{
closed = 1;
nodes = (
(84,19,o),
(113,-10,o),
(149,-10,cs),
(186,-10,o),
(215,19,o),
(215,55,cs),
(215,92,o),
(186,121,o),
(149,121,cs),
(113,121,o),
(84,92,o),
(84,55,cs)
);
}
);
width = 399;
}
);
unicode = 63;
},
{
glyphname = questiondown;
layers = (
{
layerId = m001;
shapes = (
{
closed = 1;
nodes = (
(219,400,l),
(117,400,o),
(58,341,o),
(58,240,cs),
(58,109,o),
(158,-10,o),
(268,-10,cs),
(308,-10,o),
(330,9,o),
(330,46,cs),
(330,78,o),
(308,100,o),
(277,100,cs),
(255,100,o),
(226,89,o),
(202,89,cs),
(154,89,o),
(115,141,o),
(115,205,cs),
(115,270,o),
(159,304,o),
(245,304,cs),
(274,304,l),
(274,533,l),
(219,533,l)
);
},
{
closed = 1;
nodes = (
(315,751,o),
(286,780,o),
(250,780,cs),
(213,780,o),
(184,751,o),
(184,715,cs),
(184,678,o),
(213,649,o),
(250,649,cs),
(286,649,o),
(315,678,o),
(315,715,c)
);
}
);
width = 399;
}
);
unicode = 191;
},
{
glyphname = periodcentered;
layers = (
{
layerId = m001;
shapes = (
{
closed = 1;
nodes = (
(77,238,o),
(106,209,o),
(142,209,cs),
(179,209,o),
(208,238,o),
(208,274,cs),
(208,311,o),
(179,340,o),
(142,340,cs),
(106,340,o),
(77,311,o),
(77,274,cs)
);
}
);
width = 285;
}
);
unicode = 183;
},
{
glyphname = bullet;
layers = (
{
layerId = m001;
shapes = (
{
closed = 1;
nodes = (
(322,216,o),
(392,284,o),
(392,369,cs),
(392,454,o),
(322,521,o),
(240,521,cs),
(155,521,o),
(84,454,o),
(84,369,cs),
(84,284,o),
(155,216,o),
(235,216,cs)
);
}
);
width = 476;
}
);
unicode = 8226;
},
{
glyphname = asterisk;
layers = (
{
layerId = m001;
shapes = (
{
closed = 1;
nodes = (
(272,457,o),
(301,417,o),
(301,394,cs),
(301,370,o),
(281,349,o),
(257,349,cs),
(229,349,o),
(211,371,o),
(211,398,cs),
(211,417,o),
(240,453,o),
(242,539,c),
(133,478,o),
(156,435,o),
(109,435,cs),
(84,435,o),
(63,456,o),
(63,481,cs),
(63,543,o),
(137,514,o),
(227,565,c),
(146,610,o),
(114,595,o),
(89,610,cs),
(73,619,o),
(65,634,o),
(65,650,cs),
(65,677,o),
(88,695,o),
(112,695,cs),
(147,695,o),
(170,632,o),
(243,591,c),
(243,631,o),
(237,667,o),
(226,693,c),
(219,704,o),
(213,723,o),
(213,734,cs),
(213,760,o),
(232,780,o),
(258,780,cs),
(284,780,o),
(304,760,o),
(304,734,cs),
(304,723,o),
(297,706,o),
(291,693,cs),
(278,665,o),
(274,633,o),
(273,591,c),
(370,648,o),
(360,695,o),
(404,695,cs),
(429,695,o),
(451,675,o),
(451,650,cs),
(451,586,o),
(397,627,o),
(289,565,c),
(388,507,o),
(453,547,o),
(453,480,cs),
(453,453,o),
(430,436,o),
(406,436,cs),
(390,436,o),
(375,442,o),
(355,474,cs),
(343,493,o),
(312,519,o),
(272,539,c)
);
}
);
width = 516;
}
);
unicode = 42;
},
{
glyphname = numbersign;
layers = (
{
layerId = m001;
shapes = (
{
closed = 1;
nodes = (
(461,305,l),
(484,475,l),
(619,475,l),
(627,525,l),
(493,525,l),
(527,770,l),
(467,770,l),
(433,525,l),
(282,525,l),
(317,770,l),
(257,770,l),
(222,525,l),
(78,525,l),
(70,475,l),
(213,475,l),
(189,305,l),
(47,305,l),
(39,255,l),
(179,255,l),
(141,0,l),
(201,0,l),
(239,255,l),
(390,255,l),
(355,0,l),
(414,0,l),
(451,255,l),
(590,255,l),
(598,305,l)
);
},
{
closed = 1;
nodes = (
(400,305,l),
(249,305,l),
(273,475,l),
(423,475,l)
);
}
);
width = 666;
}
);
unicode = 35;
},
{
glyphname = slash;
layers = (
{
layerId = m001;
shapes = (
{
closed = 1;
nodes = (
(382,770,l),
(29,0,l),
(87,0,l),
(431,770,l)
);
}
);
width = 460;
}
);
unicode = 47;
},
{
glyphname = backslash;
layers = (
{
layerId = m001;
shapes = (
{
closed = 1;
nodes = (
(431,0,l),
(78,770,l),
(29,770,l),
(373,0,l)
);
}
);
width = 460;
}
);
unicode = 92;
},
{
glyphname = hyphen;
kernLeft = KERN_hyphen;
kernRight = KERN_hyphen;
layers = (
{
layerId = m001;
shapes = (
{
closed = 1;
nodes = (
(386,331,l),
(77,331,l),
(77,248,l),
(386,248,l)
);
}
);
width = 463;
}
);
unicode = 45;
},
{
glyphname = softhyphen;
kernLeft = KERN_hyphen;
kernRight = KERN_hyphen;
layers = (
{
layerId = m001;
shapes = (
{
closed = 1;
nodes = (
(386,331,l),
(77,331,l),
(77,248,l),
(386,248,l)
);
}
);
width = 463;
}
);
unicode = 173;
},
{
glyphname = endash;
kernLeft = KERN_hyphen;
kernRight = KERN_hyphen;
layers = (
{
layerId = m001;
shapes = (
{
closed = 1;
nodes = (
(647,331,l),
(77,331,l),
(77,248,l),
(647,248,l)
);
}
);
width = 724;
}
);
unicode = 8211;
},
{
glyphname = emdash;
kernLeft = KERN_hyphen;
kernRight = KERN_hyphen;
layers = (
{
layerId = m001;
shapes = (
{
closed = 1;
nodes = (
(1035,331,l),
(77,331,l),
(77,248,l),
(1035,248,l)
);
}
);
width = 1112;
}
);
unicode = 8212;
},
{
glyphname = underscore;
layers = (
{
layerId = m001;
shapes = (
{
closed = 1;
nodes = (
(646,-75,l),
(76,-75,l),
(76,-143,l),
(646,-143,l)
);
}
);
width = 722;
}
);
unicode = 95;
},
{
glyphname = parenleft;
layers = (
{
layerId = m001;
shapes = (
{
closed = 1;
nodes = (
(127,677,o),
(47,503,o),
(47,323,cs),
(47,139,o),
(130,-39,o),
(289,-194,c),
(320,-166,l),
(197,-29,o),
(147,120,o),
(147,340,cs),
(147,521,o),
(181,626,o),
(312,803,c),
(281,831,l)
);
}
);
width = 332;
}
);
unicode = 40;
},
{
glyphname = parenright;
layers = (
{
layerId = m001;
shapes = (
{
closed = 1;
nodes = (
(151,626,o),
(185,521,o),
(185,340,cs),
(185,120,o),
(135,-29,o),
(12,-166,c),
(43,-194,l),
(202,-39,o),
(285,139,o),
(285,323,cs),
(285,503,o),
(205,677,o),
(51,831,c),
(20,803,l)
);
}
);
width = 332;
}
);
unicode = 41;
},
{
glyphname = braceleft;
layers = (
{
layerId = m001;
shapes = (
{
closed = 1;
nodes = (
(208,278,o),
(191,326,o),
(110,340,c),
(110,345,l),
(195,363,o),
(208,419,o),
(208,501,cs),
(208,680,ls),
(208,751,o),
(228,791,o),
(290,807,c),
(290,830,l),
(148,830,o),
(118,786,o),
(118,659,cs),
(118,484,ls),
(118,408,o),
(104,370,o),
(29,355,c),
(29,330,l),
(97,324,o),
(118,260,o),
(118,200,cs),
(118,4,ls),
(118,-117,o),
(160,-150,o),
(294,-150,c),
(294,-128,l),
(226,-109,o),
(208,-72,o),
(208,0,cs),
(208,198,ls)
);
}
);
width = 335;
}
);
unicode = 123;
},
{
glyphname = braceright;
layers = (
{
layerId = m001;
shapes = (
{
closed = 1;
nodes = (
(127,-72,o),
(109,-109,o),
(41,-128,c),
(41,-150,l),
(175,-150,o),
(217,-117,o),
(217,4,cs),
(217,200,ls),
(217,260,o),
(238,324,o),
(306,330,c),
(306,355,l),
(231,370,o),
(217,408,o),
(217,484,cs),
(217,659,ls),
(217,786,o),
(187,830,o),
(45,830,c),
(45,807,l),
(107,791,o),
(127,751,o),
(127,680,cs),
(127,501,ls),
(127,419,o),
(140,363,o),
(225,345,c),
(225,340,l),
(144,326,o),
(127,278,o),
(127,198,cs),
(127,0,l)
);
}
);
width = 335;
}
);
unicode = 125;
},
{
glyphname = bracketleft;
layers = (
{
layerId = m001;
shapes = (
{
closed = 1;
nodes = (
(348,820,l),
(107,820,l),
(107,-150,l),
(348,-150,l),
(348,-103,l),
(197,-103,l),
(197,773,l),
(348,773,l)
);
}
);
width = 371;
}
);
unicode = 91;
},
{
glyphname = bracketright;
layers = (
{
layerId = m001;
shapes = (
{
closed = 1;
nodes = (
(23,-150,l),
(264,-150,l),
(264,820,l),
(23,820,l),
(23,773,l),
(174,773,l),
(174,-103,l),
(23,-103,l)
);
}
);
width = 371;
}
);
unicode = 93;
},
{
glyphname = quotesinglbase;
kernLeft = KERN_period_2ND;
kernRight = KERN_period_1ST;
layers = (
{
layerId = m001;
shapes = (
{
closed = 1;
nodes = (
(180,-98,o),
(208,-56,o),
(208,12,cs),
(208,73,o),
(183,106,o),
(137,106,cs),
(96,106,o),
(69,81,o),
(69,45,cs),
(69,13,o),
(90,-10,o),
(121,-10,cs),
(132,-10,o),
(143,-7,o),
(151,-2,c),
(151,-53,o),
(127,-92,o),
(66,-138,c),
(89,-165,l)
);
}
);
width = 275;
}
);
unicode = 8218;
},
{
glyphname = quotedblbase;
kernLeft = KERN_period_2ND;
kernRight = KERN_period_1ST;
layers = (
{
layerId = m001;
shapes = (
{
closed = 1;
nodes = (
(180,-98,o),
(208,-56,o),
(208,12,cs),
(208,73,o),
(183,106,o),
(137,106,cs),
(96,106,o),
(69,81,o),
(69,45,cs),
(69,13,o),
(90,-10,o),
(121,-10,cs),
(132,-10,o),
(143,-7,o),
(151,-2,c),
(151,-53,o),
(127,-92,o),
(66,-138,c),
(89,-165,l)
);
},
{
closed = 1;
nodes = (
(372,-98,o),
(400,-56,o),
(400,12,cs),
(400,73,o),
(375,106,o),
(329,106,cs),
(288,106,o),
(261,81,o),
(261,45,cs),
(261,13,o),
(282,-10,o),
(313,-10,cs),
(324,-10,o),
(335,-7,o),
(343,-2,c),
(343,-53,o),
(319,-92,o),
(258,-138,c),
(281,-165,l)
);
}
);
width = 467;
}
);
unicode = 8222;
},
{
glyphname = quotedblleft;
kernLeft = KERN_quoteleft;
kernRight = KERN_quoteleft;
layers = (
{
layerId = m001;
shapes = (
{
closed = 1;
nodes = (
(276,763,o),
(248,721,o),
(248,653,cs),
(248,592,o),
(273,559,o),
(319,559,cs),
(360,559,o),
(387,584,o),
(387,620,cs),
(387,652,o),
(366,675,o),
(335,675,cs),
(324,675,o),
(313,672,o),
(305,667,c),
(305,718,o),
(329,757,o),
(390,803,c),
(367,830,l)
);
},
{
closed = 1;
nodes = (
(84,763,o),
(56,721,o),
(56,653,cs),
(56,592,o),
(81,559,o),
(127,559,cs),
(168,559,o),
(195,584,o),
(195,620,cs),
(195,652,o),
(174,675,o),
(143,675,cs),
(132,675,o),
(121,672,o),
(113,667,c),
(113,718,o),
(137,757,o),
(198,803,c),
(175,830,l)
);
}
);
width = 449;
}
);
unicode = 8220;
},
{
glyphname = quotedblright;
kernLeft = KERN_quoteright;
kernRight = KERN_quoteright;
layers = (
{
layerId = m001;
shapes = (
{
closed = 1;
nodes = (
(178,626,o),
(206,668,o),
(206,736,cs),
(206,797,o),
(181,830,o),
(135,830,cs),
(94,830,o),
(67,805,o),
(67,769,cs),
(67,737,o),
(88,714,o),
(119,714,cs),
(130,714,o),
(141,717,o),
(149,722,c),
(149,671,o),
(125,632,o),
(64,586,c),
(87,559,l)
);
},
{
closed = 1;
nodes = (
(370,626,o),
(398,668,o),
(398,736,cs),
(398,797,o),
(373,830,o),
(327,830,cs),
(286,830,o),
(259,805,o),
(259,769,cs),
(259,737,o),
(280,714,o),
(311,714,cs),
(322,714,o),
(333,717,o),
(341,722,c),
(341,671,o),
(317,632,o),
(256,586,c),
(279,559,l)
);
}
);
width = 446;
}
);
unicode = 8221;
},
{
glyphname = quoteleft;
kernLeft = KERN_quoteleft;
kernRight = KERN_quoteleft;
layers = (
{
layerId = m001;
shapes = (
{
closed = 1;
nodes = (
(84,763,o),
(56,721,o),
(56,653,cs),
(56,592,o),
(81,559,o),
(127,559,cs),
(168,559,o),
(195,584,o),
(195,620,cs),
(195,652,o),
(174,675,o),
(143,675,cs),
(132,675,o),
(121,672,o),
(113,667,c),
(113,718,o),
(137,757,o),
(198,803,c),
(175,830,l)
);
}
);
width = 257;
}
);
unicode = 8216;
},
{
glyphname = quoteright;
kernLeft = KERN_quoteright;
kernRight = KERN_quoteright;
layers = (
{
layerId = m001;
shapes = (
{
closed = 1;
nodes = (
(178,626,o),
(206,668,o),
(206,736,cs),
(206,797,o),
(181,830,o),
(135,830,cs),
(94,830,o),
(67,805,o),
(67,769,cs),
(67,737,o),
(88,714,o),
(119,714,cs),
(130,714,o),
(141,717,o),
(149,722,c),
(149,671,o),
(125,632,o),
(64,586,c),
(87,559,l)
);
}
);
width = 254;
}
);
unicode = 8217;
},
{
glyphname = guillemetleft;
kernLeft = KERN_guilsinglleft;
kernRight = KERN_guilsinglleft;
layers = (
{
layerId = m001;
shapes = (
{
closed = 1;
nodes = (
(238,124,l),
(140,262,l),
(239,400,l),
(219,421,l),
(49,262,l),
(219,104,l)
);
},
{
closed = 1;
nodes = (
(409,124,l),
(311,262,l),
(410,400,l),
(390,421,l),
(220,262,l),
(390,104,l)
);
}
);
width = 489;
}
);
unicode = 171;
},
{
glyphname = guillemetright;
kernLeft = KERN_guilsinglright;
kernRight = KERN_guilsinglright;
layers = (
{
layerId = m001;
shapes = (
{
closed = 1;
nodes = (
(270,421,l),
(250,400,l),
(349,262,l),
(251,124,l),
(270,104,l),
(440,262,l)
);
},
{
closed = 1;
nodes = (
(99,421,l),
(79,400,l),
(178,262,l),
(80,124,l),
(99,104,l),
(269,262,l)
);
}
);
width = 489;
}
);
unicode = 187;
},
{
glyphname = guilsinglleft;
kernLeft = KERN_guilsinglleft;
kernRight = KERN_guilsinglleft;
layers = (
{
layerId = m001;
shapes = (
{
closed = 1;
nodes = (
(238,124,l),
(140,262,l),
(239,400,l),
(219,421,l),
(49,262,l),
(219,104,l)
);
}
);
width = 318;
}
);
unicode = 8249;
},
{
glyphname = guilsinglright;
kernLeft = KERN_guilsinglright;
kernRight = KERN_guilsinglright;
layers = (
{
layerId = m001;
shapes = (
{
closed = 1;
nodes = (
(99,421,l),
(79,400,l),
(178,262,l),
(80,124,l),
(99,104,l),
(269,262,l)
);
}
);
width = 318;
}
);
unicode = 8250;
},
{
glyphname = quotedbl;
kernLeft = KERN_quotesingle;
kernRight = KERN_quotesingle;
layers = (
{
layerId = m001;
shapes = (
{
closed = 1;
nodes = (
(132,640,o),
(154,747,o),
(154,780,cs),
(154,809,o),
(134,830,o),
(107,830,cs),
(80,830,o),
(60,809,o),
(60,781,cs),
(60,749,o),
(83,640,o),
(93,564,c),
(122,564,l)
);
},
{
closed = 1;
nodes = (
(284,640,o),
(306,747,o),
(306,780,cs),
(306,809,o),
(286,830,o),
(259,830,cs),
(232,830,o),
(212,809,o),
(212,781,cs),
(212,749,o),
(235,640,o),
(245,564,c),
(274,564,l)
);
}
);
width = 367;
}
);
unicode = 34;
},
{
glyphname = quotesingle;
kernLeft = KERN_quotesingle;
kernRight = KERN_quotesingle;
layers = (
{
layerId = m001;
shapes = (
{
closed = 1;
nodes = (
(132,640,o),
(154,747,o),
(154,780,cs),
(154,809,o),
(134,830,o),
(107,830,cs),
(80,830,o),
(60,809,o),
(60,781,cs),
(60,749,o),
(83,640,o),
(93,564,c),
(122,564,l)
);
}
);
width = 215;
}
);
unicode = 39;
},
{
glyphname = florin;
layers = (
{
layerId = m001;
shapes = (
{
closed = 1;
nodes = (
(42,-211,o),
(31,-201,o),
(7,-158,cs),
(-6,-135,o),
(-24,-124,o),
(-46,-124,cs),
(-75,-124,o),
(-93,-143,o),
(-93,-173,cs),
(-93,-223,o),
(-42,-260,o),
(27,-260,cs),
(109,-260,o),
(173,-207,o),
(222,-99,cs),
(256,-23,o),
(278,63,o),
(304,226,cs),
(335,419,l),
(451,419,l),
(464,467,l),
(340,467,l),
(350,523,ls),
(374,663,o),
(414,732,o),
(471,732,cs),
(492,732,o),
(507,724,o),
(539,698,cs),
(568,674,o),
(584,665,o),
(600,665,cs),
(624,665,o),
(644,685,o),
(644,710,cs),
(644,750,o),
(587,780,o),
(511,780,cs),
(380,780,o),
(285,685,o),
(255,525,cs),
(244,467,l),
(144,467,l),
(130,419,l),
(235,419,l),
(185,82,ls),
(153,-129,o),
(120,-211,o),
(65,-211,cs)
);
}
);
width = 667;
}
);
unicode = 402;
},
{
glyphname = at;
layers = (
{
layerId = m001;
shapes = (
{
closed = 1;
nodes = (
(789,530,l),
(722,293,ls),
(707,240,o),
(696,187,o),
(696,167,cs),
(696,142,o),
(713,127,o),
(740,127,cs),
(828,127,o),
(921,277,o),
(921,420,cs),
(921,601,o),
(773,735,o),
(571,735,cs),
(330,735,o),
(143,545,o),
(143,299,cs),
(143,70,o),
(307,-86,o),
(550,-86,cs),
(662,-86,o),
(767,-53,o),
(864,14,c),
(885,-17,l),
(768,-98,o),
(662,-134,o),
(537,-134,cs),
(253,-134,o),
(52,46,o),
(52,300,cs),
(52,570,o),
(277,780,o),
(565,780,cs),
(804,780,o),
(966,635,o),
(966,422,cs),
(966,239,o),
(847,77,o),
(712,77,cs),
(647,77,o),
(613,116,o),
(607,192,c),
(603,192,l),
(562,123,o),
(495,77,o),
(434,77,cs),
(348,77,o),
(284,149,o),
(284,248,cs),
(284,394,o),
(417,540,o),
(550,540,cs),
(612,540,o),
(648,509,o),
(667,442,c),
(671,441,l),
(693,530,l)
);
},
{
closed = 1;
nodes = (
(470,498,o),
(382,362,o),
(382,227,cs),
(382,158,o),
(405,122,o),
(449,122,cs),
(535,122,o),
(634,267,o),
(634,394,cs),
(634,459,o),
(606,498,o),
(558,498,cs)
);
}
);
width = 1029;
}
);
unicode = 64;
},
{
glyphname = ampersand;
layers = (
{
layerId = m001;
shapes = (
{
closed = 1;
nodes = (
(314,505,o),
(296,560,o),
(296,618,cs),
(296,684,o),
(319,719,o),
(362,719,cs),
(409,719,o),
(439,679,o),
(439,617,cs),
(439,557,o),
(410,507,o),
(347,458,c)
);
},
{
closed = 1;
nodes = (
(408,83,o),
(339,53,o),
(284,53,cs),
(210,53,o),
(157,106,o),
(157,179,cs),
(157,248,o),
(206,316,o),
(290,364,c),
(465,133,l)
);
},
{
closed = 1;
nodes = (
(486,496,o),
(532,557,o),
(532,631,cs),
(532,718,o),
(467,780,o),
(376,780,cs),
(273,780,o),
(202,699,o),
(202,582,cs),
(202,522,o),
(220,470,o),
(263,408,c),
(105,331,o),
(36,257,o),
(36,167,cs),
(36,65,o),
(125,-10,o),
(247,-10,cs),
(337,-10,o),
(430,31,o),
(496,100,c),
(579,18,o),
(629,-10,o),
(695,-10,cs),
(776,-10,o),
(829,31,o),
(843,105,c),
(818,112,l),
(796,67,o),
(780,55,o),
(745,55,cs),
(685,55,o),
(623,95,o),
(567,171,c),
(709,379,ls),
(737,421,o),
(759,432,o),
(817,432,c),
(817,467,l),
(587,467,l),
(587,432,l),
(630,432,o),
(648,423,o),
(648,402,cs),
(648,367,o),
(602,288,o),
(537,209,c),
(375,420,l)
);
}
);
width = 878;
}
);
unicode = 38;
},
{
glyphname = paragraph;
layers = (
{
layerId = m001;
shapes = (
{
closed = 1;
nodes = (
(473,645,o),
(476,675,o),
(484,696,cs),
(496,724,o),
(517,732,o),
(582,732,c),
(582,770,l),
(306,770,ls),
(131,770,o),
(36,697,o),
(36,564,cs),
(36,443,o),
(111,372,o),
(238,372,cs),
(253,372,o),
(261,373,o),
(272,373,c),
(272,63,ls),
(272,-2,o),
(267,-71,o),
(262,-88,cs),
(253,-116,o),
(223,-127,o),
(153,-127,c),
(153,-165,l),
(347,-165,l),
(347,726,l),
(399,726,l),
(399,-165,l),
(582,-165,l),
(582,-127,l),
(521,-127,o),
(495,-117,o),
(486,-91,cs),
(478,-70,o),
(473,-12,o),
(473,63,cs),
(473,573,ls)
);
}
);
width = 631;
}
);
unicode = 182;
},
{
glyphname = section;
layers = (
{
layerId = m001;
shapes = (
{
closed = 1;
nodes = (
(165,320,o),
(137,360,o),
(137,401,cs),
(137,434,o),
(155,454,o),
(206,481,c),
(339,402,ls),
(398,366,o),
(431,321,o),
(431,278,cs),
(431,249,o),
(416,228,o),
(375,196,c),
(213,292,ls)
);
},
{
closed = 1;
nodes = (
(386,64,o),
(415,31,o),
(415,-18,cs),
(415,-88,o),
(364,-129,o),
(278,-129,cs),
(208,-129,o),
(143,-103,o),
(143,-74,cs),
(143,-51,o),
(187,-31,o),
(187,11,cs),
(187,45,o),
(158,73,o),
(123,73,cs),
(85,73,o),
(60,40,o),
(60,-10,cs),
(60,-105,o),
(149,-174,o),
(273,-174,cs),
(403,-174,o),
(494,-97,o),
(494,14,cs),
(494,73,o),
(467,126,o),
(417,167,c),
(478,212,o),
(504,255,o),
(504,314,cs),
(504,396,o),
(453,460,o),
(330,532,cs),
(270,567,ls),
(193,611,o),
(165,645,o),
(165,694,cs),
(165,755,o),
(207,790,o),
(279,790,cs),
(334,790,o),
(376,770,o),
(376,744,cs),
(376,723,o),
(348,717,o),
(348,681,cs),
(348,648,o),
(372,625,o),
(407,625,cs),
(445,625,o),
(469,653,o),
(469,695,cs),
(469,773,o),
(389,830,o),
(280,830,cs),
(165,830,o),
(91,765,o),
(91,662,cs),
(91,602,o),
(116,547,o),
(162,509,c),
(98,483,o),
(63,431,o),
(63,361,cs),
(63,276,o),
(112,218,o),
(243,145,cs),
(302,112,ls)
);
}
);
width = 566;
}
);
unicode = 167;
},
{
glyphname = copyright;
layers = (
{
layerId = m001;
shapes = (
{
closed = 1;
nodes = (
(831,605,o),
(657,780,o),
(441,780,cs),
(228,780,o),
(57,602,o),
(57,385,cs),
(57,168,o),
(229,-10,o),
(442,-10,cs),
(657,-10,o),
(831,166,o),
(831,386,cs)
);
},
{
closed = 1;
nodes = (
(783,194,o),
(630,38,o),
(442,38,cs),
(254,38,o),
(105,194,o),
(105,385,cs),
(105,575,o),
(253,732,o),
(441,732,cs),
(630,732,o),
(783,579,o),
(783,386,cs)
);
},
{
closed = 1;
nodes = (
(565,235,o),
(522,198,o),
(457,198,cs),
(364,198,o),
(313,262,o),
(313,379,cs),
(313,498,o),
(365,569,o),
(455,569,cs),
(520,569,o),
(570,532,o),
(586,472,c),
(612,472,l),
(607,603,l),
(586,603,l),
(576,568,l),
(530,597,o),
(494,609,o),
(450,609,cs),
(317,609,o),
(226,514,o),
(226,375,cs),
(226,243,o),
(311,157,o),
(444,157,cs),
(543,157,o),
(598,217,o),
(617,305,c),
(584,305,l)
);
}
);
width = 888;
}
);
unicode = 169;
},
{
glyphname = registered;
layers = (
{
layerId = m001;
shapes = (
{
closed = 1;
nodes = (
(831,605,o),
(657,780,o),
(441,780,cs),
(228,780,o),
(57,602,o),
(57,385,cs),
(57,168,o),
(229,-10,o),
(442,-10,cs),
(657,-10,o),
(831,166,o),
(831,386,cs)
);
},
{
closed = 1;
nodes = (
(783,194,o),
(630,38,o),
(442,38,cs),
(254,38,o),
(105,194,o),
(105,385,cs),
(105,575,o),
(253,732,o),
(441,732,cs),
(630,732,o),
(783,579,o),
(783,386,cs)
);
},
{
closed = 1;
nodes = (
(592,574,o),
(531,615,o),
(424,615,cs),
(249,615,l),
(249,590,l),
(292,588,o),
(299,578,o),
(299,527,cs),
(299,268,ls),
(299,217,o),
(291,207,o),
(243,205,c),
(243,183,l),
(441,183,l),
(441,205,l),
(377,205,o),
(369,217,o),
(369,271,cs),
(369,383,l),
(401,383,o),
(411,379,o),
(429,354,cs),
(567,183,l),
(675,183,l),
(675,205,l),
(645,210,o),
(627,220,o),
(608,243,cs),
(484,393,l),
(559,405,o),
(592,447,o),
(592,507,cs)
);
},
{
closed = 1;
nodes = (
(369,581,o),
(371,585,o),
(378,585,cs),
(424,585,ls),
(483,585,o),
(509,563,o),
(509,504,cs),
(509,442,o),
(476,416,o),
(409,416,cs),
(369,416,l),
(369,576,ls)
);
}
);
width = 888;
}
);
unicode = 174;
},
{
glyphname = trademark;
layers = (
{
layerId = m001;
shapes = (
{
closed = 1;
nodes = (
(73,770,l),
(73,694,l),
(93,694,l),
(95,737,o),
(108,748,o),
(158,748,cs),
(188,748,o),
(197,741,o),
(197,731,cs),
(197,531,ls),
(197,493,o),
(186,482,o),
(145,482,c),
(145,462,l),
(306,462,l),
(306,482,l),
(265,482,o),
(254,492,o),
(254,531,cs),
(254,731,ls),
(254,741,o),
(263,748,o),
(292,748,cs),
(340,748,o),
(349,740,o),
(354,694,c),
(375,694,l),
(375,770,l)
);
},
{
closed = 1;
nodes = (
(705,770,l),
(805,770,l),
(805,750,l),
(773,750,o),
(765,738,o),
(765,689,cs),
(765,543,ls),
(765,491,o),
(771,482,o),
(809,482,c),
(809,462,l),
(674,462,l),
(674,482,l),
(712,482,o),
(718,492,o),
(718,540,cs),
(718,720,l),
(714,720,l),
(597,458,l),
(589,458,l),
(476,720,l),
(472,720,l),
(472,543,ls),
(472,490,o),
(478,482,o),
(516,482,c),
(516,462,l),
(399,462,l),
(399,482,l),
(437,482,o),
(443,490,o),
(443,540,cs),
(443,692,ls),
(443,738,o),
(435,750,o),
(403,750,c),
(403,770,l),
(511,770,l),
(602,544,l),
(606,544,l)
);
}
);
width = 886;
}
);
unicode = 8482;
},
{
glyphname = degree;
layers = (
{
layerId = m001;
shapes = (
{
closed = 1;
nodes = (
(53,594,o),
(107,540,o),
(173,540,cs),
(239,540,o),
(293,594,o),
(293,660,cs),
(293,726,o),
(239,780,o),
(173,780,cs),
(107,780,o),
(53,726,o),
(53,660,cs)
);
},
{
closed = 1;
nodes = (
(83,709,o),
(124,749,o),
(173,749,cs),
(222,749,o),
(262,709,o),
(262,660,cs),
(262,611,o),
(222,570,o),
(173,570,cs),
(124,570,o),
(83,611,o),
(83,660,cs)
);
}
);
width = 346;
}
);
unicode = 176;
},
{
glyphname = bar;
layers = (
{
layerId = m001;
shapes = (
{
closed = 1;
nodes = (
(105,-250,l),
(185,-250,l),
(185,820,l),
(105,820,l)
);
}
);
width = 290;
}
);
unicode = 124;
},
{
glyphname = brokenbar;
layers = (
{
layerId = m001;
shapes = (
{
closed = 1;
nodes = (
(109,365,l),
(189,365,l),
(189,750,l),
(109,750,l)
);
},
{
closed = 1;
nodes = (
(109,-180,l),
(189,-180,l),
(189,205,l),
(109,205,l)
);
}
);
width = 298;
}
);
unicode = 166;
},
{
glyphname = dagger;
layers = (
{
layerId = m001;
shapes = (
{
closed = 1;
nodes = (
(138,429,o),
(166,461,o),
(257,469,c),
(256,370,o),
(239,317,o),
(202,261,c),
(231,153,o),
(257,-93,o),
(257,-260,c),
(297,-260,l),
(297,-93,o),
(323,153,o),
(352,261,c),
(315,317,o),
(297,370,o),
(297,469,c),
(386,461,o),
(414,429,o),
(460,429,cs),
(495,429,o),
(522,456,o),
(522,491,cs),
(522,526,o),
(495,553,o),
(460,553,cs),
(414,553,o),
(387,521,o),
(297,512,c),
(302,633,o),
(339,663,o),
(339,718,cs),
(339,753,o),
(312,780,o),
(277,780,cs),
(242,780,o),
(215,753,o),
(215,718,cs),
(215,662,o),
(253,632,o),
(256,512,c),
(165,520,o),
(137,553,o),
(92,553,cs),
(57,553,o),
(30,526,o),
(30,491,cs),
(30,456,o),
(57,429,o),
(92,429,cs)
);
}
);
width = 552;
}
);
unicode = 8224;
},
{
glyphname = daggerdbl;
layers = (
{
layerId = m001;
shapes = (
{
closed = 1;
nodes = (
(336,317,o),
(318,370,o),
(318,469,c),
(407,461,o),
(435,429,o),
(481,429,cs),
(516,429,o),
(543,456,o),
(543,491,cs),
(543,526,o),
(516,553,o),
(481,553,cs),
(435,553,o),
(408,521,o),
(318,512,c),
(323,633,o),
(360,663,o),
(360,718,cs),
(360,753,o),
(333,780,o),
(298,780,cs),
(263,780,o),
(236,753,o),
(236,718,cs),
(236,662,o),
(274,632,o),
(277,512,c),
(186,520,o),
(158,553,o),
(113,553,cs),
(78,553,o),
(51,526,o),
(51,491,cs),
(51,456,o),
(78,429,o),
(113,429,cs),
(159,429,o),
(187,461,o),
(278,469,c),
(277,370,o),
(260,317,o),
(223,261,c),
(260,203,o),
(277,150,o),
(278,51,c),
(187,59,o),
(159,91,o),
(113,91,cs),
(78,91,o),
(51,64,o),
(51,29,cs),
(51,-6,o),
(78,-33,o),
(113,-33,cs),
(158,-33,o),
(186,0,o),
(277,8,c),
(274,-112,o),
(236,-142,o),
(236,-198,cs),
(236,-233,o),
(263,-260,o),
(298,-260,cs),
(333,-260,o),
(360,-233,o),
(360,-198,cs),
(360,-143,o),
(323,-113,o),
(318,8,c),
(408,-1,o),
(435,-33,o),
(481,-33,cs),
(516,-33,o),
(543,-6,o),
(543,29,cs),
(543,64,o),
(516,91,o),
(481,91,cs),
(435,91,o),
(407,59,o),
(318,51,c),
(318,150,o),
(336,205,o),
(373,261,c)
);
}
);
width = 594;
}
);
unicode = 8225;
},
{
glyphname = servicemark;
layers = (
{
layerId = m001;
shapes = (
{
closed = 1;
nodes = (
(616,770,l),
(716,770,l),
(716,750,l),
(682,750,o),
(676,740,o),
(676,689,cs),
(676,543,ls),
(676,491,o),
(682,482,o),
(720,482,c),
(720,462,l),
(585,462,l),
(585,482,l),
(623,482,o),
(629,492,o),
(629,540,cs),
(629,720,l),
(625,720,l),
(508,458,l),
(500,458,l),
(387,720,l),
(383,720,l),
(383,543,ls),
(383,491,o),
(389,482,o),
(427,482,c),
(427,462,l),
(310,462,l),
(310,482,l),
(348,482,o),
(354,490,o),
(354,540,cs),
(354,692,ls),
(354,738,o),
(346,750,o),
(314,750,c),
(314,770,l),
(422,770,l),
(514,544,l),
(518,544,l)
);
},
{
closed = 1;
nodes = (
(92,472,l),
(103,492,l),
(126,472,o),
(149,464,o),
(181,464,cs),
(247,464,o),
(290,500,o),
(290,555,cs),
(290,598,o),
(269,619,o),
(188,657,cs),
(146,676,o),
(132,690,o),
(132,715,cs),
(132,740,o),
(150,755,o),
(180,755,cs),
(213,755,o),
(236,735,o),
(250,695,c),
(267,695,l),
(262,774,l),
(253,774,l),
(242,756,l),
(220,773,o),
(201,780,o),
(179,780,cs),
(126,780,o),
(89,744,o),
(89,694,cs),
(89,652,o),
(110,629,o),
(176,601,cs),
(228,579,o),
(241,563,o),
(241,537,cs),
(241,506,o),
(219,489,o),
(181,489,cs),
(135,489,o),
(100,517,o),
(93,562,c),
(75,562,l),
(82,472,l)
);
}
);
width = 797;
}
);
unicode = 8480;
},
{
glyphname = cent;
layers = (
{
layerId = m001;
shapes = (
{
closed = 1;
nodes = (
(288,537,l),
(146,520,o),
(53,416,o),
(53,261,cs),
(53,101,o),
(149,-7,o),
(288,-10,c),
(288,-147,l),
(338,-147,l),
(338,-7,l),
(408,2,o),
(470,35,o),
(510,83,c),
(480,112,l),
(433,66,o),
(388,45,o),
(338,42,c),
(338,491,l),
(361,486,o),
(377,474,o),
(397,451,c),
(422,417,o),
(434,410,o),
(458,410,cs),
(488,410,o),
(507,426,o),
(507,452,cs),
(507,503,o),
(437,538,o),
(338,540,c),
(338,683,l),
(288,683,l)
);
},
{
closed = 1;
nodes = (
(167,406,o),
(209,480,o),
(288,491,c),
(288,46,l),
(209,65,o),
(167,144,o),
(167,276,cs)
);
}
);
width = 555;
}
);
unicode = 162;
},
{
glyphname = currency;
layers = (
{
layerId = m001;
shapes = (
{
closed = 1;
nodes = (
(99,23,l),
(170,94,l),
(207,63,o),
(253,46,o),
(306,46,cs),
(358,46,o),
(404,62,o),
(442,93,c),
(513,22,l),
(548,57,l),
(477,128,l),
(507,165,o),
(524,211,o),
(524,263,cs),
(524,315,o),
(507,361,o),
(476,399,c),
(548,471,l),
(513,506,l),
(441,434,l),
(403,464,o),
(358,481,o),
(306,481,cs),
(254,481,o),
(208,464,o),
(171,434,c),
(99,506,l),
(64,471,l),
(136,399,l),
(105,361,o),
(89,315,o),
(89,263,cs),
(89,211,o),
(106,165,o),
(136,128,c),
(65,57,l)
);
},
{
closed = 1;
nodes = (
(139,355,o),
(214,431,o),
(306,431,cs),
(398,431,o),
(474,355,o),
(474,263,cs),
(474,171,o),
(398,96,o),
(306,96,cs),
(214,96,o),
(139,171,o),
(139,263,cs)
);
}
);
width = 613;
}
);
unicode = 164;
},
{
glyphname = dollar;
layers = (
{
layerId = m001;
shapes = (
{
closed = 1;
nodes = (
(288,779,l),
(164,771,o),
(82,688,o),
(82,568,cs),
(82,432,o),
(186,383,o),
(288,341,c),
(288,41,l),
(196,44,o),
(165,84,o),
(154,126,cs),
(145,159,o),
(138,230,o),
(87,230,cs),
(62,230,o),
(38,213,o),
(38,168,cs),
(38,67,o),
(155,-3,o),
(288,-9,c),
(288,-170,l),
(343,-170,l),
(343,-8,l),
(482,4,o),
(578,91,o),
(578,217,cs),
(578,315,o),
(518,379,o),
(343,455,c),
(343,731,l),
(479,716,o),
(411,570,o),
(499,570,cs),
(531,570,o),
(551,590,o),
(551,624,cs),
(551,698,o),
(456,767,o),
(343,778,c),
(343,900,l),
(288,900,l)
);
},
{
closed = 1;
nodes = (
(474,101,o),
(430,54,o),
(343,43,c),
(343,317,l),
(415,285,o),
(474,247,o),
(474,169,cs)
);
},
{
closed = 1;
nodes = (
(176,679,o),
(219,720,o),
(288,730,c),
(288,479,l),
(210,518,o),
(176,563,o),
(176,618,cs)
);
}
);
width = 622;
}
);
unicode = 36;
},
{
glyphname = euro;
layers = (
{
layerId = m001;
shapes = (
{
closed = 1;
nodes = (
(253,358,l),
(252,367,o),
(252,377,o),
(252,387,cs),
(252,401,o),
(253,416,o),
(254,430,c),
(488,430,l),
(488,488,l),
(257,488,l),
(276,650,o),
(340,732,o),
(438,732,cs),
(513,732,o),
(564,669,o),
(586,554,c),
(629,554,l),
(629,770,l),
(601,770,l),
(584,719,l),
(528,769,o),
(495,780,o),
(434,780,cs),
(281,780,o),
(166,675,o),
(132,488,c),
(42,488,l),
(42,430,l),
(126,430,l),
(124,416,o),
(123,402,o),
(123,388,cs),
(123,378,o),
(123,368,o),
(124,358,c),
(43,358,l),
(43,300,l),
(129,300,l),
(158,110,o),
(272,-10,o),
(423,-10,cs),
(494,-10,o),
(553,16,o),
(598,69,c),
(610,0,l),
(644,0,l),
(644,252,l),
(601,252,l),
(590,124,o),
(522,38,o),
(431,38,cs),
(327,38,o),
(255,145,o),
(255,300,c),
(488,300,l),
(488,358,l)
);
}
);
width = 717;
}
);
unicode = 8364;
},
{
glyphname = sterling;
layers = (
{
layerId = m001;
shapes = (
{
closed = 1;
nodes = (
(214,58,o),
(186,45,o),
(153,45,cs),
(122,45,o),
(103,55,o),
(103,77,cs),
(103,97,o),
(121,109,o),
(147,109,cs),
(173,109,o),
(202,99,o),
(235,83,c)
);
},
{
closed = 1;
nodes = (
(280,564,o),
(275,599,o),
(275,621,cs),
(275,689,o),
(322,732,o),
(397,732,cs),
(518,732,o),
(482,619,o),
(555,619,cs),
(583,619,o),
(599,635,o),
(599,665,cs),
(599,731,o),
(517,780,o),
(407,780,cs),
(264,780,o),
(172,698,o),
(172,566,cs),
(172,528,o),
(179,485,o),
(195,431,c),
(75,431,l),
(75,370,l),
(214,370,l),
(238,306,o),
(255,234,o),
(255,194,cs),
(255,178,o),
(253,149,o),
(249,134,c),
(213,155,o),
(176,165,o),
(143,165,cs),
(83,165,o),
(39,126,o),
(39,71,cs),
(39,21,o),
(76,-11,o),
(134,-11,cs),
(191,-11,o),
(254,19,o),
(280,59,c),
(387,4,o),
(433,-10,o),
(488,-10,cs),
(576,-10,o),
(634,39,o),
(634,154,c),
(624,158,l),
(587,110,o),
(541,89,o),
(476,89,cs),
(427,89,o),
(354,99,o),
(307,111,c),
(330,154,o),
(341,204,o),
(341,270,cs),
(341,306,o),
(338,330,o),
(327,370,c),
(531,370,l),
(531,431,l),
(314,431,l),
(288,534,ls)
);
}
);
width = 680;
}
);
unicode = 163;
},
{
glyphname = yen;
layers = (
{
layerId = m001;
shapes = (
{
closed = 1;
nodes = (
(454,235,l),
(454,304,l),
(626,304,l),
(626,364,l),
(487,364,l),
(608,568,ls),
(690,706,o),
(716,732,o),
(772,732,c),
(772,770,l),
(543,770,l),
(543,732,l),
(591,732,o),
(608,723,o),
(608,698,cs),
(608,673,o),
(591,634,o),
(549,563,cs),
(436,373,l),
(432,373,l),
(277,638,ls),
(261,665,o),
(254,685,o),
(254,698,cs),
(254,723,o),
(269,732,o),
(345,732,c),
(345,770,l),
(30,770,l),
(30,732,l),
(85,732,o),
(108,715,o),
(149,646,cs),
(314,364,l),
(172,364,l),
(172,304,l),
(349,304,l),
(349,235,l),
(172,235,l),
(172,175,l),
(349,175,l),
(348,59,o),
(333,38,o),
(239,38,c),
(239,0,l),
(563,0,l),
(563,38,l),
(470,38,o),
(455,58,o),
(454,175,c),
(626,175,l),
(626,235,l)
);
}
);
width = 802;
}
);
unicode = 165;
},
{
glyphname = bulletoperator;
layers = (
{
layerId = m001;
shapes = (
{
closed = 1;
nodes = (
(77,238,o),
(106,209,o),
(142,209,cs),
(179,209,o),
(208,238,o),
(208,274,cs),
(208,311,o),
(179,340,o),
(142,340,cs),
(106,340,o),
(77,311,o),
(77,274,cs)
);
}
);
width = 285;
}
);
unicode = 8729;
},
{
glyphname = divisionslash;
layers = (
{
layerId = m001;
shapes = (
{
closed = 1;
nodes = (
(531,770,l),
(-22,0,l),
(41,0,l),
(585,770,l)
);
}
);
width = 562;
}
);
unicode = 8725;
},
{
glyphname = plus;
layers = (
{
layerId = m001;
shapes = (
{
closed = 1;
nodes = (
(301,313,l),
(509,313,l),
(509,363,l),
(301,363,l),
(301,572,l),
(249,572,l),
(249,363,l),
(41,363,l),
(41,313,l),
(249,313,l),
(249,104,l),
(301,104,l)
);
}
);
width = 550;
}
);
unicode = 43;
},
{
glyphname = minus;
layers = (
{
layerId = m001;
shapes = (
{
closed = 1;
nodes = (
(83,363,l),
(83,313,l),
(551,313,l),
(551,363,l)
);
}
);
width = 634;
}
);
unicode = 8722;
},
{
glyphname = multiply;
layers = (
{
layerId = m001;
shapes = (
{
closed = 1;
nodes = (
(260,302,l),
(414,148,l),
(449,183,l),
(295,337,l),
(450,492,l),
(413,529,l),
(258,374,l),
(104,528,l),
(69,493,l),
(223,339,l),
(68,184,l),
(105,147,l)
);
}
);
width = 519;
}
);
unicode = 215;
},
{
glyphname = divide;
layers = (
{
layerId = m001;
shapes = (
{
closed = 1;
nodes = (
(237,126,o),
(266,97,o),
(302,97,cs),
(339,97,o),
(368,126,o),
(368,162,cs),
(368,199,o),
(339,228,o),
(302,228,cs),
(266,228,o),
(237,199,o),
(237,162,cs)
);
},
{
closed = 1;
nodes = (
(237,476,o),
(266,447,o),
(302,447,cs),
(339,447,o),
(368,476,o),
(368,512,cs),
(368,549,o),
(339,578,o),
(302,578,cs),
(266,578,o),
(237,549,o),
(237,512,cs)
);
},
{
closed = 1;
nodes = (
(66,363,l),
(66,313,l),
(534,313,l),
(534,363,l)
);
}
);
width = 599;
}
);
unicode = 247;
},
{
glyphname = equal;
layers = (
{
layerId = m001;
shapes = (
{
closed = 1;
nodes = (
(83,472,l),
(83,422,l),
(537,422,l),
(537,472,l)
);
},
{
closed = 1;
nodes = (
(83,302,l),
(83,252,l),
(537,252,l),
(537,302,l)
);
}
);
width = 620;
}
);
unicode = 61;
},
{
glyphname = greater;
layers = (
{
layerId = m001;
shapes = (
{
closed = 1;
nodes = (
(84,72,l),
(542,304,l),
(542,368,l),
(84,600,l),
(84,544,l),
(497,336,l),
(84,126,l)
);
}
);
width = 581;
}
);
unicode = 62;
},
{
glyphname = less;
layers = (
{
layerId = m001;
shapes = (
{
closed = 1;
nodes = (
(497,544,l),
(497,600,l),
(39,368,l),
(39,304,l),
(497,72,l),
(497,126,l),
(84,336,l)
);
}
);
width = 581;
}
);
unicode = 60;
},
{
glyphname = plusminus;
layers = (
{
layerId = m001;
shapes = (
{
closed = 1;
nodes = (
(343,443,l),
(551,443,l),
(551,493,l),
(343,493,l),
(343,702,l),
(291,702,l),
(291,493,l),
(83,493,l),
(83,443,l),
(291,443,l),
(291,234,l),
(343,234,l)
);
},
{
closed = 1;
nodes = (
(83,145,l),
(83,95,l),
(551,95,l),
(551,145,l)
);
}
);
width = 634;
}
);
unicode = 177;
},
{
glyphname = asciitilde;
layers = (
{
layerId = m001;
shapes = (
{
closed = 1;
nodes = (
(127,279,o),
(138,289,o),
(163,289,cs),
(228,289,o),
(310,241,o),
(367,241,cs),
(419,241,o),
(460,289,o),
(470,359,c),
(437,359,l),
(427,327,o),
(416,317,o),
(391,317,cs),
(329,317,o),
(251,363,o),
(194,363,cs),
(138,363,o),
(96,319,o),
(84,249,c),
(118,249,l)
);
}
);
width = 553;
}
);
unicode = 126;
},
{
glyphname = logicalnot;
layers = (
{
layerId = m001;
shapes = (
{
closed = 1;
nodes = (
(541,110,l),
(541,363,l),
(83,363,l),
(83,313,l),
(491,313,l),
(491,110,l)
);
}
);
width = 625;
}
);
unicode = 172;
},
{
glyphname = asciicircum;
layers = (
{
layerId = m001;
shapes = (
{
closed = 1;
nodes = (
(76,230,l),
(121,230,l),
(240,348,l),
(359,230,l),
(404,230,l),
(285,409,l),
(195,409,l)
);
}
);
width = 480;
}
);
unicode = 94;
},
{
glyphname = micro;
layers = (
{
anchors = (
{
name = bottom;
pos = (317,0);
},
{
name = top;
pos = (339,651);
}
);
layerId = m001;
shapes = (
{
closed = 1;
nodes = (
(234,22,o),
(277,-10,o),
(331,-10,cs),
(393,-10,o),
(452,32,o),
(494,109,c),
(498,109,l),
(509,-11,l),
(674,1,l),
(674,36,l),
(612,36,o),
(599,43,o),
(593,76,cs),
(589,100,o),
(587,148,o),
(587,223,cs),
(587,530,l),
(406,530,l),
(406,495,l),
(477,495,o),
(489,477,o),
(489,370,cs),
(489,272,ls),
(489,216,o),
(486,196,o),
(472,165,cs),
(436,81,o),
(394,44,o),
(336,44,cs),
(260,44,o),
(228,108,o),
(228,257,cs),
(228,530,l),
(47,530,l),
(47,495,l),
(118,495,o),
(130,476,o),
(130,370,cs),
(130,-198,ls),
(130,-233,o),
(155,-260,o),
(188,-260,cs),
(222,-260,o),
(244,-233,o),
(244,-190,cs),
(244,-153,o),
(224,-23,o),
(203,81,c),
(207,82,l)
);
}
);
width = 721;
}
);
unicode = 181;
},
{
glyphname = percent;
layers = (
{
layerId = m001;
shapes = (
{
closed = 1;
nodes = (
(588,770,l),
(35,0,l),
(92,0,l),
(636,770,l)
);
},
{
pos = (45,0);
ref = zerosuperior;
},
{
pos = (316,0);
ref = zeroinferior;
}
);
width = 671;
}
);
unicode = 37;
},
{
glyphname = perthousand;
layers = (
{
layerId = m001;
shapes = (
{
closed = 1;
nodes = (
(588,770,l),
(35,0,l),
(92,0,l),
(636,770,l)
);
},
{
pos = (45,0);
ref = zerosuperior;
},
{
pos = (607,0);
ref = zeroinferior;
},
{
pos = (316,0);
ref = zeroinferior;
}
);
width = 916;
}
);
unicode = 8240;
},
{
glyphname = dieresis;
layers = (
{
anchors = (
{
name = _top;
pos = (161,651);
}
);
layerId = m001;
shapes = (
{
closed = 1;
nodes = (
(20,676,o),
(45,651,o),
(78,651,cs),
(111,651,o),
(136,676,o),
(136,709,cs),
(136,742,o),
(111,767,o),
(78,767,cs),
(45,767,o),
(20,742,o),
(20,709,cs)
);
},
{
closed = 1;
nodes = (
(187,676,o),
(212,651,o),
(245,651,cs),
(278,651,o),
(303,676,o),
(303,709,cs),
(303,742,o),
(278,767,o),
(245,767,cs),
(212,767,o),
(187,742,o),
(187,709,cs)
);
}
);
width = 323;
}
);
unicode = 168;
},
{
glyphname = dotaccent;
layers = (
{
anchors = (
{
name = _top;
pos = (82,651);
}
);
layerId = m001;
shapes = (
{
closed = 1;
nodes = (
(20,708,o),
(47,681,o),
(82,681,cs),
(117,681,o),
(144,708,o),
(144,743,cs),
(144,778,o),
(117,805,o),
(82,805,cs),
(47,805,o),
(20,778,o),
(20,743,cs)
);
}
);
width = 164;
}
);
unicode = 729;
},
{
glyphname = grave;
layers = (
{
anchors = (
{
name = _top;
pos = (155,651);
}
);
layerId = m001;
shapes = (
{
closed = 1;
nodes = (
(125,770,ls),
(100,793,o),
(79,803,o),
(58,803,cs),
(35,803,o),
(20,790,o),
(20,768,cs),
(20,747,o),
(39,731,o),
(71,716,cs),
(208,651,l),
(255,651,l)
);
}
);
width = 275;
}
);
unicode = 96;
},
{
glyphname = acute;
layers = (
{
anchors = (
{
name = _top;
pos = (110,651);
}
);
layerId = m001;
shapes = (
{
closed = 1;
nodes = (
(204,716,ls),
(236,731,o),
(255,747,o),
(255,768,cs),
(255,790,o),
(240,803,o),
(217,803,cs),
(196,803,o),
(175,793,o),
(150,770,cs),
(20,651,l),
(67,651,l)
);
}
);
width = 275;
}
);
unicode = 180;
},
{
glyphname = hungarumlaut;
layers = (
{
anchors = (
{
name = _top;
pos = (205,651);
}
);
layerId = m001;
shapes = (
{
closed = 1;
nodes = (
(204,716,ls),
(236,731,o),
(255,747,o),
(255,768,cs),
(255,790,o),
(240,803,o),
(217,803,cs),
(196,803,o),
(175,793,o),
(150,770,cs),
(20,651,l),
(67,651,l)
);
},
{
closed = 1;
nodes = (
(402,716,ls),
(434,731,o),
(453,747,o),
(453,768,cs),
(453,790,o),
(438,803,o),
(415,803,cs),
(394,803,o),
(373,793,o),
(348,770,cs),
(218,651,l),
(265,651,l)
);
}
);
width = 473;
}
);
unicode = 733;
},
{
glyphname = circumflex;
layers = (
{
anchors = (
{
name = _top;
pos = (184,651);
}
);
layerId = m001;
shapes = (
{
closed = 1;
nodes = (
(20,651,l),
(65,651,l),
(184,719,l),
(303,651,l),
(348,651,l),
(229,780,l),
(139,780,l)
);
}
);
width = 368;
}
);
unicode = 710;
},
{
glyphname = caron;
layers = (
{
anchors = (
{
name = _top;
pos = (184,651);
}
);
layerId = m001;
shapes = (
{
closed = 1;
nodes = (
(348,780,l),
(303,780,l),
(184,712,l),
(65,780,l),
(20,780,l),
(139,651,l),
(229,651,l)
);
}
);
width = 368;
}
);
unicode = 711;
},
{
glyphname = breve;
layers = (
{
anchors = (
{
name = _top;
pos = (158,651);
}
);
layerId = m001;
shapes = (
{
closed = 1;
nodes = (
(248,739,o),
(207,715,o),
(157,715,cs),
(108,715,o),
(68,739,o),
(56,776,c),
(20,776,l),
(23,701,o),
(81,646,o),
(158,646,cs),
(233,646,o),
(291,700,o),
(296,776,c),
(259,776,l)
);
}
);
width = 316;
}
);
unicode = 728;
},
{
glyphname = ring;
layers = (
{
anchors = (
{
name = _top;
pos = (106,651);
}
);
layerId = m001;
shapes = (
{
closed = 1;
nodes = (
(20,693,o),
(57,656,o),
(106,656,cs),
(157,656,o),
(194,693,o),
(194,742,cs),
(194,793,o),
(157,830,o),
(106,830,cs),
(57,830,o),
(20,793,o),
(20,742,cs)
);
},
{
closed = 1;
nodes = (
(59,768,o),
(79,787,o),
(106,787,cs),
(132,787,o),
(151,768,o),
(151,742,cs),
(151,715,o),
(132,695,o),
(106,695,cs),
(79,695,o),
(59,715,o),
(59,742,cs)
);
}
);
width = 214;
}
);
unicode = 730;
},
{
glyphname = tilde;
layers = (
{
anchors = (
{
name = _top;
pos = (191,651);
}
);
layerId = m001;
shapes = (
{
closed = 1;
nodes = (
(63,690,o),
(74,700,o),
(99,700,cs),
(153,700,o),
(208,652,o),
(261,652,cs),
(311,652,o),
(354,703,o),
(361,770,c),
(328,770,l),
(318,739,o),
(306,728,o),
(281,728,cs),
(230,728,o),
(179,774,o),
(126,774,cs),
(74,774,o),
(31,728,o),
(20,660,c),
(54,660,l)
);
}
);
width = 381;
}
);
unicode = 732;
},
{
glyphname = macron;
layers = (
{
anchors = (
{
name = _top;
pos = (155,651);
}
);
layerId = m001;
shapes = (
{
closed = 1;
nodes = (
(290,752,l),
(20,752,l),
(20,702,l),
(290,702,l)
);
}
);
width = 310;
}
);
unicode = 175;
},
{
glyphname = cedilla;
layers = (
{
anchors = (
{
name = _bottom;
pos = (122,0);
}
);
layerId = m001;
shapes = (
{
closed = 1;
nodes = (
(101,12,l),
(48,-110,l),
(51,-115,l),
(61,-114,o),
(76,-113,o),
(86,-113,cs),
(137,-113,o),
(165,-132,o),
(165,-167,cs),
(165,-197,o),
(144,-217,o),
(115,-217,cs),
(93,-217,o),
(82,-208,o),
(70,-180,cs),
(58,-155,o),
(51,-148,o),
(37,-148,cs),
(18,-148,o),
(6,-161,o),
(6,-184,cs),
(6,-229,o),
(53,-260,o),
(121,-260,cs),
(198,-260,o),
(247,-221,o),
(247,-158,cs),
(247,-100,o),
(206,-72,o),
(123,-72,c),
(154,12,l)
);
}
);
width = 232;
}
);
unicode = 184;
},
{
glyphname = ogonek;
layers = (
{
anchors = (
{
name = _bottom;
pos = (166,0);
}
);
layerId = m001;
shapes = (
{
closed = 1;
nodes = (
(190,-157,o),
(155,-174,o),
(130,-174,cs),
(98,-174,o),
(79,-153,o),
(79,-126,cs),
(79,-84,o),
(130,-28,o),
(202,7,c),
(202,11,l),
(149,11,l),
(55,-26,o),
(0,-86,o),
(0,-149,cs),
(0,-202,o),
(36,-234,o),
(97,-234,cs),
(155,-234,o),
(207,-213,o),
(254,-152,c),
(225,-121,l)
);
}
);
width = 265;
}
);
unicode = 731;
},
{
glyphname = caron.alt;
layers = (
{
anchors = (
{
name = _top;
pos = (79,651);
}
);
layerId = m001;
shapes = (
{
closed = 1;
nodes = (
(116,621,o),
(142,658,o),
(142,701,cs),
(142,751,o),
(119,780,o),
(79,780,cs),
(44,780,o),
(20,758,o),
(20,727,cs),
(20,699,o),
(38,680,o),
(64,680,cs),
(75,680,o),
(84,683,o),
(90,688,c),
(90,659,o),
(70,635,o),
(25,610,c),
(47,584,l)
);
}
);
width = 162;
}
);
},
{
glyphname = dieresis.cap;
layers = (
{
anchors = (
{
name = _topcap;
pos = (161,830);
}
);
layerId = m001;
shapes = (
{
closed = 1;
nodes = (
(20,881,o),
(42,859,o),
(70,859,cs),
(99,859,o),
(121,881,o),
(121,910,cs),
(121,938,o),
(99,960,o),
(70,960,cs),
(42,960,o),
(20,938,o),
(20,910,cs)
);
},
{
closed = 1;
nodes = (
(202,881,o),
(224,859,o),
(253,859,cs),
(281,859,o),
(303,881,o),
(303,910,cs),
(303,938,o),
(281,960,o),
(253,960,cs),
(224,960,o),
(202,938,o),
(202,910,cs)
);
}
);
width = 323;
}
);
},
{
glyphname = dotaccent.cap;
layers = (
{
anchors = (
{
name = _topcap;
pos = (82,830);
}
);
layerId = m001;
shapes = (
{
closed = 1;
nodes = (
(30,876,o),
(54,852,o),
(82,852,cs),
(113,852,o),
(137,876,o),
(137,904,cs),
(137,935,o),
(113,959,o),
(82,959,cs),
(54,959,o),
(30,935,o),
(30,904,cs)
);
}
);
width = 165;
}
);
},
{
glyphname = grave.cap;
layers = (
{
anchors = (
{
name = _topcap;
pos = (169,830);
}
);
layerId = m001;
shapes = (
{
closed = 1;
nodes = (
(145,927,ls),
(108,949,o),
(85,960,o),
(58,960,cs),
(35,960,o),
(20,947,o),
(20,925,cs),
(20,904,o),
(50,888,o),
(95,878,cs),
(215,850,l),
(275,850,l)
);
}
);
width = 295;
}
);
},
{
glyphname = acute.cap;
layers = (
{
anchors = (
{
name = _topcap;
pos = (120,830);
}
);
layerId = m001;
shapes = (
{
closed = 1;
nodes = (
(200,878,ls),
(245,888,o),
(275,904,o),
(275,925,cs),
(275,947,o),
(260,960,o),
(237,960,cs),
(210,960,o),
(187,949,o),
(150,927,cs),
(20,850,l),
(80,850,l)
);
}
);
width = 295;
}
);
},
{
glyphname = hungarumlaut.cap;
layers = (
{
anchors = (
{
name = _topcap;
pos = (205,830);
}
);
layerId = m001;
shapes = (
{
closed = 1;
nodes = (
(190,878,ls),
(235,889,o),
(265,904,o),
(265,925,cs),
(265,947,o),
(250,960,o),
(227,960,cs),
(200,960,o),
(176,950,o),
(140,927,cs),
(20,850,l),
(80,850,l)
);
},
{
closed = 1;
nodes = (
(377,878,ls),
(422,889,o),
(452,904,o),
(452,925,cs),
(452,947,o),
(437,960,o),
(414,960,cs),
(387,960,o),
(363,950,o),
(327,927,cs),
(207,850,l),
(267,850,l)
);
}
);
width = 473;
}
);
},
{
glyphname = circumflex.cap;
layers = (
{
anchors = (
{
name = _topcap;
pos = (184,830);
}
);
layerId = m001;
shapes = (
{
closed = 1;
nodes = (
(20,851,l),
(65,851,l),
(184,905,l),
(303,851,l),
(348,851,l),
(239,960,l),
(129,960,l)
);
}
);
width = 368;
}
);
},
{
glyphname = caron.cap;
layers = (
{
anchors = (
{
name = _topcap;
pos = (184,830);
}
);
layerId = m001;
shapes = (
{
closed = 1;
nodes = (
(348,960,l),
(303,960,l),
(184,906,l),
(65,960,l),
(20,960,l),
(129,851,l),
(239,851,l)
);
}
);
width = 368;
}
);
},
{
glyphname = breve.cap;
layers = (
{
anchors = (
{
name = _topcap;
pos = (158,830);
}
);
layerId = m001;
shapes = (
{
closed = 1;
nodes = (
(248,932,o),
(207,914,o),
(157,914,cs),
(107,914,o),
(67,932,o),
(56,960,c),
(20,960,l),
(23,894,o),
(81,845,o),
(158,845,cs),
(233,845,o),
(291,893,o),
(296,960,c),
(259,960,l)
);
}
);
width = 316;
}
);
},
{
glyphname = ring.cap;
layers = (
{
anchors = (
{
name = _topcap;
pos = (85,830);
}
);
layerId = m001;
shapes = (
{
closed = 1;
nodes = (
(20,858,o),
(48,830,o),
(85,830,cs),
(122,830,o),
(150,858,o),
(150,895,cs),
(150,932,o),
(122,960,o),
(85,960,cs),
(48,960,o),
(20,932,o),
(20,895,cs)
);
},
{
closed = 1;
nodes = (
(51,914,o),
(65,928,o),
(85,928,cs),
(104,928,o),
(118,914,o),
(118,895,cs),
(118,875,o),
(104,861,o),
(85,861,cs),
(65,861,o),
(51,875,o),
(51,895,cs)
);
}
);
width = 170;
}
);
},
{
glyphname = tilde.cap;
layers = (
{
anchors = (
{
name = _topcap;
pos = (191,830);
}
);
layerId = m001;
shapes = (
{
closed = 1;
nodes = (
(63,876,o),
(74,886,o),
(99,886,cs),
(153,886,o),
(208,838,o),
(261,838,cs),
(311,838,o),
(354,889,o),
(361,956,c),
(328,956,l),
(318,925,o),
(306,914,o),
(281,914,cs),
(230,914,o),
(179,960,o),
(126,960,cs),
(74,960,o),
(31,914,o),
(20,846,c),
(54,846,l)
);
}
);
width = 381;
}
);
},
{
glyphname = macron.cap;
layers = (
{
anchors = (
{
name = _topcap;
pos = (155,830);
}
);
layerId = m001;
shapes = (
{
closed = 1;
nodes = (
(290,930,l),
(20,930,l),
(20,880,l),
(290,880,l)
);
}
);
width = 310;
}
);
},
{
glyphname = apostrophemod;
layers = (
{
layerId = m001;
shapes = (
{
closed = 1;
nodes = (
(122,667,o),
(144,757,o),
(144,780,cs),
(144,809,o),
(124,830,o),
(97,830,cs),
(70,830,o),
(50,809,o),
(50,781,cs),
(50,758,o),
(73,667,o),
(83,611,c),
(112,611,l)
);
}
);
width = 194;
}
);
unicode = 700;
},
{
glyphname = commaaccent;
layers = (
{
anchors = (
{
name = _bottom;
pos = (79,-10);
}
);
layerId = m001;
shapes = (
{
closed = 1;
nodes = (
(116,-223,o),
(142,-186,o),
(142,-143,cs),
(142,-93,o),
(119,-64,o),
(79,-64,cs),
(44,-64,o),
(20,-86,o),
(20,-117,cs),
(20,-145,o),
(38,-164,o),
(64,-164,cs),
(75,-164,o),
(84,-161,o),
(90,-156,c),
(90,-185,o),
(70,-209,o),
(25,-234,c),
(47,-260,l)
);
}
);
width = 162;
}
);
unicode = 63171;
},
